<?xml version="1.0" encoding="utf-8"?>
<!-- Generator: Adobe Illustrator 26.2.1, SVG Export Plug-In . SVG Version: 6.00 Build 0)  -->
<svg version="1.1" id="Layer_1" xmlns="http://www.w3.org/2000/svg" xmlns:xlink="http://www.w3.org/1999/xlink" x="0px" y="0px"
	 viewBox="0 0 1920 1005" style="enable-background:new 0 0 1920 1005;" xml:space="preserve">
<style type="text/css">
	.st0{fill:#7FA088;}
</style>
<g id="Group_870" transform="translate(-10.803 -426.554)">
	<path id="Path_875" class="st0" d="M-8.77,1140.76h1960.84v287.2H-8.77V1140.76z"/>
	<path id="Path_800" class="st0" d="M-3.1,1148.3l678.05,2.14v-109.31c0,0-4.58,35.9-8.65,38.04c-4.07,2.14-4.07-68.59,4.07-70.73
		c0,0-9.16,2.14-8.15,22.5c8.61-55.55,5.67-112.28-8.65-166.64c11,72.63,7.2,130.52,1.91,168.92c-2.82,20.49-7.54,45.74-8.53,45.95
		c-5.09,1.07,16.29-155.39,16.29-155.39s-42.76,168.25-41.74,169.32c1.02,1.07,5.09-106.09,17.31-132.88
		c0,0-24.43,58.94-32.58,98.59c0,0-8.15-48.22-11.2-49.3c-1.43,38.23-2,52.51-2.04,52.51c-0.17-0.01,10.09-257.53,6.62-257.73
		c-1.57-0.09-4.48,52.4-14.25,147.89c-4.8,46.86-9.37,85.77-12.73,113.06c-1.1-6.81-1.3-15.46-1.4-25.45
		c-0.13-13.13,0.89-27.06,5.47-30.27c0,0-8.15,3.22-9.16,39.65c0,0,0-111.45-2.04-111.45s-8.15,117.88-14.25,120.02
		c-6.11,2.14-10.18-42.87-10.18-42.87s-2.04,76.09-4.07,80.37c-2.29,4.81-8.66,17.02-11.2,16.08c-2.28-0.85-0.32-11.88,2.54-30.54
		c6.46-42.12,4.35-37.35,7.13-50.37c4.57-21.17,11.76-41.68,21.38-61.08l96.72-136.1c-24.09,25.89-43.85,49.02-59.05,67.51
		c0,0-76.33,92.9-75.85,133.42c0,0.03,0,0.16-0.03,0.17c-1,0.22-25.61-118.48-34.58-139.48c0,0,20.36,130.74,7.13,145.74
		c0,0-4.07,13.93-6.11,55.72c0,0-11.2-47.15,5.09-66.44c16.29-19.29,27.49-66.44,27.49-66.44s-37.66,62.16-39.7,62.16
		s-6.11-55.73-6.11-55.73l-6.11,79.3c0,0-8.14,24.65-10.18,24.65s-9.16-35.36-11.2-35.36v21.44c0,0-12.22-62.16-8.14-65.37
		c0,0-11.2,102.88-11.2,131.81c0,28.93-15.27-72.87-11.2-79.3s-6.11,13.93-5.09,17.15c0,0-4.07-11.79-3.05-43.94
		c0,0-15.27,62.15-14.25,62.15s-20.36-18.22-21.38-45.01c0,0-1.02,18.22,14.25,68.58c0,0-5.09,12.86-6.11,10.72
		c-1.02-2.14,31.56-136.1,40.72-153.25s-53.96,100.73-53.96,122.17c0,0.47-0.05,1.4-0.33,1.46c-2.91,0.62-22.35-96.03-47.01-195.96
		c-8.43-34.15-20.55-81.16-36.65-137.17c18.16,100.56,36.31,201.11,54.47,301.67c27.23,150.83-1.02,37.51-3.05,38.58
		c-2.04,1.07-8.14-39.65-10.18-39.65s0,18.22-1.02,19.29c-1.02,1.07-12.22-112.52-11.2-112.52s-8.14,99.66-7.13,99.66
		s-6.11,19.29-7.13,19.29s-2.04-13.93-2.04-13.93s-9.16,27.86-13.23,28.93s14.25-61.08,13.23-64.3c-1.02-3.22-30.54,64.3-30.54,64.3
		s8.14-95.38,4.07-121.1c0,0-16.29,102.88-23.42,115.74s-4.07-80.37-13.23-128.6c0,0-6.11,98.59-7.13,99.66
		s-20.36-46.08-23.42-46.08s25.45,96.45,17.31,106.09L185.76,946.3c0,0,3.05,93.23,1.02,95.38s-3.05-62.16-3.05-62.16
		s-4.07,39.65-5.09,41.79s-2.04-20.36-2.04-20.36s-1.02,43.94-5.09,49.3c-4.07,5.36-10.18,45.01-10.18,45.01l-2.04-107.16
		c0,0-13.24,85.73-16.29,85.73s-3.05-31.08,7.13-53.58c0,0,8.15-25.72,6.11-27.86s-13.24,33.22-15.27,33.22
		c-6.48,0-5.44-48.55-17.31-107.16c-11.11-54.87-28.78-95.26-30.03-94.84c-1.24,0.41,12.51,40.76,24.43,105.02
		c0,0,17.37,93.67,2.54,138.78c-0.31,0.94-8.15,24.65-8.15,24.65s0-28.93,2.04-32.15c0.15-0.24,0.24-0.34,0.26-0.33
		c0.27,0.15-6.29,18.6-10.44,18.55c-7.51-0.1-11.75-60.65-15.78-98.06c-6-54.72-16.55-108.85-31.56-161.82
		c17.67,151.86,21.99,209.64,20.87,225.58c-0.01,0.22-2.04,28.93-2.04,28.93s-12.22-19.29-11.2-35.36
		c1.02-16.07-3.05,68.58-3.05,68.58s-3.05,16.08-5.09,16.08s0-82.52,8.15-112.52c0,0,1.02-19.29,0-25.72
		c-1.02-6.43-9.16,58.94-15.27,58.94s-5.09-28.93-5.09-28.93s-3.06,28.93-5.09,61.08s-22.4,70.73-14.25,18.22s0-106.09,8.15-112.52
		c0,0-28.51,85.73-26.47,97.52s-9.16-39.65-7.13-39.65S-3.1,1148.3-3.1,1148.3"/>
	<path id="Path_801" class="st0" d="M618.29,1151.09l678.05,2.14v-109.31c0,0-4.58,35.9-8.65,38.04
		c-4.07,2.14-4.07-68.58,4.07-70.73c0,0-9.16,2.14-8.15,22.5l-2.04-42.87c0,0-8.14,90.03-13.23,91.09
		c-1.07,0.23,14.68-68.4,16.29-155.39c0.52-27.93-0.45-55.87-2.9-83.7c4.31,68.44-5.28,119.03-15.27,153.24
		c0,0-27.89,95.52-23.57,99.77c0,0,0.01,0.01,0.02,0.01c1.04,0.03,5.13-106.23,17.29-132.89c0,0-24.43,58.94-32.58,98.59
		c0,0-8.15-48.22-11.2-49.3c0,0-1.02,52.51-2.04,52.51s-7.13-132.88-5.09-132.88s-18.33,136.1-15.27,136.1c0,0-5.09-49.3,4.07-55.72
		c0,0-8.15,3.22-9.16,39.65c0.61-113.14,0.63-201.55-0.87-201.58c-2.31-0.04-6.87,210.12-15.42,210.15
		c-3.84,0.01-10.18-42.87-10.18-42.87s-2.04,76.09-4.07,80.37s-10.18,16.08-11.2,16.08s-12.22-55.72,33.6-132.88l55.13-104.06
		c-67.45,108.56-95.79,156.22-95.85,159.78c0,0.02,0,0.16-0.03,0.17c-0.72,0.11-8.28-88.51-32.4-179.24
		c-7.06-26.56-14.02-47.6-18.33-60.01c21.19,80,29.05,162.95,23.26,245.51c0,0-4.07,13.93-6.11,55.72c0,0-11.2-47.15,5.09-66.44
		c16.29-19.29,27.49-66.44,27.49-66.44s-37.67,62.15-39.7,62.15s-6.11-55.72-6.11-55.72l-6.11,79.3c0,0-8.15,24.65-10.18,24.65
		s-9.16-35.36-11.2-35.36v21.43c0,0-12.22-62.15-8.15-65.37c0,0-11.2,102.88-11.2,131.81c0,28.93-15.27-72.87-11.2-79.3
		s-6.11,13.93-5.09,17.15c0,0-4.07-11.79-3.05-43.94c0,0-15.27,62.15-14.25,62.15s-20.36-18.22-21.38-45.01
		c0,0-1.02,18.22,14.25,68.58c0,0-4.52,11.41-5.89,10.94c-0.1-0.04-0.18-0.13-0.22-0.23c-3.52-7.3,3.21-22.61,3.21-22.61
		c13.67-31.13,14.75-106.72,73.3-200.4c35-55.99,68.14-82.63,67.19-83.59c-1.55-1.57-89.41,71.14-120.13,152.17
		c-5.42,14.29-36.79,101.99-36.8,123.35c0,0.31,0.01,1.36-0.33,1.46c-4.81,1.39-60.76-200.78-60.76-200.78l31.56,169.32
		c0,0-1.01,37.52-3.05,38.59c-2.04,1.07-8.15-39.65-10.18-39.65s0,18.22-1.02,19.29c-1.02,1.07-12.22-112.52-11.2-112.52
		s-8.15,99.66-7.13,99.66s-6.11,19.29-7.13,19.29s-2.04-13.93-2.04-13.93s-9.16,27.86-13.23,28.93s14.25-61.08,13.23-64.3
		c-1.02-3.22-30.54,64.3-30.54,64.3c1.86-16.03,3.13-33.02,3.56-50.9c1.36-61.94-7.35-123.68-25.81-182.82
		c5.63,50.69,10.31,88.44,13.23,111.45c0,0,10.06,79.03-10.33,116.92c-0.22,0.41-0.68,1.25-1.28,1.2
		c-5.49-0.45-3.39-84.76-11.95-129.8c0,0-6.11,98.59-7.13,99.66s-20.36-46.08-23.42-46.08s25.45,96.45,17.31,106.09l-31.56-174.68
		c0,0,3.05,93.23,1.02,95.38c-2.04,2.14-3.05-62.15-3.05-62.15s-4.08,39.65-5.09,41.79c-0.03,0.07-0.08,0.15-0.14,0.14
		c-1.11-0.03,0.07-30.8-1.75-50.62c-1.5-16.29-6.24-38.4-20.36-64.3c5.71,19.64,9.8,39.71,12.22,60.01
		c1.78,15.05,2.21,30.75,3.05,62.15c0.29,10.79,0.3,15.51-0.15,21.54c-1.16,15.42-4.59,30.59-10.18,45.01l-2.04-107.16
		c0,0-13.23,85.73-16.29,85.73s-3.05-31.08,7.13-53.58c0,0,8.15-25.72,6.11-27.86s-13.23,33.22-15.27,33.22
		s-16.29-85.73-17.31-107.16s-1.02,144.67-3.05,148.96s-8.15,24.65-8.15,24.65s0-28.93,2.04-32.15c0.15-0.24,0.23-0.34,0.26-0.33
		c0.28,0.15-7.05,19.12-10.44,18.55c-4.16-0.7-1.98-30.79-1.89-52.62c0.22-51.05-10.96-71.18-17.31-113.59
		c-4.53-30.29-6.94-74.2,4.07-130.74c-19.71,71.46-20.05,120.76-16.29,153.24c0,0,7.86,67.86,4.94,109.42l-2.04,28.93
		c0,0-12.22-19.29-11.2-35.36c1.02-16.07-3.05,68.59-3.05,68.59s-3.05,16.07-5.09,16.07s0-82.52,8.15-112.52c0,0,1.02-19.29,0-25.72
		s-9.16,58.94-15.27,58.94s-5.09-28.93-5.09-28.93s-3.05,28.93-5.09,61.08c-1.34,21.16-10.62,45.1-14.48,44.03
		c-2.11-0.58-0.62-16.55,0.23-25.81c2.79-30.24,6.47-74.22,11.35-141.56c-22.88,85.16-30.61,120.43-29.68,126.56
		c0,0,0.27,1.75,0.24,1.76c-0.35,0.08-9.19-41.41-7.36-41.41C622.88,1041.25,618.29,1151.1,618.29,1151.09"/>
	<path id="Path_802" class="st0" d="M1281.27,1154.15l678.05,2.14v-109.31c0,0-4.58,35.9-8.65,38.04
		c-4.07,2.14-4.07-68.59,4.07-70.73c0,0-9.16,2.14-8.15,22.5l-2.04-42.87c0,0-8.15,90.02-13.23,91.09
		c-5.09,1.07,16.29-155.39,16.29-155.39s-42.76,168.25-41.74,169.32c1.02,1.07,5.09-106.09,17.31-132.88
		c0,0-24.43,58.94-32.58,98.59c0,0-8.15-48.22-11.2-49.3c0,0-1.02,52.51-2.04,52.51s-7.13-132.88-5.09-132.88
		s-18.33,136.1-15.27,136.1c0,0-5.09-49.3,4.07-55.72c0,0-8.15,3.22-9.16,39.65c0,0,0-111.45-2.04-111.45s-8.15,117.88-14.25,120.02
		c-6.11,2.14-10.18-42.87-10.18-42.87s-2.04,76.09-4.07,80.37s-10.18,16.08-11.2,16.08s-12.22-55.72,33.6-132.88l24.43-50.37
		c0,0-65.16,100.73-65.16,106.09c0,0.02,0.02,0.15-0.03,0.17c-0.65,0.31-10.43-20.68-12.23-24.77
		c-15.71-35.64,1.11-89.89,7.13-109.31c5.28-17.02,12.1-33.52,20.36-49.3c-22.13,32.45-36.74,69.42-42.76,108.24
		c-4.14,26.97-4.13,54.42,0.05,81.39c0,0-4.07,13.93-6.11,55.72c0,0-11.2-47.15,5.09-66.44s27.49-66.44,27.49-66.44
		s-37.67,62.16-39.7,62.16s-6.11-55.72-6.11-55.72l-6.11,79.3c0,0-8.15,24.65-10.18,24.65s-9.16-35.36-11.2-35.36v21.43
		c0,0-12.22-62.16-8.15-65.37c0,0-11.2,102.88-11.2,131.81c0,28.93-15.27-72.87-11.2-79.3s-6.11,13.93-5.09,17.15
		c0,0-4.07-11.79-3.05-43.94c0,0-15.27,62.15-14.25,62.15s-20.36-18.22-21.38-45.01c0,0-1.02,18.22,14.25,68.58
		c0,0-5.09,12.86-6.11,10.72c-1.02-2.14,31.56-136.1,40.72-153.25s-53.96,100.73-53.96,122.17c0,0.47-0.02,1.37-0.33,1.46
		c-2.48,0.7-16.43-53.27-42.48-142.86c-11.71-40.28-15.08-50.68-15.27-69.66c-0.33-33.82,9.79-61.42,18.33-79.3
		c-16.75,30.74-20.67,56.09-21.38,72.87c-1.63,38.73,12.71,59.49,23.42,115.74c4.51,23.68,7.25,47.66,8.19,71.75
		c-0.24,28.07-1.59,37.81-3.05,38.58c-2.04,1.07-8.15-39.65-10.18-39.65s0,18.22-1.02,19.29c-1.02,1.07-12.22-112.52-11.2-112.52
		s-8.15,99.66-7.13,99.66s-6.11,19.29-7.13,19.29s-2.04-13.93-2.04-13.93s-9.16,27.86-13.23,28.93s14.25-61.08,13.23-64.3
		c-1.02-3.22-30.54,64.3-30.54,64.3s8.15-95.38,4.07-121.1c0,0-16.29,102.88-23.42,115.74s-4.07-80.37-13.23-128.6
		c0,0-6.11,98.59-7.13,99.66s-20.36-46.08-23.42-46.08s25.45,96.45,17.31,106.09l-31.56-174.68c0,0,3.05,93.23,1.02,95.38
		c-2.04,2.14-3.05-62.16-3.05-62.16s-4.07,39.65-5.09,41.79c-1.02,2.14-2.04-20.36-2.04-20.36s-1.02,43.94-5.09,49.3
		c-4.07,5.36-10.18,45.01-10.18,45.01l-2.04-107.16c0,0-13.23,85.73-16.29,85.73s-3.05-31.08,7.13-53.58c0,0,8.15-25.72,6.11-27.86
		s-13.23,33.22-15.27,33.22s-16.29-85.73-17.31-107.16s-1.02,144.67-3.05,148.96s-8.15,24.65-8.15,24.65s0-28.93,2.04-32.15
		c0.15-0.24,0.23-0.34,0.26-0.33c0.23,0.13-7.19,18.13-10.44,18.55c-9.57,1.22-34.35-143.26-60.11-311.8
		c28.65,199.9,34.67,262.72,33.65,277.5l-2.04,28.93c0,0-12.22-19.29-11.2-35.36c1.02-16.07-3.05,68.61-3.05,68.61
		s-3.05,16.07-5.09,16.07s0-82.52,8.15-112.52c0,0,1.02-19.29,0-25.72s-9.16,58.94-15.27,58.94s-5.09-28.93-5.09-28.93
		s-3.05,28.93-5.09,61.08c-2.04,32.15-22.4,70.73-14.25,18.22s0-106.09,8.15-112.52c0,0-28.51,85.73-26.47,97.52
		s-9.16-39.65-7.13-39.65S1281.27,1154.15,1281.27,1154.15"/>
</g>
</svg>
