<?xml version="1.0" encoding="utf-8"?>
<!-- Generator: Adobe Illustrator 26.2.1, SVG Export Plug-In . SVG Version: 6.00 Build 0)  -->
<svg version="1.1" id="Layer_1" xmlns="http://www.w3.org/2000/svg" xmlns:xlink="http://www.w3.org/1999/xlink" x="0px" y="0px"
	 viewBox="0 0 45 48" style="enable-background:new 0 0 45 48;" xml:space="preserve">
<style type="text/css">
	.st0{fill:#F0F757;}
	.st1{fill:#8FCCD1;}
	.st2{fill:none;stroke:#020202;stroke-miterlimit:10;}
</style>
<g id="Group_869" transform="translate(-56.203 -40.052)">
	<path id="Path_849" class="st0" d="M65.26,68.97c0.07-1.2,0.39-2.37,0.95-3.44c2.66-4.95,9.72-5.22,10.82-5.26
		c2.96-0.2,5.91,0.6,8.29,2.26c1.26,0.91,4.01,2.91,3.87,5.76c-0.15,3-3.3,5.26-4.7,5.86c-3.42,1.48-11.34,3.6-16.63-0.8
		c-0.62-0.48-1.14-1.05-1.56-1.68C65.78,70.84,65.42,69.92,65.26,68.97"/>
	<path id="Path_850" class="st1" d="M75.22,60.35c0,0,0.8-10.4,3.25-11.73c2.45-1.32,5.13-1.91,5.08,1.81s-2.27,5.78-2.64,6.54
		c-0.38,0.76-2.21,3.45-2.21,3.45L75.22,60.35z"/>
	<path id="Path_851" class="st1" d="M71.88,61.39c0,0-9.01-9.01-5.68-12.72c3.33-3.71,7,3.36,7.23,4.72
		c0.22,1.36,1.79,6.97,1.79,6.97S71.9,61.4,71.88,61.39"/>
	<path id="Path_852" d="M65.22,67.55l-4.03,1.5l4.11,0.85L65.22,67.55z"/>
	<path id="Path_853" d="M70.79,61.58c0,0-3.56,9.74,1.13,13.55l0.4,0.51l3.3,0.41c0,0-4.09-12.89-2.14-15.27L70.79,61.58z"/>
	<path id="Path_854" d="M77.04,60.27l2.58,0.22c0,0-0.47,8.2,1.51,14.89l-2.87,0.56c0,0-3.02-4.51-2.35-8.87
		C76.59,62.7,77.04,60.27,77.04,60.27"/>
	<path id="Path_855" class="st2" d="M84.37,61.83c0,0,1.05-5.5-1.76-4.66c0,0-1.37,2.15,0.22,1.36c0,0,0.37-0.76-0.36-0.48"/>
	<path id="Path_856" class="st2" d="M86.32,63.27c0,0,2.92-1.99,1.99-4.94c-0.93-2.94-2.41-1.16-2.41-1.16
		c-0.04,0.08-0.07,0.15-0.1,0.23c-0.04,0.12-0.08,0.24-0.1,0.36c-0.06,0.39,0.03,0.79,0.78,0.63c0.14-0.26,0.04-0.59-0.23-0.74
		c-0.48-0.23-0.55,0.11-0.55,0.11"/>
</g>
</svg>
