<?xml version="1.0" encoding="utf-8"?>
<!-- Generator: Adobe Illustrator 26.2.1, SVG Export Plug-In . SVG Version: 6.00 Build 0)  -->
<svg version="1.1" id="Layer_1" xmlns="http://www.w3.org/2000/svg" xmlns:xlink="http://www.w3.org/1999/xlink" x="0px" y="0px"
	 viewBox="0 0 45 48" style="enable-background:new 0 0 45 48;" xml:space="preserve">
<style type="text/css">
	.st0{fill:#F0F757;}
	.st1{fill:#8FCCD1;}
	.st2{fill:none;stroke:#020202;stroke-miterlimit:10;}
</style>
<g id="Group_828" transform="translate(-1457.927 -43.983)">
	<path id="Path_833" class="st0" d="M1486.32,70.14c-0.06-0.99-0.35-1.95-0.85-2.84c-2.36-4.08-8.61-4.3-9.58-4.34
		c-2.62-0.16-5.23,0.5-7.34,1.86c-1.12,0.75-3.55,2.4-3.43,4.75c0.13,2.48,2.92,4.33,4.16,4.83c3.03,1.22,10.05,2.97,14.73-0.66
		c0.54-0.39,1.01-0.86,1.38-1.39C1485.86,71.69,1486.17,70.93,1486.32,70.14"/>
	<path id="Path_834" class="st1" d="M1477.5,63.04c0,0-0.71-8.58-2.88-9.67c-2.17-1.09-4.54-1.57-4.5,1.49s2.01,4.76,2.34,5.39
		c0.33,0.62,1.95,2.84,1.95,2.84L1477.5,63.04z"/>
	<path id="Path_835" class="st1" d="M1480.46,63.89c0,0,7.98-7.43,5.03-10.49c-2.95-3.06-6.2,2.77-6.4,3.89s-1.59,5.75-1.59,5.75
		S1480.44,63.9,1480.46,63.89"/>
	<path id="Path_836" d="M1486.36,68.97l3.57,1.24l-3.64,0.7L1486.36,68.97z"/>
	<path id="Path_837" d="M1481.43,64.05c0,0,3.15,8.03-1,11.17l-0.35,0.42l-2.92,0.34c0,0,3.62-10.63,1.9-12.59L1481.43,64.05z"/>
	<path id="Path_838" d="M1475.89,62.97l-2.29,0.18c0,0,0.41,6.76-1.34,12.28l2.54,0.46c0,0,2.67-3.72,2.08-7.31
		C1476.29,64.97,1475.89,62.97,1475.89,62.97"/>
	<path id="Path_839" class="st2" d="M1469.4,64.26c0,0-0.93-4.54,1.55-3.84c0,0,1.21,1.78-0.2,1.12c0,0-0.33-0.62,0.32-0.4"/>
	<path id="Path_840" class="st2" d="M1467.68,65.45c0,0-2.58-1.64-1.76-4.07c0.83-2.43,2.14-0.95,2.14-0.95s0.04,0.08,0.09,0.19
		c0.04,0.1,0.07,0.19,0.09,0.29c0.06,0.32-0.03,0.65-0.69,0.52c-0.13-0.22-0.04-0.48,0.21-0.61c0.43-0.19,0.49,0.09,0.49,0.09"/>
</g>
</svg>
