<?xml version="1.0" encoding="utf-8"?>
<!-- Generator: Adobe Illustrator 26.2.1, SVG Export Plug-In . SVG Version: 6.00 Build 0)  -->
<svg version="1.1" id="Layer_1" xmlns="http://www.w3.org/2000/svg" xmlns:xlink="http://www.w3.org/1999/xlink" x="0px" y="0px"
	 viewBox="0 0 45 48" style="enable-background:new 0 0 45 48;" xml:space="preserve">
<style type="text/css">
	.st0{clip-path:url(#SVGID_00000152249539655639972540000003663535371979873457_);}
	.st1{fill:none;stroke:#000000;stroke-miterlimit:10;}
	.st2{fill:#050505;}
</style>
<g id="Group_802" transform="matrix(0.891, -0.454, 0.454, 0.891, 0, 18.527)">
	<g>
		<defs>
			<polygon id="SVGID_1_" points="4.39,-0.55 34.17,-0.85 33.86,30.14 4.08,30.45 			"/>
		</defs>
		<clipPath id="SVGID_00000118384501345255365570000009807207099350633378_">
			<use xlink:href="#SVGID_1_"  style="overflow:visible;"/>
		</clipPath>
		<g id="Group_801" style="clip-path:url(#SVGID_00000118384501345255365570000009807207099350633378_);">
			<path id="Path_944" class="st1" d="M11.42,10.63l-3.51,0.01L6.42,8.25l-1.5-0.27"/>
			<path id="Path_945" class="st1" d="M22.69,6.85l2.77-1.5l-0.04-2.69l1.25-1.26"/>
			<path id="Path_946" class="st1" d="M11.54,16.21l-2.32,0.14c0,0-0.36,4.25-3.74,4.86l-0.15,1.1"/>
			<path id="Path_947" class="st1" d="M13.45,20.51l-1.73,1.59c0,0,4.2,3.08-0.14,6.74l0.94,1.38"/>
			<path id="Path_948" class="st1" d="M24.97,10.98l1.71-0.76c0,0,1.58,3.35,4.73,2.74l0.32,0.95"/>
			<path id="Path_949" class="st1" d="M25.92,16.09l3.24,0.09c0,0-2.45,4.38,3.84,5.27l0,1.86"/>
			<path id="Path_950" d="M14.05,3.21c0,0-0.05-0.98-1.76-0.52c0,0-0.22-1.53-0.87-1.27c-0.19,0.49,0.04,1.03,0.52,1.21
				c0.11,0.04,0.23,0.06,0.35,0.06"/>
			<path id="Path_951" d="M15.29,2.45c0,0,0.36-1.75,1.43-1.75c0,0,0.21-1.29-0.92-1.31c-0.03,0-0.07,0-0.1,0
				c-0.05,0-0.43,1.09,1.02,1.31"/>
			<path id="Path_952" d="M11.66,6.91c0,0,2.36-1,0.69-2.93c-0.97,0.58-1.31,1.84-0.76,2.81C11.61,6.84,11.63,6.88,11.66,6.91"/>
			<path id="Path_953" d="M18.09,2.63c0,0-0.45,2.73,2.09,1.99C20.18,4.62,19.78,2.35,18.09,2.63"/>
			<path id="Path_954" class="st2" d="M12.35,3.99c0,0,2.8-2.88,5.74-1.36c0,0-0.51,2.92,2.09,1.99c0.2,0.3,0.3,0.66,0.29,1.03
				c-0.01,0.65-6.55,3.63-8.53,2.62l-0.29-1.36C11.66,6.91,14.15,5.59,12.35,3.99"/>
			<path id="Path_955" class="st2" d="M11.95,8.27c0,0-2.14,3.39,0.37,5.31c0,0,10.7-2.77,11.07-3.88c0.37-1.11-0.62-4.21-2.91-4.06
				C20.48,5.65,15.07,9.47,11.95,8.27"/>
			<path id="Path_956" class="st2" d="M12.31,13.59c0,0-2.09,4.04,0.24,6.03c0,0,1.84,3.42,8.42,2.18c0.19-0.04,0.37-0.08,0.55-0.12
				c6-1.53,5.31-8.51,4.73-8.95c0,0-1.43-2.8-2.99-2.8C19.75,11.54,16.07,12.77,12.31,13.59"/>
			<path id="Path_957" d="M21.52,21.68c0,0-4.79-8.47-1.98-10.18l-4.77,1.47c0,0,2.73-0.21,3.03,0.56
				C18.1,14.3,21.52,21.68,21.52,21.68"/>
		</g>
	</g>
</g>
</svg>
