<?xml version="1.0" encoding="utf-8"?>
<!-- Generator: Adobe Illustrator 26.2.1, SVG Export Plug-In . SVG Version: 6.00 Build 0)  -->
<svg version="1.1" id="Layer_1" xmlns="http://www.w3.org/2000/svg" xmlns:xlink="http://www.w3.org/1999/xlink" x="0px" y="0px"
	 viewBox="0 0 45 48" style="enable-background:new 0 0 45 48;" xml:space="preserve">
<style type="text/css">
	.st0{clip-path:url(#SVGID_00000090265489522061322140000003738216093967760783_);}
	.st1{fill:#CC5A71;}
	.st2{fill:#FBC1AC;}
	.st3{fill:none;stroke:#FBC1AC;}
	.st4{fill:none;stroke:#FBC1AC;stroke-miterlimit:10;}
	.st5{fill:none;stroke:#2D1611;stroke-miterlimit:10;}
</style>
<g>
	<defs>
		<polygon id="SVGID_1_" points="11.63,5 45,20.39 32.37,41 -1,25.61 		"/>
	</defs>
	<clipPath id="SVGID_00000168809744777965120590000015279392068370441873_">
		<use xlink:href="#SVGID_1_"  style="overflow:visible;"/>
	</clipPath>
	
		<g id="Group_791-2" transform="translate(0 21.313)" style="clip-path:url(#SVGID_00000168809744777965120590000015279392068370441873_);">
		<path id="Path_911-2" class="st1" d="M13.72,11.01c0,0-11.52-6.76-0.61-17.94c0,0,13.78-8.78,19.54,5.68
			c0.41,2.31,0.04,4.67-1.06,6.81c-2.3,4.38-7.66,7.33-12.63,7.06C17.08,12.51,15.27,11.95,13.72,11.01"/>
		<path id="Path_912-2" class="st2" d="M32.04,4.68c0,0,0.42,0.55,4.78-3.02c0,0,7.68-3.3,2.91,6.03
			c-4.61,4.43-11.34,6.75-18.2,6.29c0,0-3.54-1-3.76-1.56C17.54,11.87,27.71,12.06,32.04,4.68"/>
		<path id="Path_929-2" class="st3" d="M38.96,1.22l0.96-7.48"/>
		<line id="Line_79-2" class="st4" x1="41" y1="1.83" x2="44.55" y2="-0.8"/>
		<path id="Path_913-2" class="st2" d="M11.05,8.85c0,0-5.24-4.24-7.37-5.23S-1.51-0.39,4.8,0.55l3.59,0.48
			C8.39,1.03,7.89,5.71,11.05,8.85"/>
		<path id="Path_914-2" class="st5" d="M20.11,2.88c0,0-4.29,1.99-3.65-2.56c0,0,2.22-5.24,8.51-1.51c0,0,3.74,5.37-4.55,8.45
			s-8.65-7.29-8.65-7.29s2.8-7.92,12.05-6.6c0,0,7.37,2.49,5.91,7.28c0,0-0.23,4.05-2.67,6.69c-1.38,1.54-3.28,2.7-5.45,3.35"/>
	</g>
</g>
</svg>
