<?xml version="1.0" encoding="UTF-8"?><svg id="Layer_1" xmlns="http://www.w3.org/2000/svg" viewBox="0 0 1918.32 995.6"><defs><style>.cls-1{fill:#ebebeb;}</style></defs><path id="Path_673" class="cls-1" d="M1.99,316.85L0,993.06l1916.33,2.54,1.99-142.47-20.09-119.49h-20.85l-.99-306.21-7.94-29.77-17.87-380.64-19.86,387.02-7.94,23.39v308.34l-29.24,2.54c1.84-24.42,1.57-49.02-.81-73.36-7.97-79.54-36.96-122.79-45.17-135.03-7.26-10.82-49.77-71.61-100.77-37.21-33.78,22.78-52.4,74.6-58.57,93.56l-105.97-122.68-38.68,39.03-2.02-121.96-75.45-274.31-97.29,389.09c-11.67-42.73-23.34-85.46-35.02-128.19l-16.38,71.24-28.79,121.21-117.38-410.82-137.01,527.36-13.44-44.84,.54-76.37-18.8,15.11-7.27-217.78-45.17-1.06-53.84-155.64-.76,459.73-8.09,6.06-76.54-425.38c-25.57,138.71-51.14,277.42-76.71,416.13l-61.61-63.56,.32-418.49L502.36,0l-68.5,174.38-1.66,445.28-25.91,20.82-171.75,10.63-76.68-247.08-17.64,64.2-2.22-142.88L70.49,182.88,1.99,316.85Z"/></svg>