<svg xmlns="http://www.w3.org/2000/svg" width="1967.185" height="806.41" viewBox="0 0 1967.185 806.41">
  <path id="Path_673" data-name="Path 673" d="M20.637,278.641,18.6,826.359l1965.149,2.055,2.036-115.4-20.6-96.785H1943.8l-1.018-248.024-8.145-24.114L1916.315,35.784l-20.362,313.474-8.145,18.947V617.951l-29.982,2.054a272.393,272.393,0,0,0-.83-59.422c-8.172-64.423-37.906-99.455-46.323-109.371-7.441-8.767-51.041-58-103.336-30.142-34.642,18.455-53.734,60.423-60.067,75.785l-108.667-99.37-39.67,31.611-2.072-98.785-77.375-222.188-99.764,315.154q-17.954-51.915-35.91-103.828l-16.8,57.7-29.525,98.176L1117.117,142.572l-140.5,427.152-13.786-36.318.551-61.858L944.105,483.79l-7.459-176.4-46.323-.862L835.107,180.464l-.778,372.368-8.291,4.908L747.551,213.19Q708.22,381.72,668.89,550.249l-63.182-51.484.33-338.97L533.753,22,463.505,163.241l-1.7,360.67-26.57,16.864L259.11,549.387,180.477,349.258l-18.085,52L160.115,285.53l-69.23-115.4Z" transform="translate(-18.601 -22.005)" fill="#ebebeb"/>
</svg>
