<svg xmlns="http://www.w3.org/2000/svg" width="1809.319" height="1087.35" viewBox="0 0 1809.319 1087.35">
  <g id="Flowers" transform="translate(0 -9.222)">
    <g id="wheat-yellow">
      <path id="Path_674" data-name="Path 674" d="M1512.129,66.741s-10.686-11.4-8.8-31.1c0,0,11.262,13.928,8.8,31.1" transform="translate(27.187 2.548)" fill="#f0f757"/>
      <path id="Path_675" data-name="Path 675" d="M1516.045,80.062s-6.831-18.965-.1-34.255c0,0,6.712,21.631.1,34.255" transform="translate(27.366 3.276)" fill="#f0f757"/>
      <path id="Path_676" data-name="Path 676" d="M1526.462,127.94s-2.672-21.878,6.795-31.2c0,0,2.023,24.219-6.795,31.2" transform="translate(27.603 6.926)" fill="#f0f757"/>
      <path id="Path_677" data-name="Path 677" d="M1529.012,143.252S1527,121.2,1536.764,112.9c0,0,1.292,24.313-7.752,30.353" transform="translate(27.652 8.083)" fill="#f0f757"/>
      <path id="Path_678" data-name="Path 678" d="M1532.069,159.811s-2.013-22.049,7.752-30.353c0,0,1.292,24.313-7.752,30.353" transform="translate(27.708 7.269)" fill="#f0f757"/>
      <path id="Path_679" data-name="Path 679" d="M1519,95.94s-4.458-21.044,4.029-33.023c0,0,4.02,23.562-4.029,33.023" transform="translate(27.453 4.502)" fill="#f0f757"/>
      <path id="Path_680" data-name="Path 680" d="M1522.5,114.788s-4.307-21.137,4.274-32.9c0,0,3.849,23.643-4.274,32.9" transform="translate(27.518 5.862)" fill="#f0f757"/>
      <path id="Path_681" data-name="Path 681" d="M1515.422,79.492s-12.064-1.936-15.107-21.655c0,0,13.171,3.809,15.107,21.655" transform="translate(27.137 4.138)" fill="#f0f757"/>
      <path id="Path_682" data-name="Path 682" d="M1518.084,95.126s-12.064-1.936-15.106-21.655c0,0,13.171,3.81,15.106,21.655" transform="translate(27.185 5.258)" fill="#f0f757"/>
      <path id="Path_683" data-name="Path 683" d="M1522.652,114.795s-12.064-1.936-15.106-21.655c0,0,13.171,3.809,15.106,21.655" transform="translate(27.267 6.667)" fill="#f0f757"/>
      <path id="Path_684" data-name="Path 684" d="M1526.728,133.692s-12.064-1.936-15.106-21.655c0,0,13.171,3.809,15.106,21.655" transform="translate(27.341 8.021)" fill="#f0f757"/>
      <path id="Path_685" data-name="Path 685" d="M1529.333,150.273s-12.064-1.936-15.106-21.655c0,0,13.171,3.81,15.106,21.655" transform="translate(27.388 9.209)" fill="#f0f757"/>
      <path id="Path_686" data-name="Path 686" d="M1530.938,175.206s-11.286-9.012-10.728-29.122c0,0,12.021,11.412,10.728,29.122" transform="translate(27.496 10.46)" fill="#f0f757"/>
      <path id="Path_687" data-name="Path 687" d="M1533.153,174.254s-1.182-20.331,7.652-25.158c0,0,.486,22.17-7.652,25.158" transform="translate(27.729 10.676)" fill="#f0f757"/>
      <path id="Path_688" data-name="Path 688" d="M1511.969,64.662s23.847,103.23,20.31,117.046,27.328,72.8,16.744,299.219c0,0-9.655,103.627-.468,143.232,0,0,25.495,121.917-2.307,183.388" transform="translate(27.347 4.627)" fill="none" stroke="#f0f757" stroke-miterlimit="10" stroke-width="2"/>
      <path id="Path_689" data-name="Path 689" d="M1549.747,338.941s15.9-182.115,50.244-188.192c0,0-8.56-1.439-21.325,35.988s-24.926,133.076-24.926,133.076l-3.375,26.892Z" transform="translate(28.031 10.794)" fill="#f0f757"/>
      <path id="Path_690" data-name="Path 690" d="M1546.326,594.916s6.223-161.692-76.5-200.616c0,0,39.275,17.926,58.872,90.153s17.626,110.463,17.626,110.463" transform="translate(26.585 28.243)" fill="#f0f757"/>
    </g>
    <path id="empty_" data-name="empty?" d="M524.341,306.954s-.5,104.92-6.646,117.266,9.141,76.634-48.765,290.917c0,0-30.848,96.859-31.007,137.122,0,0-3,123.241-41.241,175.133" transform="translate(7.175 21.985)" fill="none" stroke="#f0f757" stroke-miterlimit="10" stroke-width="1"/>
    <g id="wheat">
      <path id="Path_691" data-name="Path 691" d="M522.138,309.094s-7.218-13.615-1.309-32.016c0,0,7.2,16.183,1.309,32.016" transform="translate(9.378 19.845)" fill="#f0f757"/>
      <path id="Path_692" data-name="Path 692" d="M522.764,322.675s-2.121-19.893,7.219-32.848c0,0,1.445,22.418-7.219,32.848" transform="translate(9.452 20.758)" fill="#f0f757"/>
      <path id="Path_693" data-name="Path 693" d="M521.406,370.939s2.257-21.635,12.8-28.178c0,0-3.343,23.714-12.8,28.178" transform="translate(9.431 24.55)" fill="#f0f757"/>
      <path id="Path_694" data-name="Path 694" d="M520.258,386.2s2.89-21.633,13.484-27.13c0,0-4.024,23.621-13.484,27.13" transform="translate(9.41 25.719)" fill="#f0f757"/>
      <path id="Path_695" data-name="Path 695" d="M519.3,402.8s2.89-21.633,13.484-27.13c0,0-4.024,23.621-13.484,27.13" transform="translate(9.393 26.908)" fill="#f0f757"/>
      <path id="Path_696" data-name="Path 696" d="M521.868,338.532s.466-21.287,10.69-30.625c0,0-1.4,23.589-10.69,30.625" transform="translate(9.439 22.053)" fill="#f0f757"/>
      <path id="Path_697" data-name="Path 697" d="M520.795,357.427s.623-21.337,10.884-30.441c0,0-1.571,23.622-10.884,30.441" transform="translate(9.42 23.42)" fill="#f0f757"/>
      <path id="Path_698" data-name="Path 698" d="M522.106,322.181s-10.484-4.9-9.021-24.555c0,0,11.084,6.968,9.021,24.555" transform="translate(9.278 21.317)" fill="#f0f757"/>
      <path id="Path_699" data-name="Path 699" d="M521,337.8s-10.484-4.9-9.021-24.555c0,0,11.084,6.968,9.021,24.555" transform="translate(9.258 22.436)" fill="#f0f757"/>
      <path id="Path_700" data-name="Path 700" d="M520.7,357.738s-10.484-4.9-9.021-24.555c0,0,11.084,6.968,9.021,24.555" transform="translate(9.252 23.864)" fill="#f0f757"/>
      <path id="Path_701" data-name="Path 701" d="M520.137,376.82s-10.484-4.9-9.021-24.555c0,0,11.084,6.968,9.021,24.555" transform="translate(9.242 25.231)" fill="#f0f757"/>
      <path id="Path_702" data-name="Path 702" d="M518.763,393.329s-10.484-4.9-9.021-24.555c0,0,11.084,6.968,9.021,24.555" transform="translate(9.217 26.414)" fill="#f0f757"/>
      <path id="Path_703" data-name="Path 703" d="M514.716,417.548s-8.271-11.479-3.472-30.606c0,0,8.423,13.963,3.472,30.606" transform="translate(9.22 27.716)" fill="#f0f757"/>
      <path id="Path_704" data-name="Path 704" d="M516.954,416.9s3.273-19.779,12.283-22.177c0,0-4.3,21.364-12.283,22.177" transform="translate(9.35 28.273)" fill="#f0f757"/>
      <path id="Path_706" data-name="Path 706" d="M506.717,536.063S519.36,387.729,444.1,347.844c0,0,35.755,18.428,50.913,85.8s11.7,102.422,11.7,102.422" transform="translate(8.033 24.915)" fill="#f0f757"/>
      <path id="Path_707" data-name="Path 707" d="M505.605,532.439s20.821-123.516,39.925-134.01a73.567,73.567,0,0,0-6.547,10.606,122.768,122.768,0,0,0-11.1,30.5c-3.8,16.6-11.953,49.387-22.283,92.906" transform="translate(9.145 28.538)" fill="#f0f757"/>
    </g>
    <g id="wheat-2" data-name="wheat">
      <path id="Path_708" data-name="Path 708" d="M1003.379,230.133s-11.012-13.441-9.68-36.851c0,0,11.658,16.438,9.68,36.851" transform="translate(17.971 13.842)" fill="#f0f757"/>
      <path id="Path_709" data-name="Path 709" d="M1007.681,245.922s-7.368-22.459-1.069-40.675c0,0,7.324,25.626,1.069,40.675" transform="translate(18.161 14.699)" fill="#f0f757"/>
      <path id="Path_710" data-name="Path 710" d="M1019.52,302.691s-3.288-25.954,5.92-37.1c0,0,2.705,28.739-5.92,37.1" transform="translate(18.43 19.022)" fill="#f0f757"/>
      <path id="Path_711" data-name="Path 711" d="M1022.525,320.852s-2.634-26.164,6.9-36.112c0,0,1.976,28.859-6.9,36.112" transform="translate(18.489 20.394)" fill="#f0f757"/>
      <path id="Path_712" data-name="Path 712" d="M1026.074,340.489s-2.634-26.164,6.9-36.112c0,0,1.976,28.859-6.9,36.112" transform="translate(18.553 21.8)" fill="#f0f757"/>
      <path id="Path_713" data-name="Path 713" d="M1011.1,264.753s-5.052-24.949,3.1-39.249c0,0,4.685,27.943-3.1,39.249" transform="translate(18.26 16.15)" fill="#f0f757"/>
      <path id="Path_714" data-name="Path 714" d="M1015.164,287.106s-4.9-25.06,3.35-39.1c0,0,4.516,28.038-3.35,39.1" transform="translate(18.335 17.762)" fill="#f0f757"/>
      <path id="Path_715" data-name="Path 715" d="M1007.066,245.243s-12.124-2.191-15.721-25.579c0,0,13.284,4.406,15.721,25.579" transform="translate(17.931 15.732)" fill="#f0f757"/>
      <path id="Path_716" data-name="Path 716" d="M1010.192,263.785s-12.124-2.191-15.721-25.579c0,0,13.283,4.406,15.721,25.579" transform="translate(17.987 17.06)" fill="#f0f757"/>
      <path id="Path_717" data-name="Path 717" d="M1015.344,287.1s-12.125-2.192-15.721-25.579c0,0,13.283,4.406,15.721,25.579" transform="translate(18.08 18.73)" fill="#f0f757"/>
      <path id="Path_718" data-name="Path 718" d="M1019.982,309.507s-12.124-2.191-15.721-25.579c0,0,13.283,4.406,15.721,25.579" transform="translate(18.164 20.336)" fill="#f0f757"/>
      <path id="Path_719" data-name="Path 719" d="M1023.079,329.174s-12.124-2.191-15.721-25.579c0,0,13.283,4.406,15.721,25.579" transform="translate(18.22 21.744)" fill="#f0f757"/>
      <path id="Path_720" data-name="Path 720" d="M1025.411,358.769s-11.545-10.6-11.551-34.484a51.416,51.416,0,0,1,11.551,34.484" transform="translate(18.338 24.227)" fill="#f0f757"/>
      <path id="Path_721" data-name="Path 721" d="M1027.595,357.63s-1.754-24.132,6.947-29.942c0,0,1.11,26.322-6.947,29.942" transform="translate(18.584 23.471)" fill="#f0f757"/>
    </g>
    <path id="Path_722" data-name="Path 722" d="M1003.2,227.669s26.76,114.613,23.611,130.008,29.386,80.733,25.169,332.65c0,0-6.744,115.334,3.559,159.306,0,0,28.936,135.383,2.852,203.982" transform="translate(18.145 16.305)" fill="none" stroke="#f0f757" stroke-miterlimit="10" stroke-width="1"/>
    <path id="Path_723" data-name="Path 723" d="M1052.562,708.012s-2.362-86.66-25.31-171.249c-12.084-44.544-29.877-88.512-56.038-118.95,0,0,42.146,71.216,51.9,113.5s17.829,73.953,20.5,100.619,8.954,76.076,8.954,76.076" transform="translate(17.566 29.927)" fill="#f0f757"/>
    <path id="Path_724" data-name="Path 724" d="M1049.439,576.9s-6.053-172.575,13.117-176.034c0,0-11.2,16.875-9.484,44.679Z" transform="translate(18.965 28.713)" fill="#f0f757"/>
    <g id="Group_785" data-name="Group 785" transform="translate(-800.171 204.224) rotate(-7)">
      <path id="Path_725" data-name="Path 725" d="M1872.639,175.62s-9.134-14.918-4.733-37.907c0,0,9.382,17.98,4.733,37.907" transform="translate(-659.643 135.111)" fill="#efff1f"/>
      <path id="Path_726" data-name="Path 726" d="M1874.769,191.784s-4.338-23.318,4.3-40.438c0,0,3.878,26.447-4.3,40.438" transform="translate(-660.741 136.088)" fill="#efff1f"/>
      <path id="Path_727" data-name="Path 727" d="M1878.625,249.586s.162-26.183,10.75-35.882c0,0-1.107,28.858-10.75,35.882" transform="translate(-662.252 140.555)" fill="#efff1f"/>
      <path id="Path_728" data-name="Path 728" d="M1879.077,267.98s.838-26.3,11.591-34.757c0,0-1.844,28.869-11.591,34.757" transform="translate(-662.468 141.953)" fill="#efff1f"/>
      <path id="Path_729" data-name="Path 729" d="M1879.87,287.919s.838-26.3,11.591-34.757c0,0-1.845,28.869-11.591,34.757" transform="translate(-662.614 143.382)" fill="#efff1f"/>
      <path id="Path_730" data-name="Path 730" d="M1875.552,210.872s-1.718-25.445,8.241-38.417c0,0,.958,28.357-8.241,38.417" transform="translate(-661.329 137.6)" fill="#efff1f"/>
      <path id="Path_731" data-name="Path 731" d="M1876.475,233.57s-1.555-25.534,8.469-38.233c0,0,.779,28.427-8.469,38.233" transform="translate(-661.524 139.239)" fill="#efff1f"/>
      <path id="Path_732" data-name="Path 732" d="M1874.1,191.14s-11.718-3.939-12.2-27.626c0,0,12.575,6.3,12.2,27.626" transform="translate(-659.369 136.959)" fill="#efff1f"/>
      <path id="Path_733" data-name="Path 733" d="M1874.625,209.937s-11.718-3.939-12.2-27.626c0,0,12.576,6.3,12.2,27.626" transform="translate(-659.467 138.306)" fill="#efff1f"/>
      <path id="Path_734" data-name="Path 734" d="M1876.494,233.743s-11.718-3.939-12.2-27.626c0,0,12.576,6.3,12.2,27.626" transform="translate(-659.815 140.012)" fill="#efff1f"/>
      <path id="Path_735" data-name="Path 735" d="M1877.981,256.574s-11.718-3.939-12.2-27.626c0,0,12.575,6.3,12.2,27.626" transform="translate(-660.092 141.647)" fill="#efff1f"/>
      <path id="Path_736" data-name="Path 736" d="M1878.321,276.48s-11.718-3.939-12.2-27.626c0,0,12.576,6.3,12.2,27.626" transform="translate(-660.155 143.073)" fill="#efff1f"/>
      <path id="Path_737" data-name="Path 737" d="M1876.6,306.083s-10.037-12.183-6.9-35.837a52.014,52.014,0,0,1,6.9,35.837" transform="translate(-660.187 144.606)" fill="#efff1f"/>
      <path id="Path_738" data-name="Path 738" d="M1878.945,305.1s1.441-24.156,10.823-28.639c0,0-2.367,26.228-10.823,28.639" transform="translate(-662.322 145.051)" fill="#efff1f"/>
      <path id="Path_739" data-name="Path 739" d="M1873.626,173.086s10.385,102.263,5.1,115.2,17.75,73.29-21.854,290.543c0,0-22.9,98.89-18.877,138.129,0,0,9.619,120.477-25.861,176.662" transform="translate(-650.105 137.645)" fill="none" stroke="#ff0" stroke-miterlimit="10" stroke-width="1"/>
      <path id="Path_740" data-name="Path 740" d="M1856.83,656.227s9.075-86.168-2.51-173.29c-6.1-45.876-17.93-92.016-39.83-125.979,0,0,32.359,76.679,36.448,119.983s7.916,75.841,7.045,102.638-1.154,76.648-1.154,76.648" transform="translate(-650.063 89.866)" fill="#efff1f"/>
      <path id="Path_741" data-name="Path 741" d="M1871.519,525.228s16.735-171.793,36.177-172.421c0,0-13.316,15.077-15.277,42.863Z" transform="translate(-665.968 100.879)" fill="#efff1f"/>
    </g>
    <path id="Path_742" data-name="Path 742" d="M68.7,179.294s-11.267-12-10.31-33.073c0,0,11.966,14.69,10.31,33.073" transform="translate(1.055 10.47)" fill="#f0f757"/>
    <path id="Path_743" data-name="Path 743" d="M73.279,193.47s-7.757-20.145-1.731-36.588c0,0,7.764,22.994,1.731,36.588" transform="translate(1.253 11.234)" fill="#f0f757"/>
    <path id="Path_744" data-name="Path 744" d="M86.127,244.454s-3.72-23.324,5.34-33.434c0,0,3.179,25.835-5.34,33.434" transform="translate(1.544 15.112)" fill="#f0f757"/>
    <path id="Path_745" data-name="Path 745" d="M89.452,260.771s-3.066-23.518,6.341-32.55c0,0,2.45,25.948-6.341,32.55" transform="translate(1.609 16.345)" fill="#f0f757"/>
    <path id="Path_746" data-name="Path 746" d="M93.348,278.41s-3.066-23.518,6.341-32.55c0,0,2.45,25.948-6.341,32.55" transform="translate(1.68 17.608)" fill="#f0f757"/>
    <path id="Path_747" data-name="Path 747" d="M77.033,210.387s-5.473-22.4,2.477-35.341c0,0,5.153,25.1-2.477,35.341" transform="translate(1.36 12.535)" fill="#f0f757"/>
    <path id="Path_748" data-name="Path 748" d="M81.49,230.466s-5.326-22.506,2.729-35.208c0,0,4.986,25.189-2.729,35.208" transform="translate(1.443 13.983)" fill="#f0f757"/>
    <path id="Path_749" data-name="Path 749" d="M72.67,192.858s-12.2-1.868-16.19-22.88c0,0,13.4,3.849,16.19,22.88" transform="translate(1.022 12.172)" fill="#f0f757"/>
    <path id="Path_750" data-name="Path 750" d="M76.122,209.515s-12.2-1.868-16.19-22.88c0,0,13.4,3.849,16.19,22.88" transform="translate(1.084 13.365)" fill="#f0f757"/>
    <path id="Path_751" data-name="Path 751" d="M81.689,230.453s-12.2-1.868-16.19-22.88c0,0,13.4,3.849,16.19,22.88" transform="translate(1.185 14.865)" fill="#f0f757"/>
    <path id="Path_752" data-name="Path 752" d="M86.726,250.574s-12.2-1.868-16.191-22.88c0,0,13.4,3.849,16.191,22.88" transform="translate(1.276 16.307)" fill="#f0f757"/>
    <path id="Path_753" data-name="Path 753" d="M90.168,268.243s-12.2-1.868-16.19-22.88c0,0,13.4,3.849,16.19,22.88" transform="translate(1.338 17.573)" fill="#f0f757"/>
    <path id="Path_754" data-name="Path 754" d="M93,294.854s-11.757-9.44-12.15-30.929c0,0,12.608,11.99,12.15,30.929" transform="translate(1.462 18.902)" fill="#f0f757"/>
    <path id="Path_755" data-name="Path 755" d="M95.172,293.819s-2.151-21.7,6.486-27c0,0,1.539,23.673-6.486,27" transform="translate(1.717 19.11)" fill="#f0f757"/>
    <path id="Path_756" data-name="Path 756" d="M68.516,177.083S97.35,286.953,94.456,301.77s30.884,77.3,31.006,319.335c0,0-4.773,110.851,6.326,153,0,0,31.376,129.8,6.387,195.926" transform="translate(1.239 12.681)" fill="none" stroke="#f0f757" stroke-miterlimit="10" stroke-width="1"/>
    <path id="Path_757" data-name="Path 757" d="M117.349,420.217S88.913,261.184,0,242.81c0,0,42.1,8.185,76.6,73.931s40.745,103.475,40.745,103.475" transform="translate(0 17.39)" fill="#f0f757"/>
    <path id="Path_758" data-name="Path 758" d="M115.35,418.553s-13.044-135.618,3.759-152.516a83.058,83.058,0,0,0-3.8,13.121,137.06,137.06,0,0,0-2.93,35.334c.72,18.538,1.467,55.348,2.97,104.061" transform="translate(1.999 19.054)" fill="#f0f757"/>
    <path id="Path_759" data-name="Path 759" d="M1309.811,783.962s11.353-135.8-1.854-202.756,4.161-211.325,37.184-232.138" transform="translate(23.577 25.002)" fill="none" stroke="#7fa088" stroke-miterlimit="10" stroke-width="3"/>
    <path id="Path_760" data-name="Path 760" d="M1303.485,536.619s-32.616-232.681-21.454-279.209c0,0-.549-83.31,21.29-108.115" transform="translate(23.146 10.69)" fill="none" stroke="#7fa088" stroke-miterlimit="10" stroke-width="3"/>
    <path id="Path_761" data-name="Path 761" d="M1307.905,569.912a316.414,316.414,0,0,1,7.617-64.716c5.208-22.868,11.33-49.757,23.024-51.333,7.839-1.056,14.75,9.73,19.407,17,12.965,20.237,14.88,44.951,15.255,54.972" transform="translate(23.656 32.505)" fill="none" stroke="#7fa088" stroke-miterlimit="10" stroke-width="3"/>
    <path id="Path_762" data-name="Path 762" d="M1360.1,627.387s8.382-11.741,6.831-34.329-2.647-55.323,4.712-56.863,12.489-10.445,19.288,13.329,18.736,55.484,28.09,49.545c0,0,1.029,6.639-16.028,9.1,0,0-5.575,35.895-8.428,36.165,0,0-11.984-7.285-19.407-23.423,0,0-8.78,14.3-15.058,6.479" transform="translate(24.6 38.2)" fill="#cc5a71"/>
    <path id="Path_763" data-name="Path 763" d="M1411.751,374.673s-8.138-13.65-21.18-10.86-32.114,4.948-34.106-7.132-7.984-20.417,4.98-31.847,29.83-31.393,24.958-46.7c0,0,3.748-1.764,7.714,26.246,0,0,21.913,8.779,22.494,13.464,0,0-2.509,19.776-10.894,32.15,0,0,9.7,14.277,6.033,24.682" transform="translate(24.478 19.919)" fill="#cc5a71"/>
    <path id="Path_764" data-name="Path 764" d="M1312.031,138.672s-2.924-34.246,37.118-53.2c0,0-4.034,41.642-26.96,58.971,0,0-8.5,10.067-10.157-5.774" transform="translate(23.73 6.118)" fill="#cc5a71"/>
    <path id="Path_765" data-name="Path 765" d="M1280.03,297.361s13.58-39.155,32.076-12.278c0,0-23.694-5.641-29.865,19.1Z" transform="translate(23.152 19.743)" fill="#7fa088"/>
    <path id="Path_766" data-name="Path 766" d="M1307.606,456.265s23.5-71.732,47.245-43.668c0,0,1.421-12.765-26.019-11.008,0,0-17.224,15.583-19.069,35.306Z" transform="translate(23.651 28.753)" fill="#7fa088"/>
    <path id="Path_767" data-name="Path 767" d="M1354.422,468.363s25.167,4.3,31.376-22.394c0,0-1.64,34.679-16.419,28.5l-11.491-.047Z" transform="translate(24.498 31.944)" fill="#7fa088"/>
    <path id="Path_768" data-name="Path 768" d="M1318.8,488.981s23.133-25.418,28.917,25.4c0,0-7.14-20.374-12.274-19.887s-14.852-4.954-18.976,4.933Z" transform="translate(23.811 34.57)" fill="#7fa088"/>
    <path id="Path_769" data-name="Path 769" d="M1303.093,154.99s10.272,7.447,9.866-6.83c0,0,12.841,11.414,20.193-6.965,0,0-11.175,12.847-19.793,4.4,0,0,12.03-17.139,11.629-23,0,0-11.633,14.575-13.627,18.974a58.839,58.839,0,0,1,5.518-36.73s-9.809,7.665-8.03,33.6c0,0-10.494,6.046-5.755,16.544" transform="translate(23.547 7.506)" fill="#7fa088"/>
    <path id="Path_770" data-name="Path 770" d="M1351.875,341.712s1.819-15.329-10.788-14.976c0,0,9.239-7.612,11.811,4.775s9.429,37,5.1,40.777-6.046,3.94-6.046,3.94a22.208,22.208,0,0,0,3.757-20.565s-9.238,7.612-11.582-1.429,5.357-13.981,7.754-12.523" transform="translate(24.256 23.237)" fill="#7fa088"/>
    <path id="Path_771" data-name="Path 771" d="M1380.822,533.4s10.447,4.007,10.413-14.446c0,0,5.05,14.168-3.458,16.838s-25.441,10.521-27.952,3.857-2.594-9.181-2.594-9.181,5.54,11.643,13.993,7.3c0,0-5.049-14.168,1.168-16.8s9.466,9.056,8.431,12.43" transform="translate(24.548 37.173)" fill="#7fa088"/>
    <path id="Path_774" data-name="Path 774" d="M198.345,547.837a289.376,289.376,0,0,1,14.712-64.814c8.05-22.609,17.516-49.2,30.916-49.436,8.985-.162,15.8,11.592,20.4,19.511,12.793,22.05,12.643,47.362,12.125,57.578" transform="translate(3.587 31.057)" fill="none" stroke="#7fa088" stroke-miterlimit="10" stroke-width="3"/>
    <path id="Path_775" data-name="Path 775" d="M251.672,612.032s10.6-10.945,10.968-34.057,2.2-56.471,10.681-57.179,15.136-9.153,20.608,15.772,16.022,58.5,27.181,53.562c0,0,.543,6.86-19.019,7.373,0,0-9.691,35.791-12.95,35.734A61.211,61.211,0,0,1,269.347,607.2s-11.295,13.5-17.675,4.828" transform="translate(4.552 37.166)" fill="#cc5a71"/>
    <path id="Path_776" data-name="Path 776" d="M335.159,361.422s-7.94-14.8-22.983-13.484-36.861,1.289-37.984-11.205-7.131-21.654,8.635-31.751,36.757-28.4,32.674-44.514c0,0,4.414-1.355,6.277,27.541,0,0,24.011,11.458,24.228,16.284,0,0-4.7,19.784-15.366,31.373,0,0,9.655,15.62,4.518,25.756" transform="translate(4.922 18.654)" fill="#cc5a71"/>
    <path id="Path_777" data-name="Path 777" d="M245.248,110.46s-.1-35.106,47.064-49.692c0,0-8.484,41.806-36.1,56.734,0,0-10.575,9.233-10.969-7.042" transform="translate(4.436 4.348)" fill="#cc5a71"/>
    <g id="Group_872" data-name="Group 872">
      <path id="Path_772" data-name="Path 772" d="M181.32,765.3s25.624-136.544,16.946-206.05,24.57-214.051,63.95-231.341" transform="translate(3.28 23.487)" fill="none" stroke="#7fa088" stroke-miterlimit="10" stroke-width="3"/>
      <path id="Path_773" data-name="Path 773" d="M198.053,513.748s-15.106-240,1.915-285.941c0,0,7.205-84.639,34.286-107.282" transform="translate(3.47 8.629)" fill="none" stroke="#7fa088" stroke-miterlimit="10" stroke-width="3"/>
      <path id="Path_778" data-name="Path 778" d="M193.081,268.169s19.07-38.172,37.506-8.737c0,0-26.324-8.48-35.642,15.915Z" transform="translate(3.492 17.782)" fill="#7fa088"/>
      <path id="Path_779" data-name="Path 779" d="M208.84,432.5s33.372-70.091,57.646-38.842c0,0,2.81-12.794-28.455-14.2,0,0-20.985,13.818-24.929,33.626Z" transform="translate(3.777 27.179)" fill="#7fa088"/>
      <path id="Path_780" data-name="Path 780" d="M260.487,449.88s28.12,7.287,37.662-19.088c0,0-5.117,35.015-21.285,27.026l-13.019-1.382Z" transform="translate(4.711 30.857)" fill="#7fa088"/>
      <path id="Path_781" data-name="Path 781" d="M217.991,467.028s28.605-23.116,30.386,29.143c0,0-6.178-21.513-12.042-21.616s-16.367-6.755-21.969,2.8Z" transform="translate(3.877 33.088)" fill="#7fa088"/>
      <path id="Path_782" data-name="Path 782" d="M233.478,126.217s10.942,8.754,11.824-5.786c0,0,13.48,13.079,23.539-4.725,0,0-13.874,11.743-22.847,2.168,0,0,15.244-16,15.338-21.992,0,0-14.552,13.444-17.226,17.678a54.08,54.08,0,0,1,9.7-36.647s-11.837,6.642-12.257,33.178c0,0-12.461,4.919-8.076,16.126" transform="translate(4.206 5.505)" fill="#7fa088"/>
      <path id="Path_783" data-name="Path 783" d="M270.065,321.289s3.5-15.35-10.82-16.457c0,0,11.186-6.654,12.938,6.22s7.21,38.656,1.943,41.988-7.221,3.3-7.221,3.3a20.825,20.825,0,0,0,6.189-20.44s-11.186,6.654-12.992-2.8,7.384-13.57,9.964-11.813" transform="translate(4.689 21.71)" fill="#7fa088"/>
      <path id="Path_784" data-name="Path 784" d="M283.919,518.956s11.463,5.281,13.159-13.456c0,0,4.392,14.971-5.5,16.692s-29.822,7.726-32.042.667-2.077-9.62-2.077-9.62,5.185,12.463,15.173,9.034c0,0-4.391-14.97,2.9-16.916s9.877,10.294,8.387,13.6" transform="translate(4.657 36.184)" fill="#7fa088"/>
    </g>
    <path id="Path_785" data-name="Path 785" d="M868.909,1007.9S762.28,507.153,788.287,358.3c0,0-44.684-198.211-40.8-230.941" transform="translate(13.516 9.119)" fill="none" stroke="#7fa088" stroke-miterlimit="10" stroke-width="3"/>
    <path id="Path_786" data-name="Path 786" d="M783.747,64.148S724.33,104.773,714.7,52.794c0,0,12.318-75.442,53.045-29.165,0,0,23.464,23.142,16.005,40.519" transform="translate(12.927 0.612)" fill="#f0f757"/>
    <path id="Path_787" data-name="Path 787" d="M698.309,76.4a212.217,212.217,0,0,0-17.1,31.723c-2.287,5.257-15.373,35.919-10.363,39.636,1.048.777,3.287.673,8.66-3.875q2.366-4.224,4.732-8.872c1.96-3.861,3.744-7.629,5.368-11.276,0,0-7.982,39.2,8.518,32.744,0,0,21.473-45.1,20.922-48.433,0,0-4.041,56.772,4.35,57.521,0,0,16.444,24.429,23.507-20.319l4.351-23.667s5.778,28.672,8.151,30.524c0,0,24.51,60.686,32.11,6.691,0,0-1.781-41.984-5.341-44.761,0,0,22.222,53.1,36.631,52.747s-8.547-57.9-8.547-57.9,25.4,41.084,32.237,38.686-33.184-69.388-33.184-69.388,39.174,43.132,43,41.287-24.849-37.754-24.849-37.754,32.293,7.8-3.306-19.978c0,0-34.152-14.628-41.79-6.785a13.812,13.812,0,0,1-1.621,6.74c-2.606,4.617-7.586,5.684-11.3,6.645-17.609,4.557-16.039,9.108-26.346,9.4-4.942.143-14.06.4-20.511-5.9-9.2-8.984-9.734-18.215-9.987-28.534-.069-2.811-53.407,6.1-54.829,23.9-.175,2.2.466,7.586,3.522,9.525,3.837,2.434,9.14-2.149,10.213-.729.752,1-.808,4.643-9.833,15.524a29.114,29.114,0,0,0-5.367,11.276c-.175.752-2.082,8.943-.353,10.356,2.3,1.884,12.908-6.755,48.369-51.177" transform="translate(11.924 3.061)" fill="#cc5a71"/>
    <path id="Path_788" data-name="Path 788" d="M786.276,344.2s31.888-48.661,23.653-73.452" transform="translate(14.221 19.391)" fill="none" stroke="#7fa088" stroke-miterlimit="10" stroke-width="3"/>
    <path id="Path_789" data-name="Path 789" d="M825.319,245.943s12.064,22.945-8.448,30.137-21.1-33.866-15.186-41.813c0,0,4.648-3.139,6.484,7.96,0,0,4.916-7.763,7.205-.178,0,0,7.473-4.8,9.945,3.894" transform="translate(14.441 16.748)" fill="#7fa088"/>
    <path id="Path_790" data-name="Path 790" d="M804.18,235.026s.621-14.979,11.937-9.05,5.58,14.987,5.58,14.987-6.018,1.1-6.428,1.75c0,0-3.7-6.755-7.2.178,0,0-2.882-8.049-3.885-7.865" transform="translate(14.545 16.084)" fill="#f0f757"/>
    <path id="Path_791" data-name="Path 791" d="M1642.5,944.455s15.626-362.259,55.887-459.206c0,0,4.657-143.854,12.378-165.513" transform="translate(29.708 22.901)" fill="none" stroke="#7fa088" stroke-miterlimit="10" stroke-width="3"/>
    <path id="Path_792" data-name="Path 792" d="M1743.36,283.23s-43.281,16.724-40.774-20.612c0,0,19.873-49.3,37.485-10.073,0,0,10.719,20.191,3.289,30.685" transform="translate(30.793 17.001)" fill="#f0f757"/>
    <path id="Path_793" data-name="Path 793" d="M1688.408,275.969a143.352,143.352,0,0,0-15.713,18.51c-2.266,3.17-15.331,21.7-12.843,25.176.52.725,1.92,1.072,5.975-1.038q2.149-2.45,4.365-5.187c1.837-2.276,3.551-4.52,5.146-6.712,0,0-11.3,25.32-.067,23.976,0,0,20.589-26.847,20.79-29.227,0,0-11.726,38.071-6.67,40.144,0,0,6.177,19.765,17.815-9.52l6.534-15.375s-1.1,20.682.067,22.39c0,0,5.258,46.058,18.731,10.55,0,0,5.73-29.04,3.985-31.6,0,0,5.079,40.446,14.03,42.884s4.142-41.18,4.142-41.18,9,32.82,13.605,32.453-9.2-53.623-9.2-53.623,17.164,36.784,19.827,36.234-9.2-30.44-9.2-30.44,18.664,11.343,1.209-14.276c0,0-18.7-16.358-24.692-12.415a10.083,10.083,0,0,1-2.1,4.307c-2.36,2.672-5.607,2.476-8.057,2.441-11.61-.161-11.381,3.244-17.791,1.529-3.074-.823-8.744-2.339-11.7-7.85-4.216-7.854-3.045-14.267-1.524-21.37.415-1.935-33.955-5.769-37.728,6.138-.466,1.471-.946,5.275.624,7.168,1.972,2.378,5.991.231,6.423,1.4.3.821-1.254,3.025-8.594,8.786a19.909,19.909,0,0,0-5.147,6.712c-.231.482-2.74,5.728-1.9,7.016,1.116,1.717,9.066-2.217,38.179-26" transform="translate(29.999 18.234)" fill="#fff"/>
    <path id="Path_794" data-name="Path 794" d="M1697.214,474.578s27.6-27.342,26.546-45.827" transform="translate(30.698 30.711)" fill="none" stroke="#7fa088" stroke-miterlimit="10" stroke-width="3"/>
    <path id="Path_795" data-name="Path 795" d="M1737.465,414.78s3.716,17.935-10.116,19.036-7.519-27.085-2.573-31.417c0,0,3.379-1.282,2.708,6.65,0,0,4.3-4.394,4.475,1.218,0,0,5.393-1.891,5.5,4.514" transform="translate(31.091 28.817)" fill="#7fa088"/>
    <path id="Path_796" data-name="Path 796" d="M1726.234,403.3s2.82-10.128,8.84-3.967,1.007,11.286,1.007,11.286-3.894-.365-4.253,0c0,0-1.186-5.307-4.475-1.218,0,0-.469-6.04-1.119-6.1" transform="translate(31.223 28.461)" fill="#eded26"/>
    <g id="Group_804" data-name="Group 804" transform="translate(-32.42 69.98)">
      <path id="Path_797" data-name="Path 797" d="M929.8,999.053a1844.021,1844.021,0,0,1-12.1-455.278L903.418,381.341" transform="translate(1.27 27.314)" fill="none" stroke="#7fa088" stroke-miterlimit="10" stroke-width="3"/>
      <path id="Path_798" data-name="Path 798" d="M939.261,335.2s-52.481,26.759-56.076-14.316c0,0,16.505-57.517,46.258-18.381,0,0,17.437,19.818,9.818,32.7" transform="translate(1.873 20.689)" fill="#f0f757"/>
      <path id="Path_799" data-name="Path 799" d="M855.761,347.526a107.331,107.331,0,0,0-8.914,13.343c-1.759,3.1-13.865,24.47-9.952,29.907,1,1.39,4.01,3.075,15.42-3.364Q858.629,380.394,865,373.1q4.053-4.644,8.012-9.266s-6.783,43.7-1.032,44.951c0,0,9.653,20.256,17.682-13.879l4.671-18.006s1.981,22.694,3.492,24.32c0,0,12.684,49.015,21.733,7.752,0,0,1.719-32.7-.547-35.136,0,0,11.635,42.95,21.623,43.826s-1.842-45.577-1.842-45.577c26,21.912,33.1,24.317,34.6,22.208,2.255-3.166-6.907-18.136-12.824-26.133A88.684,88.684,0,0,0,940.3,348.2l12.3,4.188c10.687,2.265,19.027,1.948,19.806-1.112.79-3.1-6.094-9.41-16.474-15.254a85.388,85.388,0,0,0-16.237-5.739,81.31,81.31,0,0,0-16.4-2.247,11.641,11.641,0,0,1-1.594,5.1c-2.127,3.372-5.646,3.8-8.282,4.251-12.5,2.128-11.732,5.783-18.879,5.19-3.428-.284-9.751-.809-13.77-6.21a30.728,30.728,0,0,1-4.031-7.884c-1.894-5.819-.679-8.293-2.013-9.9-2.691-3.243-10.727,3.1-24.188,11.816-17.205,11.139-23.635,13.434-24.4,20.631-.341,3.191.429,7.366,2.659,9.44,8.234,7.659,31.889-17.526,33.028-18.756" transform="translate(14.941 22.756)" fill="#fff"/>
    </g>
  </g>
</svg>
