<svg xmlns="http://www.w3.org/2000/svg" width="1976.966" height="674.021" viewBox="0 0 1976.966 674.021">
  <g id="grass" transform="translate(-10.803 -426.554)">
    <path id="Path_875" data-name="Path 875" d="M0,0H1960.836V287.2H0Z" transform="translate(19.687 813.376)" fill="#9db6a4"/>
    <path id="Path_800" data-name="Path 800" d="M24.907,792.407l678.046,2.143V685.243s-4.581,35.9-8.654,38.043-4.072-68.585,4.072-70.728c0,0-9.163,2.143-8.145,22.5a408.471,408.471,0,0,0-8.654-166.64c11,72.634,7.2,130.515,1.909,168.917-2.822,20.49-7.544,45.74-8.526,45.947-5.09,1.072,16.289-155.388,16.289-155.388S648.485,736.146,649.5,737.217s5.09-106.092,17.307-132.883c0,0-24.434,58.94-32.579,98.591,0,0-8.145-48.224-11.2-49.3-1.434,38.23-2,52.511-2.036,52.51-.167-.006,10.085-257.535,6.617-257.73-1.567-.088-4.479,52.4-14.253,147.886-4.8,46.861-9.372,85.77-12.726,113.058-1.1-6.815-1.3-15.456-1.4-25.451-.127-13.128.891-27.059,5.472-30.274,0,0-8.145,3.215-9.163,39.651,0,0,0-111.451-2.036-111.451s-8.145,117.881-14.253,120.024-10.181-42.866-10.181-42.866-2.036,76.087-4.072,80.373c-2.286,4.811-8.658,17.018-11.2,16.075-2.283-.848-.319-11.879,2.545-30.542,6.463-42.119,4.349-37.347,7.127-50.367a261.938,261.938,0,0,1,21.38-61.084l96.718-136.1c-24.089,25.893-43.851,49.016-59.049,67.513,0,0-76.325,92.9-75.847,133.419,0,.035,0,.162-.032.169-1,.222-25.607-118.485-34.582-139.483,0,0,20.361,130.74,7.127,145.743,0,0-4.072,13.931-6.109,55.725,0,0-11.2-47.152,5.09-66.442s27.487-66.442,27.487-66.442S507.99,669.7,505.954,669.7s-6.109-55.725-6.109-55.725l-6.109,79.3s-8.145,24.648-10.181,24.648-9.163-35.364-11.2-35.364V704s-12.217-62.155-8.145-65.37c0,0-11.2,102.878-11.2,131.812s-15.271-72.872-11.2-79.3-6.108,13.931-5.09,17.146c0,0-4.072-11.788-3.054-43.937,0,0-15.271,62.155-14.253,62.155s-20.362-18.218-21.38-45.009c0,0-1.018,18.218,14.253,68.585,0,0-5.09,12.86-6.109,10.716s31.561-136.1,40.724-153.245-53.959,100.734-53.959,122.167c0,.47-.052,1.4-.331,1.458-2.906.624-22.346-96.033-47.01-195.961-8.429-34.146-20.548-81.161-36.651-137.17q27.233,150.833,54.468,301.667s-1.018,37.507-3.054,38.579-8.145-39.651-10.181-39.651,0,18.218-1.018,19.29-12.217-112.522-11.2-112.522-8.145,99.663-7.127,99.663-6.109,19.29-7.127,19.29-2.036-13.931-2.036-13.931-9.163,27.863-13.235,28.934,14.253-61.084,13.235-64.3-30.543,64.3-30.543,64.3,8.145-95.376,4.072-121.1c0,0-16.289,102.878-23.416,115.737s-4.072-80.373-13.235-128.6c0,0-6.109,98.591-7.127,99.663s-20.362-46.081-23.416-46.081,25.452,96.448,17.307,106.092L213.763,590.4s3.054,93.233,1.018,95.376-3.054-62.155-3.054-62.155-4.072,39.651-5.09,41.794-2.036-20.361-2.036-20.361-1.018,43.937-5.09,49.3-10.181,45.009-10.181,45.009L187.293,632.2S174.058,717.928,171,717.928s-3.054-31.078,7.127-53.582c0,0,8.145-25.719,6.109-27.863S171,669.7,168.967,669.7c-6.477,0-5.437-48.553-17.307-107.164-11.113-54.868-28.78-95.26-30.034-94.84-1.235.414,12.515,40.76,24.434,105.021,0,0,17.374,93.675,2.545,138.778-.309.938-8.145,24.648-8.145,24.648s0-28.934,2.036-32.149c.15-.238.235-.341.259-.328.268.147-6.286,18.6-10.439,18.546-7.506-.1-11.751-60.65-15.78-98.055A988.477,988.477,0,0,0,84.975,462.341c17.672,151.863,21.987,209.64,20.871,225.58-.015.225-2.036,28.934-2.036,28.934s-12.217-19.29-11.2-35.364-3.054,68.585-3.054,68.585-3.054,16.075-5.09,16.075,0-82.516,8.145-112.522c0,0,1.018-19.29,0-25.719s-9.163,58.94-15.271,58.94-5.09-28.934-5.09-28.934S69.195,686.85,67.159,719s-22.4,70.728-14.253,18.218,0-106.092,8.145-112.522c0,0-28.506,85.731-26.47,97.519s-9.164-39.651-7.128-39.651-2.545,109.843-2.545,109.843" transform="translate(0.45 28.511)" fill="#9db6a4"/>
    <path id="Path_801" data-name="Path 801" d="M635.258,793.188l678.046,2.143V686.024s-4.581,35.9-8.654,38.043-4.072-68.585,4.072-70.728c0,0-9.163,2.143-8.145,22.5l-2.036-42.866S1290.4,723,1285.307,724.067c-1.075.226,14.676-68.4,16.289-155.388a785.78,785.78,0,0,0-2.9-83.7c4.306,68.436-5.282,119.029-15.271,153.245,0,0-27.885,95.518-23.568,99.771a.025.025,0,0,0,.015.009c1.042.035,5.134-106.23,17.292-132.892,0,0-24.434,58.94-32.579,98.591,0,0-8.145-48.224-11.2-49.3,0,0-1.018,52.51-2.036,52.51s-7.127-132.883-5.091-132.883-18.326,136.1-15.271,136.1c0,0-5.09-49.3,4.072-55.725,0,0-8.145,3.215-9.163,39.651.614-113.14.631-201.551-.866-201.577-2.308-.039-6.866,210.125-15.423,210.15-3.845.011-10.181-42.866-10.181-42.866s-2.036,76.087-4.072,80.373-10.181,16.075-11.2,16.075-12.217-55.725,33.6-132.883l55.128-104.057c-67.453,108.556-95.792,156.218-95.852,159.783,0,.018,0,.165-.031.169-.724.109-8.277-88.508-32.4-179.242-7.06-26.561-14.022-47.595-18.326-60.012a753.216,753.216,0,0,1,23.264,245.514s-4.072,13.931-6.109,55.725c0,0-11.2-47.152,5.091-66.442s27.488-66.442,27.488-66.442-37.669,62.155-39.705,62.155-6.109-55.725-6.109-55.725l-6.109,79.3s-8.145,24.648-10.181,24.648-9.163-35.364-11.2-35.364v21.433s-12.217-62.155-8.145-65.37c0,0-11.2,102.878-11.2,131.812s-15.271-72.872-11.2-79.3-6.109,13.931-5.09,17.146c0,0-4.072-11.788-3.054-43.937,0,0-15.271,62.155-14.253,62.155s-20.362-18.218-21.38-45.009c0,0-1.018,18.218,14.253,68.585,0,0-4.517,11.411-5.892,10.944a.411.411,0,0,1-.217-.227c-3.52-7.3,3.206-22.613,3.206-22.613,13.671-31.129,14.749-106.717,73.3-200.4,35-55.993,68.143-82.63,67.194-83.588-1.554-1.569-89.412,71.139-120.134,152.173-5.418,14.294-36.79,101.99-36.8,123.347,0,.309.005,1.362-.33,1.459-4.814,1.385-60.755-200.784-60.755-200.784l31.561,169.319S972.754,738,970.718,739.07s-8.145-39.651-10.181-39.651,0,18.218-1.018,19.29S947.3,606.187,948.32,606.187s-8.145,99.663-7.127,99.663-6.109,19.29-7.127,19.29-2.036-13.931-2.036-13.931-9.163,27.863-13.235,28.934,14.253-61.084,13.235-64.3-30.543,64.3-30.543,64.3c1.862-16.027,3.134-33.023,3.563-50.9a571.5,571.5,0,0,0-25.81-182.823c5.633,50.688,10.308,88.444,13.235,111.451,0,0,10.056,79.035-10.333,116.917-.222.413-.677,1.254-1.284,1.2-5.493-.452-3.393-84.759-11.951-129.8,0,0-6.109,98.591-7.127,99.663s-20.362-46.081-23.416-46.081,25.452,96.448,17.307,106.092L824.113,591.184s3.054,93.233,1.018,95.376-3.054-62.155-3.054-62.155S818,664.056,816.987,666.2c-.035.072-.082.146-.137.144-1.11-.033.074-30.8-1.747-50.619-1.5-16.294-6.242-38.4-20.362-64.3a372.789,372.789,0,0,1,12.217,60.012c1.781,15.049,2.205,30.751,3.054,62.155.292,10.788.3,15.512-.152,21.541a156.9,156.9,0,0,1-10.181,45.009l-2.036-107.164s-13.235,85.731-16.289,85.731-3.054-31.078,7.127-53.582c0,0,8.145-25.719,6.109-27.863s-13.235,33.221-15.271,33.221-16.289-85.731-17.307-107.164-1.018,144.672-3.054,148.958-8.145,24.648-8.145,24.648,0-28.934,2.036-32.149c.151-.238.234-.341.26-.328.28.153-7.05,19.116-10.44,18.546-4.164-.7-1.977-30.787-1.885-52.619.217-51.051-10.96-71.182-17.307-113.594-4.534-30.294-6.939-74.2,4.072-130.74C707.836,497.5,707.5,546.8,711.257,579.288c0,0,7.858,67.863,4.939,109.416l-2.036,28.934s-12.217-19.29-11.2-35.364-3.054,68.585-3.054,68.585-3.054,16.075-5.09,16.075,0-82.516,8.145-112.522c0,0,1.018-19.289,0-25.719s-9.163,58.94-15.271,58.94S682.6,658.7,682.6,658.7s-3.054,28.934-5.091,61.083c-1.34,21.156-10.617,45.1-14.482,44.032-2.115-.584-.624-16.554.229-25.814,2.787-30.243,6.471-74.219,11.351-141.565C651.725,681.6,643.992,716.861,644.93,723c0,0,.267,1.749.238,1.755-.348.08-9.193-41.406-7.365-41.406,2.036,0-2.545,109.843-2.545,109.843" transform="translate(11.49 30.517)" fill="#9db6a4"/>
    <path id="Path_802" data-name="Path 802" d="M1286.454,797.032l678.046,2.143V689.867s-4.581,35.9-8.654,38.043-4.072-68.585,4.072-70.728c0,0-9.163,2.143-8.145,22.5l-2.036-42.866s-8.145,90.018-13.235,91.089,16.289-155.388,16.289-155.388-42.76,168.248-41.742,169.319,5.09-106.092,17.307-132.883c0,0-24.434,58.94-32.579,98.591,0,0-8.145-48.224-11.2-49.3,0,0-1.018,52.51-2.036,52.51s-7.127-132.884-5.09-132.884-18.326,136.1-15.271,136.1c0,0-5.09-49.3,4.072-55.725,0,0-8.145,3.215-9.163,39.651,0,0,0-111.451-2.036-111.451s-8.145,117.881-14.253,120.024-10.181-42.866-10.181-42.866-2.036,76.086-4.072,80.373-10.181,16.075-11.2,16.075-12.217-55.725,33.6-132.883l24.434-50.367s-65.158,100.734-65.158,106.092c0,.019.015.147-.032.169-.646.311-10.432-20.681-12.233-24.766-15.708-35.639,1.107-89.886,7.127-109.307a294.33,294.33,0,0,1,20.362-49.3,263.765,263.765,0,0,0-42.76,108.236,267.085,267.085,0,0,0,.048,81.393s-4.072,13.931-6.109,55.725c0,0-11.2-47.152,5.09-66.442s27.488-66.442,27.488-66.442-37.669,62.155-39.705,62.155-6.109-55.725-6.109-55.725l-6.109,79.3s-8.145,24.648-10.181,24.648-9.163-35.364-11.2-35.364v21.433s-12.217-62.155-8.145-65.37c0,0-11.2,102.878-11.2,131.812s-15.271-72.872-11.2-79.3-6.109,13.931-5.091,17.146c0,0-4.072-11.788-3.054-43.937,0,0-15.271,62.155-14.253,62.155s-20.362-18.218-21.38-45.009c0,0-1.018,18.218,14.253,68.585,0,0-5.09,12.86-6.109,10.716s31.561-136.1,40.724-153.245-53.959,100.734-53.959,122.167c0,.469-.02,1.371-.33,1.459-2.484.7-16.434-53.266-42.478-142.864-11.709-40.283-15.083-50.684-15.271-69.657-.334-33.817,9.788-61.42,18.326-79.3-16.748,30.744-20.672,56.086-21.38,72.872-1.632,38.734,12.707,59.487,23.416,115.737a484.65,484.65,0,0,1,8.193,71.748c-.241,28.071-1.592,37.81-3.054,38.579-2.036,1.072-8.145-39.651-10.181-39.651s0,18.218-1.018,19.29-12.217-112.522-11.2-112.522-8.145,99.663-7.127,99.663-6.109,19.29-7.127,19.29-2.036-13.931-2.036-13.931-9.163,27.863-13.235,28.934,14.253-61.083,13.235-64.3-30.543,64.3-30.543,64.3,8.145-95.376,4.072-121.1c0,0-16.289,102.878-23.416,115.737s-4.072-80.373-13.235-128.6c0,0-6.109,98.591-7.127,99.663s-20.362-46.081-23.416-46.081,25.452,96.448,17.307,106.092l-31.561-174.677s3.054,93.233,1.018,95.376-3.054-62.155-3.054-62.155-4.072,39.651-5.09,41.794-2.036-20.361-2.036-20.361-1.018,43.937-5.09,49.3-10.181,45.009-10.181,45.009l-2.036-107.164s-13.235,85.731-16.289,85.731-3.054-31.078,7.127-53.582c0,0,8.145-25.719,6.109-27.863s-13.235,33.221-15.271,33.221-16.289-85.731-17.307-107.164-1.018,144.672-3.054,148.958-8.145,24.648-8.145,24.648,0-28.934,2.036-32.149c.151-.238.235-.341.26-.328.228.127-7.188,18.131-10.44,18.546-9.573,1.22-34.354-143.263-60.115-311.8,28.648,199.9,34.671,262.724,33.645,277.5l-2.036,28.934s-12.217-19.29-11.2-35.364S1351.1,754.7,1351.1,754.7s-3.054,16.075-5.091,16.075,0-82.516,8.145-112.522c0,0,1.018-19.29,0-25.719s-9.163,58.94-15.271,58.94-5.091-28.934-5.091-28.934-3.054,28.934-5.09,61.084-22.4,70.728-14.253,18.218,0-106.092,8.145-112.522c0,0-28.506,85.731-26.47,97.519s-9.163-39.651-7.127-39.651-2.545,109.843-2.545,109.843" transform="translate(23.268 29.729)" fill="#9db6a4"/>
  </g>
</svg>
