<?xml version="1.0" encoding="utf-8"?>
<!-- Generator: Adobe Illustrator 26.2.1, SVG Export Plug-In . SVG Version: 6.00 Build 0)  -->
<svg version="1.1" id="Layer_1" xmlns="http://www.w3.org/2000/svg" xmlns:xlink="http://www.w3.org/1999/xlink" x="0px" y="0px"
	 viewBox="0 0 1694 278" style="enable-background:new 0 0 1694 278;" xml:space="preserve">
<style type="text/css">
	.st0{fill:#F4E631;}
	.st1{fill:#8FCCD1;}
	.st2{fill:none;stroke:#020202;stroke-miterlimit:10;}
</style>
<g id="Group_866" transform="translate(-56.203 -40.052)">
	<path id="Path_817" class="st0" d="M1197.83,243.14c-1.35-1.44-2.22-3.25-2.52-5.2c-1.16-8.86,12.07-16.78,14.12-18.02
		c5.67-3.52,12.11-5.64,18.78-6.19c3.58-0.25,11.38-0.8,14.72,2.8c3.52,3.79,0.32,9.91-1.6,12.15c-4.7,5.47-17.22,16.58-32.95,16.94
		c-1.72,0.09-3.44-0.03-5.12-0.36C1201.33,244.89,1199.49,244.18,1197.83,243.14"/>
	<path id="Path_818" class="st1" d="M1206.05,221.99c0,0-11.63-13.45-8.6-17.69s7.43-7.83,12.04-3.27c4.61,4.56,2.97,9.43,3.2,10.75
		c0.24,1.32,0.13,6.55,0.13,6.55L1206.05,221.99z"/>
	<path id="Path_819" class="st1" d="M1200.94,226.84c0,0-28.7-1.2-26.99-9.27s17.69-3.47,19.84-2.07c2.15,1.4,12.27,6.5,12.27,6.5
		S1201,226.83,1200.94,226.84"/>
	<path id="Path_820" d="M1195.95,241.46l-5.84,6.15l8.96-3.39L1195.95,241.46z"/>
	<path id="Path_821" d="M1199.1,228.25c0,0,5.5,15.61,19.32,15.18l1.41,0.19l6.86-3.06c0,0-24.17-11.18-23.44-16.17L1199.1,228.25z"
		/>
	<path id="Path_822" d="M1209.43,219.93l5.23-2.52c0,0,9.47,10.42,21.75,16.38l-4.8,3.76c0,0-11.5-2.2-15.75-8.2
		C1211.63,223.36,1209.43,219.92,1209.43,219.93"/>
	<path id="Path_823" class="st2" d="M1225.48,213.93c0,0-4.95-7.79-9.27-3.75c0,0,0.1,4.08,2.15,1.4c0,0-0.24-1.32-1.3-0.2"/>
	<path id="Path_824" class="st2" d="M1231.05,213.57c0,0,3.08-5.55-2.43-8.11c-5.52-2.56-6.1,1.2-6.1,1.2
		c0.03,0.13,0.06,0.26,0.11,0.38c0.07,0.19,0.16,0.37,0.27,0.54c0.37,0.54,1.06,0.93,2.3-0.08c0,0-0.16-0.88-1.38-0.64
		c-1.22,0.24-0.92,0.72-0.92,0.72"/>
</g>
<g id="Group_867" transform="translate(-56.203 -40.052)">
	<path id="Path_825" class="st0" d="M915.66,143.72c-0.9-0.95-1.52-2.12-1.81-3.39c-1.27-5.87,5.86-11.55,6.97-12.43
		c2.99-2.48,6.62-4.1,10.48-4.69c2.06-0.27,6.54-0.87,8.73,1.43c2.3,2.42,0.86,6.59-0.1,8.14c-2.35,3.79-8.87,11.57-17.97,12.27
		c-1,0.11-2,0.08-2.99-0.09C917.79,144.78,916.67,144.35,915.66,143.72"/>
	<path id="Path_826" class="st1" d="M919,129.38c0,0-7.65-8.62-6.19-11.53s3.78-5.44,6.76-2.54c2.98,2.9,2.36,6.2,2.59,7.07
		c0.23,0.87,0.52,4.36,0.52,4.36L919,129.38z"/>
	<path id="Path_827" class="st1" d="M916.36,132.76c0,0-16.73,0.06-16.29-5.37c0.44-5.43,10.03-2.85,11.37-1.98
		c1.34,0.87,7.56,3.96,7.56,3.96S916.39,132.76,916.36,132.76"/>
	<path id="Path_828" d="M914.46,142.66l-2.97,4.27l4.97-2.53L914.46,142.66z"/>
	<path id="Path_829" d="M915.39,133.76c0,0,4.25,10.24,12.23,9.53l0.83,0.08l3.77-2.25c0,0-14.78-6.73-14.69-10.07L915.39,133.76z"
		/>
	<path id="Path_830" d="M920.82,127.9l2.87-1.84c0,0,6.2,6.66,13.73,10.27l-2.53,2.65c0,0-6.82-1.12-9.69-4.99
		C922.33,130.13,920.82,127.9,920.82,127.9"/>
	<path id="Path_831" class="st2" d="M929.72,123.43c0,0-3.4-5.04-5.63-2.22c0,0,0.34,2.71,1.34,0.87c0,0-0.23-0.87-0.77-0.1"/>
	<path id="Path_832" class="st2" d="M932.93,122.28c0,0,1.41-3.31-1.96-4.65c-3.37-1.34-3.46,0.86-3.46,0.86
		c0.02,0.07,0.05,0.15,0.09,0.22c0.05,0.11,0.12,0.21,0.2,0.31c0.25,0.3,0.68,0.51,1.33-0.11c-0.1-0.28-0.44-0.44-0.77-0.36
		c-0.03,0.01-0.05,0.01-0.08,0.02c-0.69,0.17-0.49,0.44-0.49,0.44"/>
</g>
<g id="Group_828" transform="translate(-56.203 -40.052)">
	<path id="Path_833" class="st0" d="M1488.28,83.83c-0.11-1.96-0.61-3.89-1.49-5.65c-4.13-8.14-15.08-8.58-16.78-8.65
		c-4.6-0.33-9.16,0.99-12.85,3.72c-1.95,1.5-6.21,4.78-6,9.46c0.23,4.93,5.11,8.64,7.28,9.63c5.31,2.43,17.59,5.93,25.79-1.32
		c0.95-0.78,1.77-1.72,2.41-2.77C1487.47,86.9,1488.02,85.4,1488.28,83.83"/>
	<path id="Path_834" class="st1" d="M1472.83,69.67c0,0-1.25-17.1-5.04-19.27c-3.79-2.17-7.95-3.14-7.87,2.98
		c0.08,6.11,3.51,9.5,4.09,10.74s3.42,5.67,3.42,5.67L1472.83,69.67z"/>
	<path id="Path_835" class="st1" d="M1478.02,71.37c0,0,13.96-14.8,8.8-20.9c-5.16-6.09-10.85,5.52-11.2,7.75
		s-2.78,11.45-2.78,11.45S1477.99,71.39,1478.02,71.37"/>
	<path id="Path_836" d="M1488.35,81.49l6.25,2.46l-6.37,1.39L1488.35,81.49z"/>
	<path id="Path_837" d="M1479.71,71.69c0,0,5.52,16-1.75,22.26l-0.62,0.84l-5.12,0.67c0,0,6.35-21.18,3.32-25.09L1479.71,71.69z"/>
	<path id="Path_838" d="M1470.02,69.53l-4.01,0.35c0,0,0.73,13.47-2.35,24.47l4.45,0.92c0,0,4.68-7.41,3.65-14.57
		S1470.02,69.53,1470.02,69.53"/>
	<path id="Path_839" class="st2" d="M1458.66,72.1c0,0-1.63-9.04,2.72-7.66c0,0,2.12,3.54-0.35,2.23c0,0-0.58-1.24,0.55-0.79"/>
	<path id="Path_840" class="st2" d="M1455.63,74.46c0,0-4.52-3.27-3.08-8.11c1.45-4.84,3.74-1.9,3.74-1.9s0.07,0.16,0.15,0.38
		c0.07,0.19,0.12,0.39,0.15,0.59c0.1,0.64-0.05,1.3-1.21,1.03c-0.22-0.43-0.06-0.97,0.36-1.21c0.75-0.38,0.85,0.18,0.85,0.18"/>
</g>
<g id="Group_868" transform="translate(-56.203 -40.052)">
	<path id="Path_841" class="st0" d="M318.68,304.42c-0.1-1.97-0.61-3.89-1.49-5.66c-4.13-8.14-15.07-8.58-16.78-8.65
		c-4.6-0.33-9.16,0.99-12.85,3.72c-1.95,1.5-6.21,4.78-6,9.46c0.23,4.93,5.11,8.64,7.28,9.63c5.31,2.43,17.59,5.93,25.79-1.32
		c0.95-0.78,1.77-1.72,2.41-2.77C317.87,307.48,318.42,305.98,318.68,304.42"/>
	<path id="Path_842" class="st1" d="M303.23,290.26c0,0-1.25-17.1-5.04-19.27c-3.8-2.17-7.95-3.14-7.87,2.98
		c0.08,6.11,3.51,9.5,4.09,10.74c0.58,1.24,3.42,5.67,3.42,5.67L303.23,290.26z"/>
	<path id="Path_843" class="st1" d="M308.41,291.95c0,0,13.96-14.8,8.8-20.9c-5.16-6.09-10.85,5.52-11.2,7.75
		c-0.35,2.23-2.78,11.45-2.78,11.45S308.38,291.98,308.41,291.95"/>
	<path id="Path_844" d="M318.74,302.08l6.25,2.46l-6.37,1.39L318.74,302.08z"/>
	<path id="Path_845" d="M310.1,292.28c0,0,5.52,16-1.75,22.26l-0.62,0.84l-5.12,0.67c0,0,6.35-21.18,3.32-25.09L310.1,292.28z"/>
	<path id="Path_846" d="M300.41,290.12l-4.01,0.35c0,0,0.73,13.47-2.35,24.47l4.45,0.92c0,0,4.68-7.41,3.65-14.57
		C301.11,294.11,300.4,290.12,300.41,290.12"/>
	<path id="Path_847" class="st2" d="M289.05,292.68c0,0-1.63-9.04,2.72-7.66c0,0,2.12,3.54-0.35,2.23c0,0-0.58-1.24,0.55-0.79"/>
	<path id="Path_848" class="st2" d="M286.02,295.05c0,0-4.52-3.27-3.08-8.11s3.74-1.9,3.74-1.9c0.06,0.12,0.11,0.25,0.15,0.38
		c0.07,0.19,0.12,0.39,0.15,0.59c0.1,0.64-0.05,1.3-1.21,1.03c-0.22-0.43-0.06-0.97,0.36-1.21c0.75-0.38,0.85,0.18,0.85,0.18"/>
</g>
<g id="Group_869" transform="translate(-56.203 -40.052)">
	<path id="Path_849" class="st0" d="M76.52,79.99c0.1-1.96,0.6-3.89,1.48-5.66c4.13-8.14,15.07-8.58,16.78-8.65
		c4.6-0.33,9.16,0.99,12.85,3.72c1.95,1.5,6.21,4.78,6,9.46c-0.23,4.93-5.11,8.64-7.28,9.63c-5.3,2.43-17.59,5.92-25.78-1.32
		c-0.95-0.78-1.77-1.72-2.41-2.77C77.33,83.06,76.78,81.56,76.52,79.99"/>
	<path id="Path_850" class="st1" d="M91.97,65.83c0,0,1.25-17.1,5.04-19.27c3.8-2.17,7.95-3.14,7.87,2.98
		c-0.08,6.11-3.51,9.5-4.09,10.74c-0.58,1.24-3.42,5.67-3.42,5.67L91.97,65.83z"/>
	<path id="Path_851" class="st1" d="M86.79,67.53c0,0-13.96-14.8-8.8-20.9c5.16-6.09,10.86,5.52,11.2,7.75s2.78,11.45,2.78,11.45
		S86.82,67.56,86.79,67.53"/>
	<path id="Path_852" d="M76.45,77.65l-6.25,2.47l6.37,1.39L76.45,77.65z"/>
	<path id="Path_853" d="M85.09,67.85c0,0-5.52,16,1.75,22.26l0.62,0.84l5.12,0.67c0,0-6.35-21.18-3.32-25.09L85.09,67.85z"/>
	<path id="Path_854" d="M94.79,65.69l4.01,0.35c0,0-0.73,13.47,2.35,24.47l-4.45,0.92c0,0-4.68-7.41-3.65-14.57
		C94.08,69.69,94.79,65.69,94.79,65.69"/>
	<path id="Path_855" class="st2" d="M106.15,68.26c0,0,1.63-9.04-2.72-7.66c0,0-2.12,3.54,0.35,2.23c0,0,0.58-1.24-0.55-0.79"/>
	<path id="Path_856" class="st2" d="M109.17,70.63c0,0,4.52-3.27,3.08-8.11s-3.74-1.9-3.74-1.9c-0.06,0.12-0.11,0.25-0.15,0.38
		c-0.07,0.19-0.12,0.39-0.15,0.59c-0.1,0.64,0.05,1.3,1.21,1.03c0.22-0.43,0.06-0.97-0.36-1.21c-0.75-0.38-0.85,0.18-0.85,0.18"/>
</g>
<g id="Group_829" transform="translate(-56.203 -40.052)">
	<path id="Path_857" class="st0" d="M1698.03,254.27c-0.88-1.89-1.31-3.95-1.26-6.03c0.35-9.62,11.99-15.27,13.8-16.15
		c4.86-2.51,10.39-3.44,15.81-2.65c2.88,0.48,9.15,1.52,11.29,6.03c2.25,4.74-1.16,10.56-3.01,12.53
		c-4.52,4.82-16.06,13.98-28.6,11.08c-1.41-0.27-2.76-0.76-4.01-1.45C1700.49,256.79,1699.13,255.64,1698.03,254.27"/>
	<path id="Path_858" class="st1" d="M1707.59,233.58c0,0-7.31-16.66-4.3-20.52c3.01-3.86,7.03-6.75,10.04-0.96
		c3.01,5.78,1,10.6,1,12.05s-0.83,6.96-0.83,6.96L1707.59,233.58z"/>
	<path id="Path_859" class="st1" d="M1702.84,237.65c0,0-22.62-7.24-20.12-15.43s14.55,0,16.06,1.93c1.51,1.93,8.81,9.43,8.81,9.43
		S1702.88,237.66,1702.84,237.65"/>
	<path id="Path_860" d="M1696.77,252.1l-5.52,5.3l7.6-1.73L1696.77,252.1z"/>
	<path id="Path_861" d="M1701.17,238.76c0,0,2.13,17.68,13.17,20.09l1.09,0.49l5.89-1.81c0,0-17.6-16.87-16.3-21.99L1701.17,238.76z
		"/>
	<path id="Path_862" d="M1710.57,232.1l4.52-1.58c0,0,6.03,13,14.93,21.87l-4.36,2.99c0,0-8.82-4.72-11.33-11.95
		C1711.83,236.19,1710.58,232.1,1710.57,232.1"/>
	<path id="Path_863" class="st2" d="M1724.18,229.08c0,0-2.81-9.27-6.83-5.9c0,0-0.5,4.34,1.51,1.93c0,0,0-1.45-1-0.48"/>
	<path id="Path_864" class="st2" d="M1728.65,229.86c0,0,3.24-5.24-0.77-9.09c-4.01-3.86-5.02,0-5.02,0c0,0.14,0.01,0.29,0.03,0.43
		c0.03,0.21,0.07,0.42,0.14,0.63c0.22,0.65,0.71,1.2,1.84,0.39c0.01-0.53-0.42-0.96-0.95-0.96c-0.02,0-0.03,0-0.05,0
		c-1,0-0.84,0.57-0.84,0.57"/>
</g>
</svg>
