<?xml version="1.0" encoding="utf-8"?>
<!-- Generator: Adobe Illustrator 26.2.1, SVG Export Plug-In . SVG Version: 6.00 Build 0)  -->
<svg version="1.1" id="Layer_1" xmlns="http://www.w3.org/2000/svg" xmlns:xlink="http://www.w3.org/1999/xlink" x="0px" y="0px"
	 viewBox="0 0 1732 278" style="enable-background:new 0 0 1732 278;" xml:space="preserve">
<style type="text/css">
	.st0{clip-path:url(#SVGID_00000037668922223252918830000002629001502477434522_);}
	.st1{fill:#CC5A71;}
	.st2{fill:#070707;}
	.st3{fill:#050505;}
	.st4{clip-path:url(#SVGID_00000108287713157360415110000010098506327302823079_);}
	.st5{fill:#FBC1AC;}
	.st6{fill:none;stroke:#FBC1AC;stroke-width:2.9995;stroke-miterlimit:3.9993;}
	.st7{fill:none;stroke:#FBC1AC;stroke-width:2.9995;stroke-miterlimit:9.9983;}
	.st8{fill:none;stroke:#2D1611;stroke-width:0.9998;stroke-miterlimit:9.9983;}
	.st9{clip-path:url(#SVGID_00000098183280418722132220000004376757966088909475_);}
	.st10{fill:none;stroke:#FBC1AC;stroke-width:3;}
	.st11{fill:none;stroke:#FBC1AC;stroke-width:3;stroke-miterlimit:10;}
	.st12{fill:none;stroke:#2D1611;stroke-miterlimit:10;}
	.st13{clip-path:url(#SVGID_00000000220879661620137910000000647217464079537080_);}
	.st14{clip-path:url(#SVGID_00000173866636660458581210000008038280550735481255_);}
	.st15{clip-path:url(#SVGID_00000179645633872127872080000009375357047021266078_);}
	.st16{fill:none;stroke:#000000;stroke-width:2;stroke-miterlimit:10;}
	.st17{fill:#F5B6A6;}
	.st18{clip-path:url(#SVGID_00000024683186782243920150000001903128727878235545_);}
</style>
<g id="Group_790" transform="translate(370.581 221.412)">
	<g>
		<defs>
			<rect id="SVGID_1_" x="0.19" y="0.05" width="38.83" height="50.81"/>
		</defs>
		<clipPath id="SVGID_00000150090051377156823000000008098594477520224174_">
			<use xlink:href="#SVGID_1_"  style="overflow:visible;"/>
		</clipPath>
		<g id="Group_789" style="clip-path:url(#SVGID_00000150090051377156823000000008098594477520224174_);">
			<path id="Path_901" class="st1" d="M15.61,14.03c0,0-10.94,1.33-14.43,12.24c-2.94,8.62,0.77,18.1,8.78,22.42L22.7,22.18
				c0,0-2.64-2.22-1.98-3.49C20.72,18.69,15.01,16.09,15.61,14.03"/>
			<path id="Path_902" class="st1" d="M33.03,21.22c0,0,6.97,8.6,1.99,18.9C31.24,48.38,22,52.64,13.27,50.15l9.04-28.01
				c0,0,3.43,0.24,3.82-1.13C26.14,21.01,32.05,23.12,33.03,21.22"/>
			<path id="Path_903" class="st2" d="M23.52,10.39c0,0-6.01-0.97-8.42,4.61c0,0,0.54,3.33,5.11,4.67c0,0-0.48,3.39,3.73,3.76
				c0,0,2.04-0.36,1.92-0.85c0,0,6.49,1.58,7.1-0.12s2.04-4.97-2.52-8.97c0.88-2.62,3.26-4.44,6.01-4.61c0,0,2.16,1.7,2.52-0.61
				s-2.16-2.06-2.65-0.73c0,0-5.29,1.58-6.85,5.45l-4.93-2.06c1.09-2.91,0.69-6.17-1.08-8.73c0,0,0.96-1.58-0.6-2.06
				s-2.29,0.97-2.04,1.45c0.23,0.45,0.13,1.23,1.6,1.32c0.1,0.01,0.21,0.01,0.33,0.01C22.75,2.94,25.4,7.3,23.52,10.39"/>
			<path id="Path_904" class="st2" d="M7.77,22.39c0,0-1.56-1.82,0.96-2.91s2.28,2.42,2.28,2.42S9.57,24.57,7.77,22.39"/>
			<path id="Path_905" class="st2" d="M8.85,29.3c0,0,1.32-3.76,5.65-1.45c1.57,1.53,1.61,4.04,0.08,5.62
				c-0.03,0.03-0.05,0.06-0.08,0.08C11.74,36.57,7.05,32.45,8.85,29.3"/>
			<path id="Path_906" class="st2" d="M1.76,38.51c0.26-1.66,1.68-2.9,3.37-2.91c3.01-0.12,2.65,3.88,1.92,4.48
				S3.56,43.36,1.76,38.51"/>
			<path id="Path_907" class="st2" d="M20.82,34.45c0,0,1.32-3.76,5.65-1.45c1.57,1.53,1.61,4.04,0.08,5.62
				c-0.03,0.03-0.05,0.06-0.08,0.08C23.71,41.73,19.02,37.61,20.82,34.45"/>
			<path id="Path_908" class="st2" d="M29.78,31.78c0,0-1.56-1.82,0.96-2.91s2.29,2.42,2.29,2.42S31.59,33.96,29.78,31.78"/>
			<path id="Path_909" class="st2" d="M20.58,46.78c0.26-1.66,1.68-2.9,3.37-2.91c3.01-0.12,2.65,3.88,1.92,4.48
				S22.38,51.63,20.58,46.78"/>
			<path id="Path_910" class="st3" d="M10.32,47.84l3.37,1.45l7.82-24.6L10.32,47.84"/>
		</g>
	</g>
</g>
<g id="Group_792" transform="matrix(0.883, -0.469, 0.469, 0.883, 1282.067, 194.779)">
	<g>
		<defs>
			
				<rect id="SVGID_00000125586766388861250070000000884283956205421459_" x="0.15" y="21.45" transform="matrix(0.8832 -0.4691 0.4691 0.8832 -18.6753 21.5596)" width="67.59" height="53.63"/>
		</defs>
		<clipPath id="SVGID_00000031927085353681036910000017002476563915808402_">
			<use xlink:href="#SVGID_00000125586766388861250070000000884283956205421459_"  style="overflow:visible;"/>
		</clipPath>
		
			<g id="Group_791" transform="translate(0 21.313)" style="clip-path:url(#SVGID_00000031927085353681036910000017002476563915808402_);">
			<path id="Path_911" class="st1" d="M29.89,53.63c0,0-24.73-2.93-18.33-35.84c0,0,13.26-30.72,36.35-6.76
				c2.92,4.42,4.62,9.53,4.92,14.81c0.61,11.05-5,22.04-13.11,26.15C36.69,53.51,33.26,54.08,29.89,53.63"/>
			<path id="Path_912" class="st5" d="M52.69,23.64c0,0,1.19,0.73,4.62-10.6c0,0,8.94-13.9,10.43,9.51c0,0-3.43,20.3-22.65,29.8
				c0,0-6.56,1.28-7.45,0.37S52.99,42.65,52.69,23.64"/>
			<path id="Path_929" class="st6" d="M60.26,10.12L54.55-5.96"/>
			<line id="Line_79" class="st7" x1="64.08" y1="9.47" x2="67.14" y2="0.79"/>
			<path id="Path_913" class="st5" d="M23.58,51.76c0,0-12.38-3.7-16.7-3.7s-12.07-3.29-1.19-7.31l6.13-2.38
				C11.81,38.36,15.55,48.33,23.58,51.76"/>
			<path id="Path_914" class="st8" d="M32.5,31.96c0,0-4.77,8.23-8.34-2.01c0,0-1.79-13.17,11.92-11.15c0,0,11.32,7.86,1.34,22.12
				s-21.01-7.31-21.01-7.31S12.83,14.23,28.77,8.37c0,0,14.15-1.65,16.69,9.87c0,0,3.73,8.78,2.53,16.64
				c-0.57,4.47-2.38,8.69-5.22,12.18"/>
		</g>
	</g>
</g>
<g id="Group_798" transform="translate(503.261 5.245) rotate(28)">
	<g>
		<defs>
			
				<rect id="SVGID_00000002364934662280464610000007553059202948975013_" x="10.42" y="11.03" transform="matrix(0.4695 -0.8829 0.8829 0.4695 -22.1564 56.2054)" width="50.54" height="71.01"/>
		</defs>
		<clipPath id="SVGID_00000052802181899377803400000006938439559453865913_">
			<use xlink:href="#SVGID_00000002364934662280464610000007553059202948975013_"  style="overflow:visible;"/>
		</clipPath>
		
			<g id="Group_791-2" transform="translate(0 21.313)" style="clip-path:url(#SVGID_00000052802181899377803400000006938439559453865913_);">
			<path id="Path_911-2" class="st1" d="M31.44,50.36c0,0-25.98-2.76-19.25-33.76c0,0,13.93-28.94,38.19-6.37
				c3.02,4.06,4.82,8.9,5.17,13.95c0.64,10.41-5.25,20.76-13.77,24.63C38.54,50.25,34.97,50.79,31.44,50.36"/>
			<path id="Path_912-2" class="st5" d="M55.39,22.11c0,0,1.25,0.69,4.85-9.99c0,0,9.39-13.09,10.96,8.96
				C68.05,33.61,59.26,43.98,47.4,49.15c0,0-6.89,1.21-7.83,0.35C38.64,48.63,55.7,40.02,55.39,22.11"/>
			<path id="Path_929-2" class="st10" d="M63.35,9.37l-6-15.15"/>
			<line id="Line_79-2" class="st11" x1="67.36" y1="8.75" x2="70.57" y2="0.57"/>
			<path id="Path_913-2" class="st5" d="M24.81,48.59c0,0-13.01-3.49-17.55-3.49c-4.54,0-12.68-3.1-1.25-6.89l6.44-2.25
				C12.45,35.97,16.37,45.37,24.81,48.59"/>
			<path id="Path_914-2" class="st12" d="M34.18,29.95c0,0-5.01,7.75-8.76-1.89c0,0-1.88-12.4,12.52-10.51c0,0,11.9,7.41,1.41,20.84
				S17.28,31.5,17.28,31.5S13.52,13.24,30.27,7.72c0,0,14.87-1.55,17.53,9.3c0,0,3.91,8.27,2.66,15.68
				c-0.66,4.28-2.57,8.28-5.49,11.48"/>
		</g>
	</g>
</g>
<g id="Group_799" transform="translate(1133.614) rotate(75)">
	<g>
		<defs>
			
				<rect id="SVGID_00000059303799127517228560000001283683748276033963_" x="-4.32" y="4.25" transform="matrix(0.9659 -0.2588 0.2588 0.9659 -5.9607 6.5074)" width="52.12" height="43.28"/>
		</defs>
		<clipPath id="SVGID_00000114070065104426523540000013755755926685178292_">
			<use xlink:href="#SVGID_00000059303799127517228560000001283683748276033963_"  style="overflow:visible;"/>
		</clipPath>
		<g id="Group_789-2" style="clip-path:url(#SVGID_00000114070065104426523540000013755755926685178292_);">
			<path id="Path_901-2" class="st1" d="M17.29,14.17c0,0-12.2,1.37-16.08,12.56s3.22,19.89,9.79,23l14.2-27.19
				c0,0-2.94-2.27-2.2-3.58C22.99,18.96,16.62,16.28,17.29,14.17"/>
			<path id="Path_902-2" class="st1" d="M36.7,21.55c0,0,7.77,8.83,2.21,19.39S21.74,53.21,14.68,51.23L24.76,22.5
				c0,0,3.82,0.25,4.26-1.16C29.02,21.34,35.61,23.5,36.7,21.55"/>
			<path id="Path_903-2" class="st2" d="M26.11,10.43c0,0-6.7-0.99-9.38,4.72c0,0,0.6,3.42,5.7,4.79c0,0-0.54,3.48,4.15,3.85
				c0,0,2.28-0.37,2.15-0.87c0,0,7.24,1.62,7.91-0.12c0.67-1.74,2.28-5.1-2.82-9.2c1.07-2.79,3.71-4.66,6.7-4.72
				c0,0,2.41,1.74,2.81-0.62c0.4-2.36-2.41-2.11-2.95-0.75c0,0-5.9,1.62-7.64,5.59l-5.5-2.11C28.46,8.01,28,4.6,26.04,2.04
				c0,0,1.07-1.61-0.67-2.11s-2.55,1-2.28,1.49c0.25,0.46,0.15,1.26,1.78,1.36c0.11,0.01,0.23,0.01,0.37,0.01
				C25.24,2.79,28.19,7.27,26.11,10.43"/>
			<path id="Path_904-2" class="st2" d="M8.55,22.75c0,0-1.74-1.87,1.07-2.98s2.55,2.49,2.55,2.49S10.56,24.98,8.55,22.75"/>
			<path id="Path_905-2" class="st2" d="M9.76,29.83c0,0,1.47-3.85,6.3-1.49c1.61,1.39,1.79,3.83,0.4,5.45
				c-0.12,0.14-0.25,0.27-0.4,0.4C12.97,37.29,7.75,33.06,9.76,29.83"/>
			<path id="Path_906-2" class="st2" d="M1.85,39.28c0.34-1.78,1.94-3.05,3.75-2.98c3.35-0.12,2.95,3.98,2.15,4.6
				S3.86,44.25,1.85,39.28"/>
			<path id="Path_907-2" class="st2" d="M23.1,35.12c0,0,1.47-3.85,6.3-1.49c1.61,1.39,1.79,3.83,0.4,5.45
				c-0.12,0.14-0.25,0.27-0.4,0.4C26.31,42.58,21.09,38.35,23.1,35.12"/>
			<path id="Path_908-2" class="st2" d="M33.08,32.38c0,0-1.74-1.87,1.07-2.98s2.55,2.49,2.55,2.49S35.1,34.62,33.08,32.38"/>
			<path id="Path_909-2" class="st2" d="M22.82,47.77c0.34-1.78,1.94-3.05,3.75-2.98c3.35-0.12,2.95,3.98,2.15,4.6
				S24.83,52.74,22.82,47.77"/>
			<path id="Path_910-2" class="st3" d="M11.39,48.86l3.75,1.49l8.71-25.24L11.39,48.86"/>
		</g>
	</g>
</g>
<g id="Group_800" transform="matrix(-0.891, -0.454, 0.454, -0.891, 1708.446, 277.844)">
	<g>
		<defs>
			
				<rect id="SVGID_00000102536624133626005310000004671850991643909781_" x="-6.76" y="6.61" transform="matrix(0.454 -0.891 0.891 0.454 -12.4513 30.3356)" width="50.58" height="37.43"/>
		</defs>
		<clipPath id="SVGID_00000011743393794915356230000008179807312534988948_">
			<use xlink:href="#SVGID_00000102536624133626005310000004671850991643909781_"  style="overflow:visible;"/>
		</clipPath>
		<g id="Group_789-3" style="clip-path:url(#SVGID_00000011743393794915356230000008179807312534988948_);">
			<path id="Path_901-3" class="st1" d="M14.68,13.95C8.12,15.07,2.74,19.78,0.77,26.14c-2.87,8.51,0.67,17.86,8.46,22.32
				l12.28-26.39c0,0-2.54-2.21-1.91-3.47C19.61,18.6,14.1,16,14.68,13.95"/>
			<path id="Path_902-3" class="st1" d="M31.47,21.11c0,0,6.72,8.57,1.91,18.82s-14.86,11.91-20.96,9.99l8.72-27.88
				c0,0,3.3,0.24,3.69-1.13C24.83,20.91,30.53,23.01,31.47,21.11"/>
			<path id="Path_903-3" class="st2" d="M22.31,10.33c0,0-5.8-0.97-8.11,4.59c0,0,0.52,3.32,4.93,4.64c0,0-0.46,3.38,3.59,3.74
				c0,0,1.97-0.36,1.85-0.84c0,0,6.26,1.57,6.84-0.12s1.97-4.95-2.43-8.93c0.81-2.57,3.11-4.39,5.8-4.59c0,0,2.09,1.69,2.43-0.6
				s-2.09-2.05-2.55-0.72c0,0-5.1,1.57-6.61,5.43l-4.75-2.05c1.05-2.9,0.66-6.12-1.04-8.69c0,0,0.92-1.57-0.58-2.05
				c-0.71-0.32-1.54,0-1.86,0.71c-0.1,0.23-0.14,0.49-0.11,0.74c0.22,0.45,0.13,1.22,1.54,1.32c0.1,0.01,0.2,0.01,0.32,0.01
				C21.56,2.91,24.11,7.26,22.31,10.33"/>
			<path id="Path_904-3" class="st2" d="M7.12,22.27c0,0-1.51-1.81,0.93-2.9s2.2,2.41,2.2,2.41S8.86,24.44,7.12,22.27"/>
			<path id="Path_905-3" class="st2" d="M8.17,29.15c0,0,1.28-3.74,5.45-1.45c1.55,1.57,1.55,4.1,0,5.67
				C10.95,36.39,6.43,32.29,8.17,29.15"/>
			<path id="Path_906-3" class="st2" d="M1.33,38.32c0.23-1.63,1.6-2.86,3.25-2.9c2.9-0.12,2.55,3.86,1.85,4.46
				S3.07,43.14,1.33,38.32"/>
			<path id="Path_907-3" class="st2" d="M19.71,34.28c0,0,1.27-3.74,5.45-1.45c1.55,1.57,1.55,4.1,0,5.67
				C22.49,41.52,17.97,37.42,19.71,34.28"/>
			<path id="Path_908-3" class="st2" d="M28.34,31.63c0,0-1.51-1.81,0.93-2.9s2.2,2.41,2.2,2.41S30.08,33.79,28.34,31.63"/>
			<path id="Path_909-3" class="st2" d="M19.47,46.56c0.23-1.63,1.6-2.86,3.25-2.9c2.9-0.12,2.55,3.86,1.85,4.46
				S21.21,51.38,19.47,46.56"/>
			<path id="Path_910-3" class="st3" d="M9.58,47.61l3.25,1.45l7.53-24.49L9.58,47.61"/>
		</g>
	</g>
</g>
<g id="Group_802" transform="matrix(0.891, -0.454, 0.454, 0.891, 0, 149.451)">
	<g>
		<defs>
			
				<rect id="SVGID_00000079466321439133553890000016808225018930600118_" x="0.14" y="0.13" transform="matrix(0.891 -0.454 0.454 0.891 -9.4503 14.7173)" width="51.57" height="53.82"/>
		</defs>
		<clipPath id="SVGID_00000039847265309901940150000008856337792694015116_">
			<use xlink:href="#SVGID_00000079466321439133553890000016808225018930600118_"  style="overflow:visible;"/>
		</clipPath>
		<g id="Group_801" style="clip-path:url(#SVGID_00000039847265309901940150000008856337792694015116_);">
			<path id="Path_944" class="st16" d="M12.02,19.41L5.7,19.24l-2.82-4.28l-2.72-0.56"/>
			<path id="Path_945" class="st16" d="M32.12,13.38l4.91-2.48l-0.21-4.73l2.19-2.14"/>
			<path id="Path_946" class="st16" d="M12.54,29.21l-4.18,0.11c0,0-0.42,7.44-6.48,8.34l-0.21,1.92"/>
			<path id="Path_947" class="st16" d="M16.2,36.87l-3.03,2.7c0,0,7.73,5.63,0.1,11.83l1.78,2.48"/>
			<path id="Path_948" class="st16" d="M36.46,20.76l3.03-1.24c0,0,3.03,5.97,8.67,5.07l0.63,1.69"/>
			<path id="Path_949" class="st16" d="M38.44,29.77l5.85,0.34c0,0-4.18,7.55,7.21,9.46l0.1,3.27"/>
			<path id="Path_950" class="st16" d="M14.73,7.24c0,0-0.31-1.69-3.13-0.56c0,0-0.73-2.59-1.78-2.03C9.6,5.52,10.12,6.41,11,6.64
				c0.2,0.05,0.4,0.06,0.6,0.04"/>
			<path id="Path_951" class="st16" d="M22.25,5.1c0,0,1.46-2.7,3.24-2.14c0,0,0.99-2.02-0.87-2.65c-0.05-0.02-0.11-0.04-0.17-0.05
				c-0.09-0.02-1.25,1.58,1.04,2.7"/>
			<path id="Path_952" d="M12.85,13.21c0,0,4.07-1.69,1.15-5.07c-1.7,1.02-2.26,3.23-1.24,4.93C12.79,13.12,12.82,13.16,12.85,13.21
				"/>
			<path id="Path_953" d="M23.93,5.89c0,0-0.73,4.73,3.66,3.49C27.58,9.38,26.85,5.44,23.93,5.89"/>
			<path id="Path_954" class="st17" d="M14,8.14c0,0,4.8-4.96,9.92-2.25c0,0-0.84,5.07,3.66,3.49c0.35,0.53,0.54,1.16,0.52,1.8
				c0,1.13-11.28,6.2-14.73,4.39l-0.52-2.37C12.85,13.21,17.13,10.96,14,8.14"/>
			<path id="Path_955" class="st17" d="M13.38,15.58c0,0-3.66,5.86,0.73,9.24c0,0,18.49-4.62,19.11-6.53s-1.15-7.32-5.12-7.1
				C28.1,11.18,18.8,17.71,13.38,15.58"/>
			<path id="Path_956" class="st17" d="M14.11,24.81c0,0-3.55,6.99,0.52,10.48c0,0,3.24,5.97,14.62,3.94
				c0.33-0.06,0.64-0.12,0.95-0.2c10.36-2.55,9.05-14.69,8.04-15.46c0,0-2.52-4.89-5.23-4.92C26.94,21.39,20.61,23.46,14.11,24.81"
				/>
			<path id="Path_957" d="M30.2,39.04c0,0-8.45-14.8-3.6-17.72l-8.24,2.47c0,0,4.73-0.32,5.25,1.03S30.2,39.04,30.2,39.04"/>
		</g>
	</g>
</g>
<g id="Group_803" transform="translate(1630.847 27.645) rotate(62)">
	<g>
		<defs>
			
				<rect id="SVGID_00000065036194376654753200000004877114003907915136_" x="-1" y="0.99" transform="matrix(0.8829 -0.4695 0.4695 0.8829 -9.535 15.2996)" width="53.82" height="51.57"/>
		</defs>
		<clipPath id="SVGID_00000014620191848590104250000001986117688961779619_">
			<use xlink:href="#SVGID_00000065036194376654753200000004877114003907915136_"  style="overflow:visible;"/>
		</clipPath>
		<g id="Group_801-2" style="clip-path:url(#SVGID_00000014620191848590104250000001986117688961779619_);">
			<path id="Path_944-2" class="st16" d="M12.01,19.14l-6.32-0.17l-2.82-4.28l-2.72-0.56"/>
			<path id="Path_945-2" class="st16" d="M32.11,13.11l4.91-2.48L36.81,5.9l2.19-2.14"/>
			<path id="Path_946-2" class="st16" d="M12.53,28.94l-4.18,0.11c0,0-0.42,7.44-6.48,8.34l-0.21,1.92"/>
			<path id="Path_947-2" class="st16" d="M16.18,36.6l-3.03,2.7c0,0,7.73,5.63,0.1,11.83l1.78,2.48"/>
			<path id="Path_948-2" class="st16" d="M36.45,20.49l3.03-1.24c0,0,3.03,5.97,8.67,5.07l0.63,1.69"/>
			<path id="Path_949-2" class="st16" d="M38.43,29.5l5.85,0.34c0,0-4.18,7.55,7.21,9.46l0.1,3.27"/>
			<path id="Path_950-2" class="st16" d="M14.72,6.97c0,0-0.31-1.69-3.13-0.56c0,0-0.73-2.59-1.78-2.03
				c-0.23,0.87,0.3,1.76,1.17,1.99c0.2,0.05,0.4,0.06,0.6,0.04"/>
			<path id="Path_951-2" class="st16" d="M22.24,4.83c0,0,1.46-2.7,3.24-2.14c0,0,0.99-2.02-0.87-2.65C24.55,0.02,24.5,0,24.44-0.01
				c-0.09-0.02-1.25,1.58,1.04,2.7"/>
			<path id="Path_952-2" d="M12.84,12.94c0,0,4.07-1.69,1.15-5.07c-1.7,1.02-2.26,3.23-1.24,4.93
				C12.78,12.85,12.81,12.9,12.84,12.94"/>
			<path id="Path_953-2" d="M23.92,5.62c0,0-0.73,4.73,3.66,3.49C27.57,9.11,26.84,5.17,23.92,5.62"/>
			<path id="Path_954-2" class="st17" d="M13.99,7.87c0,0,4.8-4.96,9.92-2.25c0,0-0.84,5.07,3.66,3.49c0.35,0.53,0.54,1.16,0.52,1.8
				c0,1.13-11.28,6.2-14.73,4.39l-0.52-2.37C12.84,12.94,17.12,10.69,13.99,7.87"/>
			<path id="Path_955-2" class="st17" d="M13.36,15.31c0,0-3.66,5.86,0.73,9.24c0,0,18.49-4.62,19.11-6.53s-1.15-7.32-5.12-7.1
				C28.09,10.91,18.79,17.45,13.36,15.31"/>
			<path id="Path_956-2" class="st17" d="M14.09,24.55c0,0-3.55,6.98,0.52,10.48c0,0,3.24,5.97,14.62,3.94
				c0.33-0.06,0.64-0.12,0.95-0.2c10.36-2.55,9.05-14.69,8.04-15.46c0,0-2.52-4.89-5.23-4.92C26.93,21.12,20.6,23.19,14.09,24.55"/>
			<path id="Path_957-2" d="M30.19,38.77c0,0-8.45-14.8-3.6-17.72l-8.24,2.47c0,0,4.73-0.32,5.25,1.03
				C24.12,25.9,30.19,38.77,30.19,38.77"/>
		</g>
	</g>
</g>
</svg>
