<?xml version="1.0" encoding="utf-8"?>
<!-- Generator: Adobe Illustrator 26.2.1, SVG Export Plug-In . SVG Version: 6.00 Build 0)  -->
<svg version="1.1" id="Layer_1" xmlns="http://www.w3.org/2000/svg" xmlns:xlink="http://www.w3.org/1999/xlink" x="0px" y="0px"
	 viewBox="0 0 1990 1126" style="enable-background:new 0 0 1990 1126;" xml:space="preserve">
<style type="text/css">
	.st0{fill:#EBEBEB;}
</style>
<g id="Layer_1_00000003083825188841799580000009431091566631237517_">
	<path id="Path_673" class="st0" d="M5,237.6L2.9,609.1l2003.9,1.4l2.1-78.3l-21-65.6h-21.8l-1-168.2l-8.3-16.4L1938,72.9
		l-20.8,212.6l-8.3,12.9v169.4l-30.6,1.4c1.9-13.4,1.6-26.9-0.8-40.3c-8.3-43.7-38.7-67.5-47.2-74.2c-7.6-5.9-52.1-39.3-105.4-20.4
		c-35.3,12.5-54.8,41-61.2,51.4l-110.8-67.4l-40.4,21.4l-2.1-67L1431.4,122l-101.7,213.7c-12.2-23.5-24.4-46.9-36.6-70.4l-17.1,39.1
		l-30.1,66.6l-122.7-225.7L979.8,435.1l-14.1-24.6l0.6-42l-19.7,8.3L939,257.1l-47.2-0.6L835.5,171l-0.8,252.6l-8.5,3.3l-80-233.7
		c-26.7,76.2-53.5,152.4-80.2,228.6l-64.4-34.9l0.3-229.9l-73.7-93.5l-71.6,95.8L454.8,404l-27.1,11.4l-179.6,5.8L168,285.5
		l-18.4,35.3l-2.3-78.5L76.6,164L5,237.6z"/>
</g>
<rect x="-173" y="522.6" class="st0" width="2330" height="730.9"/>
</svg>
