<?xml version="1.0" encoding="utf-8"?>
<!-- Generator: Adobe Illustrator 26.2.1, SVG Export Plug-In . SVG Version: 6.00 Build 0)  -->
<svg version="1.1" id="Layer_1" xmlns="http://www.w3.org/2000/svg" xmlns:xlink="http://www.w3.org/1999/xlink" x="0px" y="0px"
	 viewBox="0 0 1990 1126" style="enable-background:new 0 0 1990 1126;" xml:space="preserve">
<style type="text/css">
	.st0{fill:#FFFB15;}
	.st1{fill:none;stroke:#FFFF00;stroke-width:2;stroke-miterlimit:10;}
	.st2{fill:#FFF62A;}
	.st3{fill:none;stroke:#FFFF00;stroke-miterlimit:10;}
	.st4{fill:#EFFF1F;}
	.st5{fill:none;stroke:#7FA088;stroke-width:3;stroke-miterlimit:10;}
	.st6{fill:#CC5A71;}
	.st7{fill:#7FA088;}
	.st8{fill:#EDED26;}
	.st9{fill:#FFFFFF;}
</style>
<path id="Path_674" class="st0" d="M1644.59,84.88c0,0-10.69-11.4-8.8-31.1C1635.79,53.78,1647.06,67.7,1644.59,84.88"/>
<path id="Path_675" class="st0" d="M1648.69,98.93c0,0-6.83-18.97-0.1-34.26C1648.59,64.67,1655.3,86.3,1648.69,98.93"/>
<path id="Path_676" class="st0" d="M1659.34,150.45c0,0-2.67-21.88,6.8-31.2C1666.14,119.25,1668.16,143.47,1659.34,150.45"/>
<path id="Path_677" class="st0" d="M1661.94,166.92c0,0-2.01-22.05,7.75-30.35C1669.69,136.57,1670.99,160.88,1661.94,166.92"/>
<path id="Path_678" class="st0" d="M1665.06,184.67c0,0-2.01-22.05,7.75-30.35C1672.81,154.31,1674.1,178.63,1665.06,184.67"/>
<path id="Path_679" class="st0" d="M1651.73,116.03c0,0-4.46-21.04,4.03-33.02C1655.76,83.01,1659.78,106.57,1651.73,116.03"/>
<path id="Path_680" class="st0" d="M1655.3,136.24c0,0-4.31-21.14,4.27-32.9C1659.57,103.34,1663.42,126.98,1655.3,136.24"/>
<path id="Path_681" class="st0" d="M1647.84,99.22c0,0-12.06-1.94-15.11-21.65C1632.73,77.56,1645.9,81.37,1647.84,99.22"/>
<path id="Path_682" class="st0" d="M1650.55,115.97c0,0-12.06-1.94-15.11-21.65C1635.44,94.32,1648.61,98.13,1650.55,115.97"/>
<path id="Path_683" class="st0" d="M1655.2,137.05c0,0-12.06-1.94-15.11-21.66C1640.09,115.39,1653.26,119.2,1655.2,137.05"/>
<path id="Path_684" class="st0" d="M1659.35,157.3c0,0-12.06-1.94-15.11-21.65C1644.24,135.65,1657.41,139.45,1659.35,157.3"/>
<path id="Path_685" class="st0" d="M1662,175.07c0,0-12.06-1.94-15.11-21.65C1646.89,153.41,1660.06,157.22,1662,175.07"/>
<path id="Path_686" class="st0" d="M1663.71,201.25c0,0-11.29-9.01-10.73-29.12C1652.98,172.13,1665.01,183.54,1663.71,201.25"/>
<path id="Path_687" class="st0" d="M1666.16,200.52c0,0-1.18-20.33,7.65-25.16C1673.81,175.36,1674.3,197.53,1666.16,200.52"/>
<path id="Path_688" class="st1" d="M1644.59,84.88c0,0,23.85,103.23,20.31,117.05s27.33,72.8,16.74,299.22
	c0,0-9.66,103.63-0.47,143.23c0,0,25.49,121.92-2.31,183.39"/>
<path id="Path_689" class="st0" d="M1683.06,365.32c0,0,15.9-182.12,50.24-188.19c0,0-8.56-1.44-21.32,35.99
	s-24.93,133.08-24.93,133.08l-3.38,26.89L1683.06,365.32z"/>
<path id="Path_690" class="st0" d="M1678.19,638.75c0,0,6.22-161.69-76.5-200.62c0,0,39.28,17.93,58.87,90.15
	S1678.19,638.75,1678.19,638.75"/>
<path id="Path_691" class="st2" d="M636.79,344.53c0,0-7.22-13.61-1.31-32.02C635.49,312.51,642.69,328.69,636.79,344.53"/>
<path id="Path_692" class="st2" d="M637.49,359.02c0,0-2.12-19.89,7.22-32.85C644.71,326.17,646.16,348.59,637.49,359.02"/>
<path id="Path_693" class="st2" d="M636.12,411.08c0,0,2.26-21.64,12.8-28.18C648.92,382.9,645.57,406.61,636.12,411.08"/>
<path id="Path_694" class="st2" d="M634.95,427.51c0,0,2.89-21.63,13.48-27.13C648.43,400.38,644.41,424,634.95,427.51"/>
<path id="Path_695" class="st2" d="M633.97,445.29c0,0,2.89-21.63,13.48-27.13C647.46,418.16,643.43,441.79,633.97,445.29"/>
<path id="Path_696" class="st2" d="M636.59,376.17c0,0,0.47-21.29,10.69-30.62C647.28,345.55,645.88,369.14,636.59,376.17"/>
<path id="Path_697" class="st2" d="M635.49,396.43c0,0,0.62-21.34,10.88-30.44C646.38,365.99,644.81,389.62,635.49,396.43"/>
<path id="Path_698" class="st2" d="M636.66,359.08c0,0-10.48-4.9-9.02-24.55C627.64,334.53,638.73,341.5,636.66,359.08"/>
<path id="Path_699" class="st2" d="M635.54,375.82c0,0-10.48-4.9-9.02-24.55C626.52,351.27,637.6,358.24,635.54,375.82"/>
<path id="Path_700" class="st2" d="M635.23,397.19c0,0-10.48-4.9-9.02-24.55C626.21,372.63,637.29,379.6,635.23,397.19"/>
<path id="Path_701" class="st2" d="M634.66,417.64c0,0-10.48-4.9-9.02-24.55C625.64,393.08,636.72,400.05,634.66,417.64"/>
<path id="Path_702" class="st2" d="M633.26,435.33c0,0-10.48-4.9-9.02-24.55C624.24,410.78,635.32,417.74,633.26,435.33"/>
<path id="Path_703" class="st2" d="M629.21,460.85c0,0-8.27-11.48-3.47-30.61C625.74,430.25,634.17,444.21,629.21,460.85"/>
<path id="Path_704" class="st2" d="M631.58,460.76c0,0,3.27-19.78,12.28-22.18C643.87,438.58,639.57,459.95,631.58,460.76"/>
<path id="Path_705" class="st3" d="M636.79,344.53c0,0-0.5,104.92-6.65,117.27s9.14,76.63-48.77,290.92
	c0,0-30.85,96.86-31.01,137.12c0,0-3,123.24-41.24,175.13"/>
<path id="Path_706" class="st2" d="M620.03,576.57c0,0,12.64-148.33-62.62-188.22c0,0,35.76,18.43,50.91,85.8
	C623.48,541.52,620.02,576.57,620.03,576.57"/>
<path id="Path_707" class="st2" d="M620.03,576.57c0,0,20.82-123.52,39.93-134.01c-2.48,3.34-4.67,6.89-6.55,10.61
	c-5.03,9.63-8.77,19.89-11.1,30.5C638.51,500.26,630.35,533.05,620.03,576.57"/>
<path id="Path_708" class="st4" d="M1126.63,259.56c0,0-11.01-13.44-9.68-36.85C1116.95,222.71,1128.61,239.15,1126.63,259.56"/>
<path id="Path_709" class="st4" d="M1131.12,276.21c0,0-7.37-22.46-1.07-40.68C1130.05,235.53,1137.38,261.16,1131.12,276.21"/>
<path id="Path_710" class="st4" d="M1143.23,337.3c0,0-3.29-25.95,5.92-37.1C1149.15,300.2,1151.85,328.94,1143.23,337.3"/>
<path id="Path_711" class="st4" d="M1146.29,356.83c0,0-2.63-26.16,6.9-36.11C1153.19,320.72,1155.17,349.58,1146.29,356.83"/>
<path id="Path_712" class="st4" d="M1149.91,377.88c0,0-2.63-26.16,6.9-36.11C1156.81,341.77,1158.78,370.62,1149.91,377.88"/>
<path id="Path_713" class="st4" d="M1134.64,296.49c0,0-5.05-24.95,3.1-39.25C1137.74,257.24,1142.42,285.18,1134.64,296.49"/>
<path id="Path_714" class="st4" d="M1138.78,320.45c0,0-4.9-25.06,3.35-39.1C1142.13,281.35,1146.64,309.39,1138.78,320.45"/>
<path id="Path_715" class="st4" d="M1130.28,276.56c0,0-12.12-2.19-15.72-25.58C1114.55,250.98,1127.84,255.39,1130.28,276.56"/>
<path id="Path_716" class="st4" d="M1133.46,296.43c0,0-12.12-2.19-15.72-25.58C1117.74,270.85,1131.02,275.26,1133.46,296.43"/>
<path id="Path_717" class="st4" d="M1138.7,321.42c0,0-12.12-2.19-15.72-25.58C1122.98,295.84,1136.26,300.24,1138.7,321.42"/>
<path id="Path_718" class="st4" d="M1143.42,345.43c0,0-12.12-2.19-15.72-25.58C1127.7,319.85,1140.99,324.26,1143.42,345.43"/>
<path id="Path_719" class="st4" d="M1146.58,366.51c0,0-12.12-2.19-15.72-25.58C1130.86,340.93,1144.14,345.33,1146.58,366.51"/>
<path id="Path_720" class="st4" d="M1149.03,397.58c0,0-11.54-10.6-11.55-34.48C1145.4,372.8,1149.51,385.07,1149.03,397.58"/>
<path id="Path_721" class="st4" d="M1151.46,396.69c0,0-1.75-24.13,6.95-29.94C1158.4,366.75,1159.51,393.07,1151.46,396.69"/>
<path id="Path_722" class="st3" d="M1126.62,259.56c0,0,26.76,114.61,23.61,130.01s29.39,80.73,25.17,332.65
	c0,0-6.74,115.33,3.56,159.31c0,0,28.94,135.38,2.85,203.98"/>
<path id="Path_723" class="st4" d="M1175.41,753.53c0,0-2.36-86.66-25.31-171.25c-12.08-44.54-29.88-88.51-56.04-118.95
	c0,0,42.15,71.22,51.9,113.5c9.75,42.28,17.83,73.95,20.5,100.62S1175.41,753.52,1175.41,753.53"/>
<path id="Path_724" class="st4" d="M1173.68,621.2c0,0-6.05-172.57,13.12-176.03c0,0-11.2,16.88-9.48,44.68L1173.68,621.2z"/>
<g id="Group_785" transform="translate(-797.171 198.002) rotate(-7)">
	<path id="Path_725" class="st4" d="M1314.47,348.18c0,0-9.13-14.92-4.73-37.91C1309.73,310.28,1319.12,328.26,1314.47,348.18"/>
	<path id="Path_726" class="st4" d="M1315.5,365.33c0,0-4.34-23.32,4.3-40.44C1319.8,324.89,1323.68,351.33,1315.5,365.33"/>
	<path id="Path_727" class="st4" d="M1317.84,427.6c0,0,0.16-26.18,10.75-35.88C1328.59,391.71,1327.49,420.57,1317.84,427.6"/>
	<path id="Path_728" class="st4" d="M1318.08,447.39c0,0,0.84-26.3,11.59-34.76C1329.67,412.63,1327.83,441.5,1318.08,447.39"/>
	<path id="Path_729" class="st4" d="M1318.73,468.76c0,0,0.84-26.3,11.59-34.76C1330.32,434,1328.47,462.87,1318.73,468.76"/>
	<path id="Path_730" class="st4" d="M1315.69,385.93c0,0-1.72-25.45,8.24-38.42C1323.94,347.51,1324.89,375.87,1315.69,385.93"/>
	<path id="Path_731" class="st4" d="M1316.42,410.26c0,0-1.56-25.53,8.47-38.23C1324.89,372.03,1325.67,400.46,1316.42,410.26"/>
	<path id="Path_732" class="st4" d="M1316.2,365.55c0,0-11.72-3.94-12.2-27.63C1304,337.93,1316.58,344.23,1316.2,365.55"/>
	<path id="Path_733" class="st4" d="M1316.63,385.7c0,0-11.72-3.94-12.2-27.63C1304.43,358.07,1317.01,364.37,1316.63,385.7"/>
	<path id="Path_734" class="st4" d="M1318.15,411.21c0,0-11.72-3.94-12.2-27.63C1305.95,383.58,1318.53,389.88,1318.15,411.21"/>
	<path id="Path_735" class="st4" d="M1319.36,435.68c0,0-11.72-3.94-12.2-27.63C1307.16,408.05,1319.73,414.35,1319.36,435.68"/>
	<path id="Path_736" class="st4" d="M1319.64,457.01c0,0-11.72-3.94-12.2-27.63C1307.44,429.38,1320.01,435.68,1319.64,457.01"/>
	<path id="Path_737" class="st4" d="M1317.88,488.14c0,0-10.04-12.18-6.9-35.84C1317.54,463.03,1319.99,475.76,1317.88,488.14"/>
	<path id="Path_738" class="st4" d="M1318.09,487.61c0,0,1.44-24.16,10.82-28.64C1328.92,458.97,1326.55,485.19,1318.09,487.61"/>
	<path id="Path_739" class="st3" d="M1324.99,348.18c0,0,10.39,102.26,5.1,115.2c-5.29,12.94,17.75,73.29-21.85,290.54
		c0,0-22.9,98.89-18.88,138.13c0,0,9.62,120.48-25.86,176.66"/>
	<path id="Path_740" class="st4" d="M1308.24,783.55c0,0,9.07-86.17-2.51-173.29c-6.1-45.88-17.93-92.02-39.83-125.98
		c0,0,32.36,76.68,36.45,119.98c4.09,43.3,7.92,75.84,7.05,102.64S1308.24,783.55,1308.24,783.55"/>
	<path id="Path_741" class="st4" d="M1307.02,663.56c0,0,16.73-171.79,36.18-172.42c0,0-13.32,15.08-15.28,42.86L1307.02,663.56z"/>
</g>
<path id="Path_742" class="st2" d="M175.03,205.35c0,0-11.27-12-10.31-33.07C164.72,172.28,176.69,186.97,175.03,205.35"/>
<path id="Path_743" class="st2" d="M179.81,220.29c0,0-7.76-20.15-1.73-36.59C178.08,183.7,185.84,206.7,179.81,220.29"/>
<path id="Path_744" class="st2" d="M192.95,275.15c0,0-3.72-23.32,5.34-33.43C198.29,241.72,201.47,267.55,192.95,275.15"/>
<path id="Path_745" class="st2" d="M196.34,292.7c0,0-3.07-23.52,6.34-32.55C202.68,260.15,205.13,286.1,196.34,292.7"/>
<path id="Path_746" class="st2" d="M200.31,311.61c0,0-3.07-23.52,6.34-32.55C206.65,279.05,209.1,305,200.31,311.61"/>
<path id="Path_747" class="st2" d="M183.67,238.51c0,0-5.47-22.4,2.48-35.34C186.15,203.17,191.3,228.27,183.67,238.51"/>
<path id="Path_748" class="st2" d="M188.21,260.04c0,0-5.33-22.51,2.73-35.21C190.94,224.83,195.93,250.02,188.21,260.04"/>
<path id="Path_749" class="st2" d="M178.97,220.62c0,0-12.2-1.87-16.19-22.88C162.78,197.74,176.18,201.59,178.97,220.62"/>
<path id="Path_750" class="st2" d="M182.48,238.47c0,0-12.2-1.87-16.19-22.88C166.29,215.59,179.69,219.44,182.48,238.47"/>
<path id="Path_751" class="st2" d="M188.15,260.9c0,0-12.2-1.87-16.19-22.88C171.96,238.03,185.36,241.87,188.15,260.9"/>
<path id="Path_752" class="st2" d="M193.28,282.47c0,0-12.2-1.87-16.19-22.88C177.09,259.59,190.49,263.44,193.28,282.47"/>
<path id="Path_753" class="st2" d="M196.78,301.4c0,0-12.2-1.87-16.19-22.88C180.59,278.52,193.99,282.37,196.78,301.4"/>
<path id="Path_754" class="st2" d="M199.74,329.34c0,0-11.76-9.44-12.15-30.93C187.59,298.41,200.2,310.4,199.74,329.34"/>
<path id="Path_755" class="st2" d="M202.17,328.52c0,0-2.15-21.7,6.49-27C208.65,301.52,210.19,325.19,202.17,328.52"/>
<path id="Path_756" class="st3" d="M175.03,205.35c0,0,28.83,109.87,25.94,124.69s30.88,77.3,31.01,319.33c0,0-4.77,110.85,6.33,153
	c0,0,31.38,129.8,6.39,195.93"/>
<path id="Path_757" class="st2" d="M222.63,453.19c0,0-28.44-159.03-117.35-177.41c0,0,42.1,8.18,76.6,73.93
	S222.62,453.19,222.63,453.19"/>
<path id="Path_758" class="st2" d="M222.63,453.19c0,0-13.04-135.62,3.76-152.52c-1.62,4.26-2.9,8.65-3.8,13.12
	c-2.5,11.6-3.49,23.48-2.93,35.33C220.38,367.67,221.12,404.48,222.63,453.19"/>
<path id="Path_759" class="st5" d="M1438.67,824.55c0,0,11.35-135.8-1.85-202.76s4.16-211.32,37.18-232.14"/>
<path id="Path_760" class="st5" d="M1431.91,562.9c0,0-32.62-232.68-21.45-279.21c0,0-0.55-83.31,21.29-108.11"/>
<path id="Path_761" class="st5" d="M1436.84,618c0.31-21.78,2.86-43.46,7.62-64.72c5.21-22.87,11.33-49.76,23.02-51.33
	c7.84-1.06,14.75,9.73,19.41,17c12.96,20.24,14.88,44.95,15.26,54.97"/>
<path id="Path_762" class="st6" d="M1489.98,681.17c0,0,8.38-11.74,6.83-34.33s-2.65-55.32,4.71-56.86s12.49-10.45,19.29,13.33
	s18.74,55.48,28.09,49.54c0,0,1.03,6.64-16.03,9.1c0,0-5.57,35.9-8.43,36.16c0,0-11.98-7.28-19.41-23.42
	C1505.04,674.7,1496.26,689,1489.98,681.17"/>
<path id="Path_763" class="st6" d="M1541.51,410.18c0,0-8.14-13.65-21.18-10.86s-32.11,4.95-34.11-7.13s-7.98-20.42,4.98-31.85
	s29.83-31.39,24.96-46.7c0,0,3.75-1.76,7.71,26.25c0,0,21.91,8.78,22.49,13.46c0,0-2.51,19.78-10.89,32.15
	C1535.47,385.5,1545.17,399.78,1541.51,410.18"/>
<path id="Path_764" class="st6" d="M1441.04,160.38c0,0-2.92-34.25,37.12-53.2c0,0-4.03,41.64-26.96,58.97
	C1451.2,166.15,1442.7,176.21,1441.04,160.38"/>
<path id="Path_765" class="st7" d="M1408.46,332.69c0,0,13.58-39.15,32.08-12.28c0,0-23.69-5.64-29.86,19.1L1408.46,332.69z"/>
<path id="Path_766" class="st7" d="M1436.54,500.61c0,0,23.5-71.73,47.24-43.67c0,0,1.42-12.77-26.02-11.01
	c0,0-17.22,15.58-19.07,35.31L1436.54,500.61z"/>
<path id="Path_767" class="st7" d="M1484.2,515.89c0,0,25.17,4.3,31.38-22.39c0,0-1.64,34.68-16.42,28.5l-11.49-0.05L1484.2,515.89z
	"/>
<path id="Path_768" class="st7" d="M1447.89,539.14c0,0,23.13-25.42,28.92,25.4c0,0-7.14-20.37-12.27-19.89s-14.85-4.95-18.98,4.93
	L1447.89,539.14z"/>
<path id="Path_769" class="st7" d="M1431.92,178.08c0,0,10.27,7.45,9.87-6.83c0,0,12.84,11.41,20.19-6.96c0,0-11.18,12.85-19.79,4.4
	c0,0,12.03-17.14,11.63-23c0,0-11.63,14.57-13.63,18.97c-2.17-12.52-0.24-25.4,5.52-36.73c0,0-9.81,7.67-8.03,33.6
	C1437.67,161.53,1427.18,167.58,1431.92,178.08"/>
<path id="Path_770" class="st7" d="M1481.41,380.54c0,0,1.82-15.33-10.79-14.98c0,0,9.24-7.61,11.81,4.77s9.43,37,5.1,40.78
	s-6.05,3.94-6.05,3.94c4.6-5.8,6.01-13.51,3.76-20.57c0,0-9.24,7.61-11.58-1.43S1479.02,379.08,1481.41,380.54"/>
<path id="Path_771" class="st7" d="M1510.65,586.16c0,0,10.45,4.01,10.41-14.45c0,0,5.05,14.17-3.46,16.84s-25.44,10.52-27.95,3.86
	s-2.59-9.18-2.59-9.18s5.54,11.64,13.99,7.3c0,0-5.05-14.17,1.17-16.8S1511.68,582.78,1510.65,586.16"/>
<path id="Path_775" class="st6" d="M361.5,664.78c0,0,10.6-10.95,10.97-34.06s2.2-56.47,10.68-57.18s15.14-9.15,20.61,15.77
	s16.02,58.5,27.18,53.56c0,0,0.54,6.86-19.02,7.37c0,0-9.69,35.79-12.95,35.73c-8.84-6.72-15.68-15.72-19.79-26.04
	C379.18,659.95,367.88,673.45,361.5,664.78"/>
<path id="Path_776" class="st6" d="M445.36,395.66c0,0-7.94-14.8-22.98-13.48s-36.86,1.29-37.98-11.2s-7.13-21.65,8.64-31.75
	s36.76-28.4,32.67-44.51c0,0,4.41-1.36,6.28,27.54c0,0,24.01,11.46,24.23,16.28c0,0-4.7,19.78-15.37,31.37
	C440.84,369.91,450.5,385.53,445.36,395.66"/>
<path id="Path_777" class="st6" d="M354.96,130.4c0,0-0.1-35.11,47.06-49.69c0,0-8.48,41.81-36.1,56.73
	C365.93,137.44,355.35,146.67,354.96,130.4"/>
<g id="Group_872" transform="translate(0 -9.222)">
	<path id="Path_772" class="st5" d="M289.88,813.6c0,0,25.62-136.54,16.95-206.05c-8.68-69.51,24.57-214.05,63.95-231.34"/>
	<path id="Path_773" class="st5" d="M306.8,547.19c0,0-15.11-240,1.91-285.94c0,0,7.21-84.64,34.29-107.28"/>
	<path id="Path_778" class="st7" d="M301.85,310.76c0,0,19.07-38.17,37.51-8.74c0,0-26.32-8.48-35.64,15.92L301.85,310.76z"/>
	<path id="Path_779" class="st7" d="M317.9,484.49c0,0,33.37-70.09,57.65-38.84c0,0,2.81-12.79-28.46-14.2
		c0,0-20.98,13.82-24.93,33.63L317.9,484.49z"/>
	<path id="Path_780" class="st7" d="M370.48,505.55c0,0,28.12,7.29,37.66-19.09c0,0-5.12,35.02-21.29,27.03l-13.02-1.38
		L370.48,505.55z"/>
	<path id="Path_781" class="st7" d="M327.15,524.93c0,0,28.6-23.12,30.39,29.14c0,0-6.18-21.51-12.04-21.62
		c-5.86-0.1-16.37-6.76-21.97,2.8L327.15,524.93z"/>
	<path id="Path_782" class="st7" d="M342.96,156.53c0,0,10.94,8.75,11.82-5.79c0,0,13.48,13.08,23.54-4.73
		c0,0-13.87,11.74-22.85,2.17c0,0,15.24-16,15.34-21.99c0,0-14.55,13.44-17.23,17.68c-1.29-12.99,2.15-26,9.7-36.65
		c0,0-11.84,6.64-12.26,33.18C351.03,140.41,338.57,145.32,342.96,156.53"/>
	<path id="Path_783" class="st7" d="M380.03,367.81c0,0,3.5-15.35-10.82-16.46c0,0,11.19-6.65,12.94,6.22s7.21,38.66,1.94,41.99
		s-7.22,3.3-7.22,3.3c5.67-5.16,8.04-13.01,6.19-20.44c0,0-11.19,6.65-12.99-2.8S377.45,366.05,380.03,367.81"/>
	<path id="Path_784" class="st7" d="M393.85,579.95c0,0,11.46,5.28,13.16-13.46c0,0,4.39,14.97-5.5,16.69s-29.82,7.73-32.04,0.67
		s-2.08-9.62-2.08-9.62s5.18,12.46,15.17,9.03c0,0-4.39-14.97,2.9-16.92C392.76,564.4,395.34,576.64,393.85,579.95"/>
</g>
<path id="Path_785" class="st5" d="M987.7,1032.61c0,0-106.63-500.75-80.62-649.6c0,0-44.68-198.21-40.8-230.94"/>
<path id="Path_786" class="st8" d="M901.95,80.35c0,0-59.42,40.62-69.05-11.35c0,0,12.32-75.44,53.04-29.17
	C885.95,39.83,909.41,62.97,901.95,80.35"/>
<path id="Path_787" class="st6" d="M815.51,95.05c-6.59,10.07-12.31,20.68-17.1,31.72c-2.29,5.26-15.37,35.92-10.36,39.64
	c1.05,0.78,3.29,0.67,8.66-3.88c1.58-2.82,3.15-5.77,4.73-8.87c1.96-3.86,3.74-7.63,5.37-11.28c0,0-7.98,39.2,8.52,32.74
	c0,0,21.47-45.1,20.92-48.43c0,0-4.04,56.77,4.35,57.52c0,0,16.44,24.43,23.51-20.32l4.35-23.67c0,0,5.78,28.67,8.15,30.52
	c0,0,24.51,60.69,32.11,6.69c0,0-1.78-41.98-5.34-44.76c0,0,22.22,53.1,36.63,52.75s-8.55-57.9-8.55-57.9s25.4,41.08,32.24,38.69
	s-33.18-69.39-33.18-69.39s39.17,43.13,43,41.29s-24.85-37.75-24.85-37.75s32.29,7.8-3.31-19.98c0,0-34.15-14.63-41.79-6.79
	c0.04,2.35-0.52,4.67-1.62,6.74c-2.61,4.62-7.59,5.68-11.3,6.64c-17.61,4.56-16.04,9.11-26.35,9.4c-4.94,0.14-14.06,0.4-20.51-5.9
	c-9.2-8.98-9.73-18.21-9.99-28.53c-0.07-2.81-53.41,6.1-54.83,23.9c-0.17,2.2,0.47,7.59,3.52,9.53c3.84,2.43,9.14-2.15,10.21-0.73
	c0.75,1-0.81,4.64-9.83,15.52c-2.58,3.33-4.41,7.17-5.37,11.28c-0.17,0.75-2.08,8.94-0.35,10.36c2.3,1.88,12.91-6.76,48.37-51.18"/>
<path id="Path_788" class="st5" d="M905.78,379.18c0,0,31.89-48.66,23.65-73.45"/>
<path id="Path_789" class="st7" d="M945.04,278.28c0,0,12.06,22.95-8.45,30.14s-21.1-33.87-15.19-41.81c0,0,4.65-3.14,6.48,7.96
	c0,0,4.92-7.76,7.21-0.18C935.09,274.38,942.57,269.58,945.04,278.28"/>
<path id="Path_790" class="st8" d="M924,266.7c0,0,0.62-14.98,11.94-9.05c11.32,5.93,5.58,14.99,5.58,14.99s-6.02,1.1-6.43,1.75
	c0,0-3.7-6.76-7.2,0.18C927.89,274.56,925.01,266.51,924,266.7"/>
<path id="Path_791" class="st5" d="M1777.49,982.94c0,0,15.63-362.26,55.89-459.21c0,0,4.66-143.85,12.38-165.51"/>
<path id="Path_792" class="st8" d="M1879.43,315.82c0,0-43.28,16.72-40.77-20.61c0,0,19.87-49.3,37.48-10.07
	C1876.14,285.13,1886.86,305.32,1879.43,315.82"/>
<path id="Path_793" class="st9" d="M1823.69,309.79c-5.75,5.71-11.01,11.91-15.71,18.51c-2.27,3.17-15.33,21.7-12.84,25.18
	c0.52,0.73,1.92,1.07,5.97-1.04c1.43-1.63,2.89-3.36,4.36-5.19c1.84-2.28,3.55-4.52,5.15-6.71c0,0-11.3,25.32-0.07,23.98
	c0,0,20.59-26.85,20.79-29.23c0,0-11.73,38.07-6.67,40.14c0,0,6.18,19.77,17.81-9.52l6.53-15.38c0,0-1.1,20.68,0.07,22.39
	c0,0,5.26,46.06,18.73,10.55c0,0,5.73-29.04,3.98-31.6c0,0,5.08,40.45,14.03,42.88s4.14-41.18,4.14-41.18s9,32.82,13.6,32.45
	s-9.2-53.62-9.2-53.62s17.16,36.78,19.83,36.23s-9.2-30.44-9.2-30.44s18.66,11.34,1.21-14.28c0,0-18.7-16.36-24.69-12.42
	c-0.34,1.58-1.06,3.06-2.1,4.31c-2.36,2.67-5.61,2.48-8.06,2.44c-11.61-0.16-11.38,3.24-17.79,1.53c-3.07-0.82-8.74-2.34-11.7-7.85
	c-4.22-7.85-3.05-14.27-1.52-21.37c0.42-1.93-33.95-5.77-37.73,6.14c-0.47,1.47-0.95,5.27,0.62,7.17c1.97,2.38,5.99,0.23,6.42,1.4
	c0.3,0.82-1.25,3.02-8.59,8.79c-2.18,1.84-3.93,4.13-5.15,6.71c-0.23,0.48-2.74,5.73-1.9,7.02c1.12,1.72,9.07-2.22,38.18-26"/>
<path id="Path_794" class="st5" d="M1833.19,520.88c0,0,27.6-27.34,26.55-45.83"/>
<path id="Path_795" class="st7" d="M1873.83,459.18c0,0,3.72,17.93-10.12,19.04s-7.52-27.08-2.57-31.42c0,0,3.38-1.28,2.71,6.65
	c0,0,4.3-4.39,4.47,1.22C1868.33,454.67,1873.72,452.78,1873.83,459.18"/>
<path id="Path_796" class="st8" d="M1862.74,447.35c0,0,2.82-10.13,8.84-3.97s1.01,11.29,1.01,11.29s-3.89-0.36-4.25,0
	c0,0-1.19-5.31-4.47-1.22C1863.85,453.45,1863.39,447.41,1862.74,447.35"/>
<g id="Group_804" transform="translate(-32.42 60.758)">
	<path id="Path_797" class="st5" d="M1036.35,1051.18c-22.83-150.68-26.89-303.6-12.1-455.28l-14.28-162.43"/>
	<path id="Path_798" class="st8" d="M1046.41,380.7c0,0-52.48,26.76-56.08-14.32c0,0,16.51-57.52,46.26-18.38
		C1036.59,348,1054.03,367.82,1046.41,380.7"/>
	<path id="Path_799" class="st9" d="M975.98,395.09c-3.3,4.22-6.28,8.68-8.91,13.34c-1.76,3.1-13.86,24.47-9.95,29.91
		c1,1.39,4.01,3.08,15.42-3.36c4.21-4.68,8.44-9.45,12.69-14.31c2.7-3.1,5.37-6.18,8.01-9.27c3.96-4.62-6.78,43.7-1.03,44.95
		c0,0,9.65,20.26,17.68-13.88l4.67-18.01c0,0,1.98,22.69,3.49,24.32c0,0,12.68,49.01,21.73,7.75c0,0,1.72-32.7-0.55-35.14
		c0,0,11.64,42.95,21.62,43.83c9.99,0.88-1.84-45.58-1.84-45.58c26,21.91,33.1,24.32,34.6,22.21c2.26-3.17-6.91-18.14-12.82-26.13
		c-5.64-7.7-12.48-14.44-20.27-19.96l12.3,4.19c10.69,2.27,19.03,1.95,19.81-1.11c0.79-3.1-6.09-9.41-16.47-15.25
		c-5.21-2.46-10.65-4.38-16.24-5.74c-5.38-1.3-10.87-2.06-16.4-2.25c-0.13,1.8-0.67,3.55-1.59,5.1c-2.13,3.37-5.65,3.8-8.28,4.25
		c-12.5,2.13-11.73,5.78-18.88,5.19c-3.43-0.28-9.75-0.81-13.77-6.21c-1.72-2.42-3.08-5.08-4.03-7.88c-1.89-5.82-0.68-8.29-2.01-9.9
		c-2.69-3.24-10.73,3.1-24.19,11.82c-17.21,11.14-23.64,13.43-24.4,20.63c-0.34,3.19,0.43,7.37,2.66,9.44
		c8.23,7.66,31.89-17.53,33.03-18.76"/>
</g>
</svg>
