<?xml version="1.0" encoding="utf-8"?>
<!-- Generator: Adobe Illustrator 26.2.1, SVG Export Plug-In . SVG Version: 6.00 Build 0)  -->
<svg version="1.1" id="Layer_1" xmlns="http://www.w3.org/2000/svg" xmlns:xlink="http://www.w3.org/1999/xlink" x="0px" y="0px"
	 viewBox="0 0 1920 1005" style="enable-background:new 0 0 1920 1005;" xml:space="preserve">
<style type="text/css">
	.st0{fill:#7FA088;}
</style>
<g id="Group_870" transform="translate(-10.803 -426.554)">
	<path id="Path_875" class="st0" d="M-3.1,1148.3c654.2-1.8,1308.3-3.6,1962.5-5.5c0.2,93.7,0.4,187.4,0.6,281
		c-654.3,1-1308.6,1.9-1963,2.9C-3,1333.9-3.1,1241.1-3.1,1148.3z"/>
	<path id="Path_800" class="st0" d="M-3.1,1148.3l678,2.1v-109.3c0,0-4.6,35.9-8.7,38s-4.1-68.6,4.1-70.7c0,0-9.2,2.1-8.2,22.5
		c8.6-55.5,5.7-112.3-8.7-166.6c11,72.6,7.2,130.5,1.9,168.9c-2.8,20.5-7.5,45.7-8.5,45.9c-5.1,1.1,16.3-155.4,16.3-155.4
		s-42.8,168.2-41.7,169.3s5.1-106.1,17.3-132.9c0,0-24.4,58.9-32.6,98.6c0,0-8.2-48.2-11.2-49.3c-1.4,38.2-2,52.5-2,52.5
		c-0.2,0,10.1-257.5,6.6-257.7c-1.6-0.1-4.5,52.4-14.2,147.9c-4.8,46.9-9.4,85.8-12.7,113.1c-1.1-6.8-1.3-15.5-1.4-25.4
		c-0.1-13.1,0.9-27.1,5.5-30.3c0,0-8.2,3.2-9.2,39.7c0,0,0-111.5-2-111.5s-8.2,117.9-14.2,120c-6.1,2.1-10.2-42.9-10.2-42.9
		s-2,76.1-4.1,80.4c-2.3,4.8-8.7,17-11.2,16.1c-2.3-0.8-0.3-11.9,2.5-30.5c6.5-42.1,4.3-37.3,7.1-50.4c4.6-21.2,11.8-41.7,21.4-61.1
		l96.7-136.1c-24.1,25.9-43.8,49-59,67.5c0,0-76.3,92.9-75.8,133.4c0,0,0,0.2,0,0.2c-1,0.2-25.6-118.5-34.6-139.5
		c0,0,20.4,130.7,7.1,145.7c0,0-4.1,13.9-6.1,55.7c0,0-11.2-47.2,5.1-66.4c16.3-19.3,27.5-66.4,27.5-66.4s-37.7,62.2-39.7,62.2
		s-6.1-55.7-6.1-55.7l-6.1,79.3c0,0-8.1,24.7-10.2,24.7s-9.2-35.4-11.2-35.4v21.4c0,0-12.2-62.2-8.1-65.4c0,0-11.2,102.9-11.2,131.8
		c0,28.9-15.3-72.9-11.2-79.3s-6.1,13.9-5.1,17.2c0,0-4.1-11.8-3-43.9c0,0-15.3,62.1-14.2,62.1s-20.4-18.2-21.4-45
		c0,0-1,18.2,14.2,68.6c0,0-5.1,12.9-6.1,10.7s31.6-136.1,40.7-153.2s-54,100.7-54,122.2c0,0.5,0,1.4-0.3,1.5
		c-2.9,0.6-22.4-96-47-196c-8.4-34.2-20.5-81.2-36.6-137.2c18.2,100.6,36.3,201.1,54.5,301.7c27.2,150.8-1,37.5-3,38.6
		c-2,1.1-8.1-39.7-10.2-39.7s0,18.2-1,19.3c-1,1.1-12.2-112.5-11.2-112.5s-8.1,99.7-7.1,99.7s-6.1,19.3-7.1,19.3s-2-13.9-2-13.9
		s-9.2,27.9-13.2,28.9s14.2-61.1,13.2-64.3c-1-3.2-30.5,64.3-30.5,64.3s8.1-95.4,4.1-121.1c0,0-16.3,102.9-23.4,115.7
		s-4.1-80.4-13.2-128.6c0,0-6.1,98.6-7.1,99.7s-20.4-46.1-23.4-46.1s25.4,96.5,17.3,106.1l-31.6-174.7c0,0,3.1,93.2,1,95.4
		s-3.1-62.2-3.1-62.2s-4.1,39.7-5.1,41.8s-2-20.4-2-20.4s-1,43.9-5.1,49.3c-4.1,5.4-10.2,45-10.2,45l-2-107.2
		c0,0-13.2,85.7-16.3,85.7s-3.1-31.1,7.1-53.6c0,0,8.1-25.7,6.1-27.9s-13.2,33.2-15.3,33.2c-6.5,0-5.4-48.5-17.3-107.2
		c-11.1-54.9-28.8-95.3-30-94.8c-1.2,0.4,12.5,40.8,24.4,105c0,0,17.4,93.7,2.5,138.8c-0.3,0.9-8.2,24.7-8.2,24.7s0-28.9,2-32.2
		c0.2-0.2,0.2-0.3,0.3-0.3c0.3,0.2-6.3,18.6-10.4,18.6c-7.5-0.1-11.8-60.7-15.8-98.1C82.5,925.4,72,871.2,57,818.3
		c17.7,151.9,22,209.6,20.9,225.6c0,0.2-2,28.9-2,28.9s-12.2-19.3-11.2-35.4c1-16.1-3,68.6-3,68.6s-3,16.1-5.1,16.1
		s0-82.5,8.2-112.5c0,0,1-19.3,0-25.7c-1-6.4-9.2,58.9-15.3,58.9s-5.1-28.9-5.1-28.9s-3.1,28.9-5.1,61.1s-22.4,70.7-14.2,18.2
		s0-106.1,8.1-112.5c0,0-28.5,85.7-26.5,97.5s-9.2-39.7-7.1-39.7S-3.1,1148.3-3.1,1148.3"/>
	<path id="Path_801" class="st0" d="M618.3,1151.1l678,2.1v-109.3c0,0-4.6,35.9-8.7,38c-4.1,2.1-4.1-68.6,4.1-70.7
		c0,0-9.2,2.1-8.2,22.5l-2-42.9c0,0-8.1,90-13.2,91.1c-1.1,0.2,14.7-68.4,16.3-155.4c0.5-27.9-0.4-55.9-2.9-83.7
		c4.3,68.4-5.3,119-15.3,153.2c0,0-27.9,95.5-23.6,99.8c0,0,0,0,0,0c1,0,5.1-106.2,17.3-132.9c0,0-24.4,58.9-32.6,98.6
		c0,0-8.2-48.2-11.2-49.3c0,0-1,52.5-2,52.5s-7.1-132.9-5.1-132.9S1191,1068,1194,1068c0,0-5.1-49.3,4.1-55.7c0,0-8.2,3.2-9.2,39.7
		c0.6-113.1,0.6-201.5-0.9-201.6c-2.3,0-6.9,210.1-15.4,210.1c-3.8,0-10.2-42.9-10.2-42.9s-2,76.1-4.1,80.4s-10.2,16.1-11.2,16.1
		s-12.2-55.7,33.6-132.9l55.1-104.1c-67.4,108.6-95.8,156.2-95.8,159.8c0,0,0,0.2,0,0.2c-0.7,0.1-8.3-88.5-32.4-179.2
		c-7.1-26.6-14-47.6-18.3-60c21.2,80,29.1,163,23.3,245.5c0,0-4.1,13.9-6.1,55.7c0,0-11.2-47.2,5.1-66.4
		c16.3-19.3,27.5-66.4,27.5-66.4s-37.7,62.1-39.7,62.1s-6.1-55.7-6.1-55.7l-6.1,79.3c0,0-8.2,24.7-10.2,24.7s-9.2-35.4-11.2-35.4
		v21.4c0,0-12.2-62.2-8.2-65.4c0,0-11.2,102.9-11.2,131.8s-15.3-72.9-11.2-79.3s-6.1,13.9-5.1,17.2c0,0-4.1-11.8-3.1-43.9
		c0,0-15.3,62.1-14.2,62.1s-20.4-18.2-21.4-45c0,0-1,18.2,14.2,68.6c0,0-4.5,11.4-5.9,10.9c-0.1,0-0.2-0.1-0.2-0.2
		c-3.5-7.3,3.2-22.6,3.2-22.6c13.7-31.1,14.8-106.7,73.3-200.4c35-56,68.1-82.6,67.2-83.6c-1.6-1.6-89.4,71.1-120.1,152.2
		c-5.4,14.3-36.8,102-36.8,123.4c0,0.3,0,1.4-0.3,1.5c-4.8,1.4-60.8-200.8-60.8-200.8l31.6,169.3c0,0-1,37.5-3,38.6
		s-8.2-39.7-10.2-39.7s0,18.2-1,19.3c-1,1.1-12.2-112.5-11.2-112.5s-8.2,99.7-7.1,99.7s-6.1,19.3-7.1,19.3s-2-13.9-2-13.9
		s-9.2,27.9-13.2,28.9s14.2-61.1,13.2-64.3c-1-3.2-30.5,64.3-30.5,64.3c1.9-16,3.1-33,3.6-50.9c1.4-61.9-7.3-123.7-25.8-182.8
		c5.6,50.7,10.3,88.4,13.2,111.5c0,0,10.1,79-10.3,116.9c-0.2,0.4-0.7,1.2-1.3,1.2c-5.5-0.4-3.4-84.8-12-129.8
		c0,0-6.1,98.6-7.1,99.7s-20.4-46.1-23.4-46.1s25.5,96.5,17.3,106.1L807.1,949c0,0,3,93.2,1,95.4c-2,2.1-3-62.2-3-62.2
		s-4.1,39.7-5.1,41.8c0,0.1-0.1,0.2-0.1,0.1c-1.1,0,0.1-30.8-1.8-50.6c-1.5-16.3-6.2-38.4-20.4-64.3c5.7,19.6,9.8,39.7,12.2,60
		c1.8,15,2.2,30.8,3,62.1c0.3,10.8,0.3,15.5-0.2,21.5c-1.2,15.4-4.6,30.6-10.2,45l-2-107.2c0,0-13.2,85.7-16.3,85.7
		s-3-31.1,7.1-53.6c0,0,8.2-25.7,6.1-27.9s-13.2,33.2-15.3,33.2S746,942.6,745,921.2s-1,144.7-3,149s-8.2,24.7-8.2,24.7
		s0-28.9,2-32.2c0.2-0.2,0.2-0.3,0.3-0.3c0.3,0.2-7,19.1-10.4,18.6c-4.2-0.7-2-30.8-1.9-52.6c0.2-51-11-71.2-17.3-113.6
		c-4.5-30.3-6.9-74.2,4.1-130.7c-19.7,71.5-20,120.8-16.3,153.2c0,0,7.9,67.9,4.9,109.4l-2,28.9c0,0-12.2-19.3-11.2-35.4
		c1-16.1-3,68.6-3,68.6s-3,16.1-5.1,16.1s0-82.5,8.2-112.5c0,0,1-19.3,0-25.7s-9.2,58.9-15.3,58.9s-5.1-28.9-5.1-28.9
		s-3,28.9-5.1,61.1c-1.3,21.2-10.6,45.1-14.5,44c-2.1-0.6-0.6-16.6,0.2-25.8c2.8-30.2,6.5-74.2,11.3-141.6
		c-22.9,85.2-30.6,120.4-29.7,126.6c0,0,0.3,1.8,0.2,1.8c-0.3,0.1-9.2-41.4-7.4-41.4C622.9,1041.2,618.3,1151.1,618.3,1151.1"/>
	<path id="Path_802" class="st0" d="M1281.3,1154.2l678.1,2.1V1047c0,0-4.6,35.9-8.7,38c-4.1,2.1-4.1-68.6,4.1-70.7
		c0,0-9.2,2.1-8.2,22.5l-2-42.9c0,0-8.2,90-13.2,91.1c-5.1,1.1,16.3-155.4,16.3-155.4s-42.8,168.2-41.7,169.3s5.1-106.1,17.3-132.9
		c0,0-24.4,58.9-32.6,98.6c0,0-8.2-48.2-11.2-49.3c0,0-1,52.5-2,52.5s-7.1-132.9-5.1-132.9s-18.3,136.1-15.3,136.1
		c0,0-5.1-49.3,4.1-55.7c0,0-8.2,3.2-9.2,39.7c0,0,0-111.5-2-111.5s-8.2,117.9-14.2,120c-6.1,2.1-10.2-42.9-10.2-42.9
		s-2,76.1-4.1,80.4s-10.2,16.1-11.2,16.1s-12.2-55.7,33.6-132.9l24.4-50.4c0,0-65.2,100.7-65.2,106.1c0,0,0,0.2,0,0.2
		c-0.7,0.3-10.4-20.7-12.2-24.8c-15.7-35.6,1.1-89.9,7.1-109.3c5.3-17,12.1-33.5,20.4-49.3c-22.1,32.5-36.7,69.4-42.8,108.2
		c-4.1,27-4.1,54.4,0.1,81.4c0,0-4.1,13.9-6.1,55.7c0,0-11.2-47.2,5.1-66.4s27.5-66.4,27.5-66.4s-37.7,62.2-39.7,62.2
		s-6.1-55.7-6.1-55.7l-6.1,79.3c0,0-8.2,24.7-10.2,24.7s-9.2-35.4-11.2-35.4v21.4c0,0-12.2-62.2-8.2-65.4c0,0-11.2,102.9-11.2,131.8
		s-15.3-72.9-11.2-79.3s-6.1,13.9-5.1,17.2c0,0-4.1-11.8-3.1-43.9c0,0-15.3,62.2-14.2,62.2s-20.4-18.2-21.4-45c0,0-1,18.2,14.2,68.6
		c0,0-5.1,12.9-6.1,10.7s31.6-136.1,40.7-153.2s-54,100.7-54,122.2c0,0.5,0,1.4-0.3,1.5c-2.5,0.7-16.4-53.3-42.5-142.9
		c-11.7-40.3-15.1-50.7-15.3-69.7c-0.3-33.8,9.8-61.4,18.3-79.3c-16.8,30.7-20.7,56.1-21.4,72.9c-1.6,38.7,12.7,59.5,23.4,115.7
		c4.5,23.7,7.2,47.7,8.2,71.8c-0.2,28.1-1.6,37.8-3.1,38.6c-2,1.1-8.2-39.7-10.2-39.7s0,18.2-1,19.3c-1,1.1-12.2-112.5-11.2-112.5
		s-8.2,99.7-7.1,99.7s-6.1,19.3-7.1,19.3s-2-13.9-2-13.9s-9.2,27.9-13.2,28.9s14.2-61.1,13.2-64.3c-1-3.2-30.5,64.3-30.5,64.3
		s8.2-95.4,4.1-121.1c0,0-16.3,102.9-23.4,115.7s-4.1-80.4-13.2-128.6c0,0-6.1,98.6-7.1,99.7s-20.4-46.1-23.4-46.1
		s25.4,96.5,17.3,106.1l-31.6-174.7c0,0,3.1,93.2,1,95.4c-2,2.1-3.1-62.2-3.1-62.2s-4.1,39.6-5.1,41.8s-2-20.4-2-20.4
		s-1,43.9-5.1,49.3c-4.1,5.4-10.2,45-10.2,45l-2-107.2c0,0-13.2,85.7-16.3,85.7s-3.1-31.1,7.1-53.6c0,0,8.2-25.7,6.1-27.9
		s-13.2,33.2-15.3,33.2s-16.3-85.7-17.3-107.2s-1,144.7-3.1,149s-8.2,24.7-8.2,24.7s0-28.9,2-32.2c0.2-0.2,0.2-0.3,0.3-0.3
		c0.2,0.1-7.2,18.1-10.4,18.6c-9.6,1.2-34.3-143.3-60.1-311.8c28.7,199.9,34.7,262.7,33.7,277.5l-2,28.9c0,0-12.2-19.3-11.2-35.4
		s-3.1,68.6-3.1,68.6s-3.1,16.1-5.1,16.1s0-82.5,8.2-112.5c0,0,1-19.3,0-25.7s-9.2,58.9-15.3,58.9s-5.1-28.9-5.1-28.9
		s-3.1,28.9-5.1,61.1c-2,32.2-22.4,70.7-14.2,18.2s0-106.1,8.2-112.5c0,0-28.5,85.7-26.5,97.5s-9.2-39.7-7.1-39.7
		S1281.3,1154.2,1281.3,1154.2"/>
</g>
</svg>
