<svg xmlns="http://www.w3.org/2000/svg" xmlns:xlink="http://www.w3.org/1999/xlink" width="1920" height="538.03" viewBox="0 0 1920 538.03">
  <defs>
    <linearGradient id="linear-gradient" x1="0.5" y1="1" x2="0.5" gradientUnits="objectBoundingBox">
      <stop offset="0" stop-color="#241810" stop-opacity="0.992"/>
      <stop offset="0.581" stop-color="#56351e"/>
      <stop offset="1" stop-color="#110b06" stop-opacity="0"/>
    </linearGradient>
  </defs>
  <g id="Group_873" data-name="Group 873" transform="translate(0 -8138.27)">
    <path id="Path_279" data-name="Path 279" d="M0,538.03H1920V0H0Z" transform="translate(0 8138.27)" fill="url(#linear-gradient)"/>
    <g id="Group_818" data-name="Group 818" transform="translate(402.258 21)">
      <path id="Path_885" data-name="Path 885" d="M411.772,964.022l10.8-9.458q1.515,5.895,3.029,11.788l-6.147,10.875-9.988-4.661Z" transform="translate(-450.478 7596.38)" fill="#bab9b9"/>
      <path id="Path_886" data-name="Path 886" d="M562,936.717s-18.735-11.034-2.943-35.173-9.1-34.811-11.771-35.988-4.258-13.887,8.357-.626,20.118,13.954,10.958,39.17c0,0-11.653,11.491-7.454,22.582,0,0,9.378,5.983,8.573,9.632s-2.1,4.926-5.719.4" transform="translate(-448.019 7589.53)" fill="#fbc4ab"/>
      <path id="Path_887" data-name="Path 887" d="M1366.3,972.9s-9.227-20.4,16.916-30.491,11.691-33.944,10.16-36.527,4.154-13.923,7.163,4.574,8.752,23.628-12.571,38.628c0,0-15.819,2.286-18.484,13.891,0,0,4.366,10.588,1.705,13.076s-4.418,2.741-4.888-3.151" transform="translate(-433.2 7592.477)" fill="#fbc4ab"/>
      <path id="Path_888" data-name="Path 888" d="M184.647,842.149l-.769-20.2s24.588-8.544,26.125-5.437,13.062,12.428,13.062,12.428l-3.074,15.535H198.478l-6.147,10.875-9.988-4.661Z" transform="translate(-454.586 7586.442)" fill="#bab9b9"/>
      <path id="Path_889" data-name="Path 889" d="M774.491,875.072l-19.059,2.459s-10.1-25.095-7.287-26.961,10.7-14.721,10.7-14.721L773.8,837.8l1.761,22.57,10.8,5.558-3.595,10.861Z" transform="translate(-444.361 7587.875)" fill="#bab9b9"/>
      <path id="Path_890" data-name="Path 890" d="M1857.589,844.149l-.769-20.2s24.588-8.544,26.125-5.437,13.062,12.428,13.062,12.428l-3.074,15.535-17.257,12.86q-9.045-7.594-18.088-15.189" transform="translate(-429.299 7699.684)" fill="#bab9b9"/>
      <path id="Path_891" data-name="Path 891" d="M1587.341,962.913l7.908-20.175a68.585,68.585,0,0,0,15.271,5.358,67.563,67.563,0,0,0,15.24,1.612l-3.073,15.535-14.2-4.287-13.459,15.162Z" transform="translate(-429.174 7595.533)" fill="#bab9b9"/>
      <path id="Path_892" data-name="Path 892" d="M1203.8,883.757l-14.96-.034s-5.465-20.995-3.114-22.183,9.643-10.58,9.643-10.58l11.38,3.112-.746,18.117,7.827,5.544-3.792,8.254Z" transform="translate(-436.448 7588.958)" fill="#bab9b9"/>
      <path id="Path_893" data-name="Path 893" d="M1767.1,885.987c-1.263,2.487-21.614-1.3-26.069-12.964-2.726-7.141,1.683-14.145-2.883-18.469-2.783-2.635-7.472-2.922-7.436-4.87.017-.975,1.209-1.662,1.49-1.812,2.529-1.35,6.268.792,8.078,2.566,4.871,4.772,1,11.987,3.73,18.959,1.709,4.358,6.449,9.765,20.672,12.781,2.3,2.272,2.671,3.309,2.418,3.808" transform="translate(-426.58 7588.707)" fill="#fbc4ab"/>
      <path id="Path_894" data-name="Path 894" d="M101.012,985.878c-2.5-1-1.539-22.731,8.883-28.872,6.381-3.758,13.543-.05,17.034-5.37,2.127-3.242,1.8-8.173,3.639-8.386.921-.106,1.72,1.05,1.9,1.323,1.6,2.468.055,6.645-1.385,8.762-3.875,5.695-11.167,2.572-17.388,6.317-3.889,2.342-8.378,7.979-9.4,23.214-1.847,2.7-2.777,3.212-3.278,3.011" transform="translate(-456.078 7595.569)" fill="#fbc4ab"/>
    </g>
  </g>
</svg>
