<svg xmlns="http://www.w3.org/2000/svg" xmlns:xlink="http://www.w3.org/1999/xlink" width="827.271" height="90.88" viewBox="0 0 827.271 90.88">
  <defs>
    <clipPath id="clip-path">
      <rect id="Rectangle_1510" data-name="Rectangle 1510" width="45.929" height="42.133" fill="none"/>
    </clipPath>
    <clipPath id="clip-path-2">
      <rect id="Rectangle_1512" data-name="Rectangle 1512" width="28.095" height="30.913" fill="none"/>
    </clipPath>
  </defs>
  <g id="bees" transform="translate(-511.025 -492.801)">
    <g id="bee" transform="translate(520.503 498.951) rotate(13)">
      <g id="Group_844" data-name="Group 844" transform="translate(0 0)" clip-path="url(#clip-path)">
        <path id="Path_1104" data-name="Path 1104" d="M9.139,30.882a10.765,10.765,0,0,1-2.145-4.436C5.359,18.838,13.1,11.827,14.3,10.737a20.883,20.883,0,0,1,11.5-5.6c2.286-.268,7.262-.849,9.78,2.2,2.653,3.211,1.2,8.524.187,10.479C33.284,22.594,26.315,32.332,16.2,32.864a10.381,10.381,0,0,1-3.34-.236,10.093,10.093,0,0,1-3.721-1.746" transform="translate(8.844 7.291)" fill="#f4e631"/>
        <path id="Path_1105" data-name="Path 1105" d="M13.426,19.847S4.573,8.437,6.1,4.749s4.009-6.845,7.444-2.99,2.86,8.074,3.144,9.2.745,5.635.745,5.635Z" transform="translate(7.742 0.001)" fill="#8fccd1"/>
        <path id="Path_1106" data-name="Path 1106" d="M18.356,16.7S-.287,16.075,0,9.1,11.074,5.862,12.6,7.034s8.569,5.417,8.569,5.417S18.391,16.7,18.356,16.7" transform="translate(0.001 7.397)" fill="#8fccd1"/>
        <path id="Path_1107" data-name="Path 1107" d="M8.981,14.8,5.83,20.178l5.439-3.05Z" transform="translate(7.618 21.956)"/>
        <path id="Path_1108" data-name="Path 1108" d="M7.5,12.22S12.616,25.58,21.49,25l.93.144,4.117-2.73S9.816,13.139,9.788,8.84Z" transform="translate(9.803 13.117)"/>
        <path id="Path_1109" data-name="Path 1109" d="M10.033,8.6l3.126-2.245s7.16,8.832,15.683,13.789L26.12,23.452s-7.647-1.729-10.985-6.828-5.1-8.025-5.1-8.025" transform="translate(13.11 9.428)"/>
        <path id="Path_1110" data-name="Path 1110" d="M17.864,7.556S13.889.925,11.5,4.461c0,0,.477,3.5,1.527,1.172,0,0-.286-1.133-.858-.154" transform="translate(15.03 5.079)" fill="none" stroke="#020202" stroke-miterlimit="10" stroke-width="1"/>
        <path id="Path_1111" data-name="Path 1111" d="M19.316,9.51s1.432-4.821-2.383-6.942-3.818,1.118-3.818,1.118a2.783,2.783,0,0,0,.108.328,2.681,2.681,0,0,0,.228.459c.291.457.777.785,1.476-.1a.735.735,0,0,0-.955-.529c-.764.224-.521.633-.521.633" transform="translate(17.139 2.741)" fill="none" stroke="#020202" stroke-miterlimit="10" stroke-width="1"/>
      </g>
    </g>
    <g id="bee-2" data-name="bee" transform="matrix(1, 0.017, -0.017, 1, 1310.205, 492.801)">
      <g id="Group_848" data-name="Group 848" transform="translate(0 0)" clip-path="url(#clip-path-2)">
        <path id="Path_1120" data-name="Path 1120" d="M24.01,19.577a8.963,8.963,0,0,0-.809-3.649C20.746,10.74,13.666,10.8,12.566,10.81A13.324,13.324,0,0,0,4.14,13.647C2.834,14.69-.013,16.966,0,20.021c.013,3.217,3.079,5.482,4.456,6.062C7.826,27.5,15.69,29.4,21.192,24.4a8.184,8.184,0,0,0,1.637-1.884,8.811,8.811,0,0,0,1.181-2.943" transform="translate(0 3.222)" fill="#f4e631"/>
        <path id="Path_1121" data-name="Path 1121" d="M13.545,13.883S13.2,2.75,10.8,1.451s-5.065-1.8-5.178,2.2S7.64,9.742,7.983,10.535s2.061,3.6,2.061,3.6Z" transform="translate(0.841 0.152)" fill="#8fccd1"/>
        <path id="Path_1122" data-name="Path 1122" d="M15.824,14.98S25.268,4.863,22.088,1.045,14.909,5,14.624,6.463s-2.111,7.572-2.111,7.572,3.292.962,3.311.945" transform="translate(1.873 0)" fill="#8fccd1"/>
        <path id="Path_1123" data-name="Path 1123" d="M21,16.383l3.98,1.412-4.161,1.113Z" transform="translate(3.116 4.884)"/>
        <path id="Path_1124" data-name="Path 1124" d="M17.053,11.827s3.141,10.284-1.733,14.605L14.9,27l-3.333.6s4.68-14.039,2.827-16.5Z" transform="translate(1.731 3.309)"/>
        <path id="Path_1125" data-name="Path 1125" d="M11.553,10.809l-2.6.358a60.153,60.153,0,0,1-2.18,16.065l2.857.458s3.233-4.989,2.756-9.64-.829-7.241-.829-7.241" transform="translate(1.013 3.222)"/>
        <path id="Path_1126" data-name="Path 1126" d="M4.486,13.565S3.676,7.709,6.456,8.471c0,0,1.276,2.246-.285,1.467,0,0-.343-.793.381-.537" transform="translate(0.655 2.505)" fill="none" stroke="#020202" stroke-miterlimit="10" stroke-width="1"/>
        <path id="Path_1127" data-name="Path 1127" d="M2.973,15.275a4.75,4.75,0,0,1-1.775-5.2C2.264,6.867,3.672,8.711,3.672,8.711a2.3,2.3,0,0,1,.087.244,2.211,2.211,0,0,1,.08.38c.046.413-.064.854-.814.714a.628.628,0,0,1,.266-.8c.5-.271.548.088.548.088" transform="translate(0.143 2.439)" fill="none" stroke="#020202" stroke-miterlimit="10" stroke-width="1"/>
      </g>
    </g>
    <g id="bee-3" data-name="bee" transform="matrix(0.985, -0.174, 0.174, 0.985, 818.733, 526.102)">
      <g id="Group_848-2" data-name="Group 848" transform="translate(49.251 9.817)" clip-path="url(#clip-path-2)">
        <path id="Path_1120-2" data-name="Path 1120" d="M24.01,19.577a8.963,8.963,0,0,0-.809-3.649C20.746,10.74,13.666,10.8,12.566,10.81A13.324,13.324,0,0,0,4.14,13.647C2.834,14.69-.013,16.966,0,20.021c.013,3.217,3.079,5.482,4.456,6.062C7.826,27.5,15.69,29.4,21.192,24.4a8.184,8.184,0,0,0,1.637-1.884,8.811,8.811,0,0,0,1.181-2.943" transform="translate(0 3.222)" fill="#f4e631"/>
        <path id="Path_1121-2" data-name="Path 1121" d="M13.545,13.883S13.2,2.75,10.8,1.451s-5.065-1.8-5.178,2.2S7.64,9.742,7.983,10.535s2.061,3.6,2.061,3.6Z" transform="translate(0.841 0.152)" fill="#8fccd1"/>
        <path id="Path_1122-2" data-name="Path 1122" d="M15.824,14.98S25.268,4.863,22.088,1.045,14.909,5,14.624,6.463s-2.111,7.572-2.111,7.572,3.292.962,3.311.945" transform="translate(1.873 0)" fill="#8fccd1"/>
        <path id="Path_1123-2" data-name="Path 1123" d="M21,16.383l3.98,1.412-4.161,1.113Z" transform="translate(3.116 4.884)"/>
        <path id="Path_1124-2" data-name="Path 1124" d="M17.053,11.827s3.141,10.284-1.733,14.605L14.9,27l-3.333.6s4.68-14.039,2.827-16.5Z" transform="translate(1.731 3.309)"/>
        <path id="Path_1125-2" data-name="Path 1125" d="M11.553,10.809l-2.6.358a60.153,60.153,0,0,1-2.18,16.065l2.857.458s3.233-4.989,2.756-9.64-.829-7.241-.829-7.241" transform="translate(1.013 3.222)"/>
        <path id="Path_1126-2" data-name="Path 1126" d="M4.486,13.565S3.676,7.709,6.456,8.471c0,0,1.276,2.246-.285,1.467,0,0-.343-.793.381-.537" transform="translate(0.655 2.505)" fill="none" stroke="#020202" stroke-miterlimit="10" stroke-width="1"/>
        <path id="Path_1127-2" data-name="Path 1127" d="M2.973,15.275a4.75,4.75,0,0,1-1.775-5.2C2.264,6.867,3.672,8.711,3.672,8.711a2.3,2.3,0,0,1,.087.244,2.211,2.211,0,0,1,.08.38c.046.413-.064.854-.814.714a.628.628,0,0,1,.266-.8c.5-.271.548.088.548.088" transform="translate(0.143 2.439)" fill="none" stroke="#020202" stroke-miterlimit="10" stroke-width="1"/>
      </g>
    </g>
    <g id="bee-4" data-name="bee" transform="translate(1087.392 525.45) rotate(14)">
      <g id="Group_848-3" data-name="Group 848" transform="translate(49.251 9.817)" clip-path="url(#clip-path-2)">
        <path id="Path_1120-3" data-name="Path 1120" d="M24.01,19.577a8.963,8.963,0,0,0-.809-3.649C20.746,10.74,13.666,10.8,12.566,10.81A13.324,13.324,0,0,0,4.14,13.647C2.834,14.69-.013,16.966,0,20.021c.013,3.217,3.079,5.482,4.456,6.062C7.826,27.5,15.69,29.4,21.192,24.4a8.184,8.184,0,0,0,1.637-1.884,8.811,8.811,0,0,0,1.181-2.943" transform="translate(0 3.222)" fill="#f4e631"/>
        <path id="Path_1121-3" data-name="Path 1121" d="M13.545,13.883S13.2,2.75,10.8,1.451s-5.065-1.8-5.178,2.2S7.64,9.742,7.983,10.535s2.061,3.6,2.061,3.6Z" transform="translate(0.841 0.152)" fill="#8fccd1"/>
        <path id="Path_1122-3" data-name="Path 1122" d="M15.824,14.98S25.268,4.863,22.088,1.045,14.909,5,14.624,6.463s-2.111,7.572-2.111,7.572,3.292.962,3.311.945" transform="translate(1.873 0)" fill="#8fccd1"/>
        <path id="Path_1123-3" data-name="Path 1123" d="M21,16.383l3.98,1.412-4.161,1.113Z" transform="translate(3.116 4.884)"/>
        <path id="Path_1124-3" data-name="Path 1124" d="M17.053,11.827s3.141,10.284-1.733,14.605L14.9,27l-3.333.6s4.68-14.039,2.827-16.5Z" transform="translate(1.731 3.309)"/>
        <path id="Path_1125-3" data-name="Path 1125" d="M11.553,10.809l-2.6.358a60.153,60.153,0,0,1-2.18,16.065l2.857.458s3.233-4.989,2.756-9.64-.829-7.241-.829-7.241" transform="translate(1.013 3.222)"/>
        <path id="Path_1126-3" data-name="Path 1126" d="M4.486,13.565S3.676,7.709,6.456,8.471c0,0,1.276,2.246-.285,1.467,0,0-.343-.793.381-.537" transform="translate(0.655 2.505)" fill="none" stroke="#020202" stroke-miterlimit="10" stroke-width="1"/>
        <path id="Path_1127-3" data-name="Path 1127" d="M2.973,15.275a4.75,4.75,0,0,1-1.775-5.2C2.264,6.867,3.672,8.711,3.672,8.711a2.3,2.3,0,0,1,.087.244,2.211,2.211,0,0,1,.08.38c.046.413-.064.854-.814.714a.628.628,0,0,1,.266-.8c.5-.271.548.088.548.088" transform="translate(0.143 2.439)" fill="none" stroke="#020202" stroke-miterlimit="10" stroke-width="1"/>
      </g>
    </g>
  </g>
</svg>
