<svg xmlns="http://www.w3.org/2000/svg" xmlns:xlink="http://www.w3.org/1999/xlink" width="429.874" height="123.441" viewBox="0 0 429.874 123.441">
  <defs>
    <clipPath id="clip-path">
      <rect id="Rectangle_1504" data-name="Rectangle 1504" width="84.349" height="91.866" fill="none"/>
    </clipPath>
    <clipPath id="clip-path-2">
      <rect id="Rectangle_1514" data-name="Rectangle 1514" width="85.523" height="93.864" transform="translate(0 0)" fill="none"/>
    </clipPath>
  </defs>
  <g id="butterflies" transform="translate(-658.23 -448.134)">
    <g id="butterfly" transform="translate(658.23 448.134)">
      <g id="Group_813" data-name="Group 813" clip-path="url(#clip-path)">
        <path id="Path_1039" data-name="Path 1039" d="M42.661,118.941s7.561,9.747,16.866,13.761a19.227,19.227,0,0,0-1.6-3.87,26.808,26.808,0,0,0-3.635-4.73c-5.257-6.091-6.442-6.719-7.561-6.88a3.386,3.386,0,0,1-1.745-.573c-1.11-.831-.672-1.914-1.745-2.867a3.252,3.252,0,0,0-3.044-.666,1.969,1.969,0,0,0-1.027.666c-.679.923-.225,2.513.582,3.44,1.077,1.238,3.019,1.57,2.973,1.7-.006.016-.039.02-.065.02" transform="translate(-16.251 -48.2)" fill="#cc5a71"/>
        <path id="Path_1040" data-name="Path 1040" d="M1.862,99.735c9.306-9.174,22.256,6.5,22.256,6.5S7.387,94.288.408,104.035" transform="translate(-0.171 -41.322)" fill="none" stroke="#cc5a71" stroke-miterlimit="10" stroke-width="1"/>
        <path id="Path_1041" data-name="Path 1041" d="M55.562,87.715S71.176,19.423,92.7,50.385c0,0,7.561,11.467,2.326,24.081,0,0,8.142,8.6,8.142,15.481,0,0,11.05,17.774-1.745,17.774,0,0-10.178,8.887-36.5-9.031Z" transform="translate(-23.247 -18.06)" fill="#facaa3" stroke="#cc5a71" stroke-width="2"/>
        <path id="Path_1042" data-name="Path 1042" d="M35.851,65.581s-20.938-45.3-12.8-63.07c0,0,2.908-9.747,19.193,9.174,0,0,7.6,12.848,8.64,18.888.036.21.064.413.084.607l4.071,1.72S40.1,62.261,41.175,69.655a5.789,5.789,0,0,1-5.323-4.074" transform="translate(-8.86 0)" fill="#fabfaa" stroke="#cc5a71" stroke-width="2"/>
      </g>
    </g>
    <g id="butterfly-2" transform="translate(1002.581 477.711)">
      <g id="Group_853" data-name="Group 853" clip-path="url(#clip-path-2)">
        <path id="Path_1134" data-name="Path 1134" d="M85.116,63.712c-6.979-9.747-23.71,2.2-23.71,2.2s12.95-15.674,22.256-6.5" fill="none" stroke="#141313" stroke-miterlimit="10" stroke-width="1"/>
        <path id="Path_1135" data-name="Path 1135" d="M43.677,81.629c-26.322,17.918-36.5,9.031-36.5,9.031-12.8,0-1.745-17.774-1.745-17.774C5.432,66,13.574,57.4,13.574,57.4,8.339,44.791,15.9,33.324,15.9,33.324c21.524-30.962,37.138,37.33,37.138,37.33Z" fill="#cc5a71"/>
        <path id="Path_1136" data-name="Path 1136" d="M43.677,81.629c-26.322,17.918-36.5,9.031-36.5,9.031-12.8,0-1.745-17.774-1.745-17.774C5.432,66,13.574,57.4,13.574,57.4,8.339,44.791,15.9,33.324,15.9,33.324c21.524-30.962,37.138,37.33,37.138,37.33Z" fill="none" stroke="#facaa3" stroke-width="2"/>
        <path id="Path_1137" data-name="Path 1137" d="M58.361,66.58a5.789,5.789,0,0,1-5.323,4.074C54.113,63.26,39.174,33.9,39.174,33.9l4.071-1.72c.02-.194.048-.4.084-.607,1.04-6.04,8.64-18.888,8.64-18.888C68.254-6.237,71.162,3.51,71.162,3.51c8.138,17.77-12.8,63.07-12.8,63.07" fill="#cc5a71"/>
        <path id="Path_1138" data-name="Path 1138" d="M58.361,66.58a5.789,5.789,0,0,1-5.323,4.074C54.113,63.26,39.174,33.9,39.174,33.9l4.071-1.72c.02-.194.048-.4.084-.607,1.04-6.04,8.64-18.888,8.64-18.888C68.254-6.237,71.162,3.51,71.162,3.51c8.138,17.77-12.8,63.07-12.8,63.07" fill="none" stroke="#fabfaa" stroke-width="2"/>
        <path id="Path_1139" data-name="Path 1139" d="M58.944,71.741c-.026,0-.059,0-.065-.02-.046-.13,1.9-.462,2.973-1.7.807-.927,1.261-2.517.582-3.44a1.972,1.972,0,0,0-1.027-.666,3.253,3.253,0,0,0-3.044.666c-1.073.953-.635,2.036-1.745,2.867a3.393,3.393,0,0,1-1.745.573c-1.119.161-2.3.789-7.561,6.88a26.822,26.822,0,0,0-3.635,4.73,19.228,19.228,0,0,0-1.6,3.87C51.382,81.487,58.943,71.74,58.943,71.74" fill="#0c0b0b"/>
      </g>
    </g>
  </g>
</svg>
