<svg xmlns="http://www.w3.org/2000/svg" width="580.7" height="317.66" viewBox="0 0 580.7 317.66">
  <g id="dandelions" transform="translate(-593.04 -496.621)">
    <g id="dandelion" transform="translate(134.233 190.42)">
      <path id="Path_1065" data-name="Path 1065" d="M192.1,358.034c28.981,27.616,17.883,175.918,17.883,175.918" transform="translate(743.062 62.943)" fill="none" stroke="#365b36" stroke-miterlimit="10" stroke-width="2" opacity="0.592"/>
      <path id="Path_1066" data-name="Path 1066" d="M205.2,512.761s11.578-36.534,42.157-48.625c0,0-12.247-15.787,18.331-27.877,0,0,3.8-31.585,29.038-26.952,0,0-25.238-4.633,7.626-28.8,0,0-35.919,28.813-25.238-4.633,0,0-14.507,30.662-26.754,14.875,0,0,2.31,22.294-12.221,18.584,0,0,8.421,13-4.57,24.155,0,0-.744,26.939-8.4,21.369Z" transform="translate(737.156 73.9)" fill="#365b36" opacity="0.607"/>
      <path id="Path_1067" data-name="Path 1067" d="M194.512,389.537c.887.282,19.388,5.811,33-7.5,7.642-7.472,13.905-21.041,9.2-33.9-4.78-13.075-17.833-17.027-19.843-17.6-9.975-2.836-18.235.676-21.817,2.265-3.189,1.414-16.48,7.306-19.706,20.176-3.171,12.659,4.359,28.215,19.16,36.557" transform="translate(739.146 45.398)" fill="#eded26"/>
      <path id="Path_1068" data-name="Path 1068" d="M223.587,513.475s-3.085-30.2-26.821-43.017c0,0,13.318-11.232-10.423-24.047,0,0,2.607-25.456-19.686-24.442,0,0,22.293-1.014-1.157-23.651,0,0,25.186,26.646,22.293-1.012,0,0,6.657,25.851,19.975,14.621,0,0-6.078,17.44,6.948,16.031,0,0-9.555,9.424-.58,19.642,0,0-4.345,21.448,3.183,17.837Z" transform="translate(734.266 87.064)" fill="#365b36" opacity="0.592"/>
    </g>
    <g id="dandelion-2" data-name="dandelion" transform="translate(-306.726 112.755)">
      <path id="Path_1065-2" data-name="Path 1065" d="M192.1,358.034C221.084,399.691,209.986,623.4,209.986,623.4" transform="translate(743.062 74.485)" fill="none" stroke="#365b36" stroke-miterlimit="10" stroke-width="2" opacity="0.592"/>
      <path id="Path_1066-2" data-name="Path 1066" d="M205.2,541.513s13.373-44.208,48.691-58.838c0,0-14.145-19.1,21.173-33.733,0,0,4.389-38.219,33.539-32.614,0,0-29.15-5.606,8.808-34.85,0,0-41.486,34.866-29.15-5.606,0,0-16.755,37.1-30.9,18,0,0,2.669,26.976-14.115,22.488,0,0,9.726,15.731-5.279,29.229,0,0-.859,32.6-9.7,25.857Z" transform="translate(683.203 181.398) rotate(-7)" fill="#365b36" opacity="0.607"/>
      <path id="Path_1067-2" data-name="Path 1067" d="M194.512,389.537c.887.282,19.388,5.811,33-7.5,7.642-7.472,13.905-21.041,9.2-33.9-4.78-13.075-17.833-17.027-19.843-17.6-9.975-2.836-18.235.676-21.817,2.265-3.189,1.414-16.48,7.306-19.706,20.176-3.171,12.659,4.359,28.215,19.16,36.557" transform="translate(738.662 54.398)" fill="#eded26"/>
      <path id="Path_1068-2" data-name="Path 1068" d="M223.587,533.632s-3.085-35.442-26.821-50.481c0,0,13.318-13.18-10.423-28.219,0,0,2.607-29.873-19.686-28.683,0,0,22.293-1.19-1.157-27.755,0,0,25.186,31.269,22.293-1.188,0,0,6.657,30.337,19.975,17.158,0,0-6.078,20.466,6.948,18.812,0,0-9.555,11.059-.58,23.05,0,0-4.345,25.169,3.183,20.932Z" transform="translate(734.266 167.894)" fill="#365b36" opacity="0.592"/>
    </g>
  </g>
</svg>
