<svg xmlns="http://www.w3.org/2000/svg" xmlns:xlink="http://www.w3.org/1999/xlink" width="494.132" height="210.541" viewBox="0 0 494.132 210.541">
  <defs>
    <clipPath id="clip-path">
      <rect id="Rectangle_1515" data-name="Rectangle 1515" width="59.303" height="177.931" fill="none"/>
    </clipPath>
  </defs>
  <g id="flowers-in-grass" transform="translate(-829.848 -531.104)">
    <g id="flower" transform="translate(829.848 563.715)">
      <g id="Group_857" data-name="Group 857" clip-path="url(#clip-path)">
        <g id="Group_859" data-name="Group 859">
          <path id="Path_1140" data-name="Path 1140" d="M30.339,177.855a183.331,183.331,0,0,1,3-51c5.13-25.058,13.573-38.152,11-60a78.686,78.686,0,0,0-9.511-28.906" fill="none" stroke="#527655" stroke-miterlimit="10" stroke-width="1"/>
          <path id="Path_1141" data-name="Path 1141" d="M19.547,7.787S-7.459,24.672,2.015,35.635,23.768,11.828,23.768,11.828,5.41,47.586,19,48.158s8.848-36.9,8.848-36.9,1.073,45.7,18.244,29.025a5.663,5.663,0,0,0,1.247-3.433,5.785,5.785,0,0,0-1.759-4.124" fill="#cc5a71"/>
          <path id="Path_1142" data-name="Path 1142" d="M31.339,12.855,32.8,1.132C46.347-1.678,56.82.984,58.908,6.454c.431,1.127.807,3.163-.569,6.4l-4,1" fill="#cc5a71"/>
          <path id="Path_1143" data-name="Path 1143" d="M31.4,11.7s30.941,3.156,26.941,13.156S42.068,37.151,29.7,13.5Z" fill="#cc5a71"/>
          <path id="Path_1144" data-name="Path 1144" d="M25.57,15.005s4.24-.846,4.505-2,8.264,11.848,8.264,11.848-10.537-1.7-12.769-9.85" fill="#cc5a71"/>
          <path id="Path_1145" data-name="Path 1145" d="M16.339,9.855c2.3,3.644,6.25,5.622,10,5a9.133,9.133,0,0,0,6-4c1.62-2.623,2.27-6.947,0-9-2.4-2.169-6.64-.526-8,0-4.973,1.926-7.276,6.407-8,8" fill="#eded26"/>
        </g>
        <g id="Group_860" data-name="Group 860" transform="translate(457 -13)">
          <path id="Path_1140-2" data-name="Path 1140" d="M30.339,177.855a183.331,183.331,0,0,1,3-51c5.13-25.058,13.573-38.152,11-60a78.686,78.686,0,0,0-9.511-28.906" fill="none" stroke="#527655" stroke-miterlimit="10" stroke-width="1"/>
          <path id="Path_1141-2" data-name="Path 1141" d="M19.547,7.787S-7.459,24.672,2.015,35.635,23.768,11.828,23.768,11.828,5.41,47.586,19,48.158s8.848-36.9,8.848-36.9,1.073,45.7,18.244,29.025a5.663,5.663,0,0,0,1.247-3.433,5.785,5.785,0,0,0-1.759-4.124" fill="#cc5a71"/>
          <path id="Path_1142-2" data-name="Path 1142" d="M31.339,12.855,32.8,1.132C46.347-1.678,56.82.984,58.908,6.454c.431,1.127.807,3.163-.569,6.4l-4,1" fill="#cc5a71"/>
          <path id="Path_1143-2" data-name="Path 1143" d="M31.4,11.7s30.941,3.156,26.941,13.156S42.068,37.151,29.7,13.5Z" fill="#cc5a71"/>
          <path id="Path_1144-2" data-name="Path 1144" d="M25.57,15.005s4.24-.846,4.505-2,8.264,11.848,8.264,11.848-10.537-1.7-12.769-9.85" fill="#cc5a71"/>
          <path id="Path_1145-2" data-name="Path 1145" d="M16.339,9.855c2.3,3.644,6.25,5.622,10,5a9.133,9.133,0,0,0,6-4c1.62-2.623,2.27-6.947,0-9-2.4-2.169-6.64-.526-8,0-4.973,1.926-7.276,6.407-8,8" fill="#eded26"/>
        </g>
      </g>
    </g>
    <g id="flower-2" transform="translate(1264.678 531.104)">
      <g id="Group_857-2" data-name="Group 857" clip-path="url(#clip-path)">
        <g id="Group_859-2" data-name="Group 859">
          <path id="Path_1140-3" data-name="Path 1140" d="M30.339,177.855a183.331,183.331,0,0,1,3-51c5.13-25.058,13.573-38.152,11-60a78.686,78.686,0,0,0-9.511-28.906" fill="none" stroke="#527655" stroke-miterlimit="10" stroke-width="1"/>
          <path id="Path_1141-3" data-name="Path 1141" d="M19.547,7.787S-7.459,24.672,2.015,35.635,23.768,11.828,23.768,11.828,5.41,47.586,19,48.158s8.848-36.9,8.848-36.9,1.073,45.7,18.244,29.025a5.663,5.663,0,0,0,1.247-3.433,5.785,5.785,0,0,0-1.759-4.124" fill="#cc5a71"/>
          <path id="Path_1142-3" data-name="Path 1142" d="M31.339,12.855,32.8,1.132C46.347-1.678,56.82.984,58.908,6.454c.431,1.127.807,3.163-.569,6.4l-4,1" fill="#cc5a71"/>
          <path id="Path_1143-3" data-name="Path 1143" d="M31.4,11.7s30.941,3.156,26.941,13.156S42.068,37.151,29.7,13.5Z" fill="#cc5a71"/>
          <path id="Path_1144-3" data-name="Path 1144" d="M25.57,15.005s4.24-.846,4.505-2,8.264,11.848,8.264,11.848-10.537-1.7-12.769-9.85" fill="#cc5a71"/>
          <path id="Path_1145-3" data-name="Path 1145" d="M16.339,9.855c2.3,3.644,6.25,5.622,10,5a9.133,9.133,0,0,0,6-4c1.62-2.623,2.27-6.947,0-9-2.4-2.169-6.64-.526-8,0-4.973,1.926-7.276,6.407-8,8" fill="#eded26"/>
        </g>
        <g id="Group_860-2" data-name="Group 860" transform="translate(457 -13)">
          <path id="Path_1140-4" data-name="Path 1140" d="M30.339,177.855a183.331,183.331,0,0,1,3-51c5.13-25.058,13.573-38.152,11-60a78.686,78.686,0,0,0-9.511-28.906" fill="none" stroke="#527655" stroke-miterlimit="10" stroke-width="1"/>
          <path id="Path_1141-4" data-name="Path 1141" d="M19.547,7.787S-7.459,24.672,2.015,35.635,23.768,11.828,23.768,11.828,5.41,47.586,19,48.158s8.848-36.9,8.848-36.9,1.073,45.7,18.244,29.025a5.663,5.663,0,0,0,1.247-3.433,5.785,5.785,0,0,0-1.759-4.124" fill="#cc5a71"/>
          <path id="Path_1142-4" data-name="Path 1142" d="M31.339,12.855,32.8,1.132C46.347-1.678,56.82.984,58.908,6.454c.431,1.127.807,3.163-.569,6.4l-4,1" fill="#cc5a71"/>
          <path id="Path_1143-4" data-name="Path 1143" d="M31.4,11.7s30.941,3.156,26.941,13.156S42.068,37.151,29.7,13.5Z" fill="#cc5a71"/>
          <path id="Path_1144-4" data-name="Path 1144" d="M25.57,15.005s4.24-.846,4.505-2,8.264,11.848,8.264,11.848-10.537-1.7-12.769-9.85" fill="#cc5a71"/>
          <path id="Path_1145-4" data-name="Path 1145" d="M16.339,9.855c2.3,3.644,6.25,5.622,10,5a9.133,9.133,0,0,0,6-4c1.62-2.623,2.27-6.947,0-9-2.4-2.169-6.64-.526-8,0-4.973,1.926-7.276,6.407-8,8" fill="#eded26"/>
        </g>
      </g>
    </g>
  </g>
</svg>
