<svg xmlns="http://www.w3.org/2000/svg" xmlns:xlink="http://www.w3.org/1999/xlink" width="209.436" height="220.457" viewBox="0 0 209.436 220.457">
  <defs>
    <clipPath id="clip-path">
      <rect id="Rectangle_1501" data-name="Rectangle 1501" width="209.436" height="220.457" transform="translate(187 432)" fill="none"/>
    </clipPath>
  </defs>
  <g id="Flowers-in-hand" transform="translate(-187 -432)">
    <g id="Group_807" data-name="Group 807" clip-path="url(#clip-path)">
      <path id="Path_985" data-name="Path 985" d="M.054,153.007s17.617-1.917,24.224-19.176c0,0,13.213-3.835,41.842-11.5,0,0-22.022,19.176-17.618,42.186s4.4,34.515-15.415,34.515" transform="translate(187 432)" fill="none" stroke="#56351e" stroke-miterlimit="10" stroke-width="1"/>
      <path id="Path_986" data-name="Path 986" d="M26.48,177.934s11.011-3.835,6.607-21.092,17.617-32.6,24.224-28.763" transform="translate(187 432)" fill="none" stroke="#56351e" stroke-miterlimit="10" stroke-width="1"/>
      <path id="Path_987" data-name="Path 987" d="M4.458,185.6s33.034-49.855,48.449-53.69,13.212-7.67,8.808,11.505-13.213,7.67-6.606,24.928a108.578,108.578,0,0,1,6.606,34.514" transform="translate(187 432)" fill="none" stroke="#56351e" stroke-miterlimit="10" stroke-width="1"/>
      <path id="Path_988" data-name="Path 988" d="M59.513,220.119s17.618-19.175,6.607-69.03c0,0-2.2-24.927,2.2-24.927s-8.809,17.257,2.2,24.927,13.213,30.68,11.011,40.268" transform="translate(187 432)" fill="none" stroke="#56351e" stroke-miterlimit="10" stroke-width="1"/>
      <path id="Path_989" data-name="Path 989" d="M103.557,206.7s-22.022-59.442-22.022-72.865-15.415-11.5-15.415-11.5" transform="translate(187 432)" fill="none" stroke="#56351e" stroke-miterlimit="10" stroke-width="1"/>
      <path id="Path_990" data-name="Path 990" d="M132.185,59.049s-17.617-9.587-15.415-28.762,17.617-13.423,24.224-9.588,17.617,7.67,6.606,23.01-6.606,15.34-15.415,15.34" transform="translate(187 432)" fill="#f0f757"/>
      <path id="Path_991" data-name="Path 991" d="M196.049,74.389s-11.011,15.34,6.607,11.5-4.4-15.34-6.607-11.5" transform="translate(187 432)" fill="#cec411"/>
      <path id="Path_992" data-name="Path 992" d="M196.049,74.389s-22.022-23.01-30.831-11.505S192.95,79.343,192.95,79.343s-38.743-10.706-36.54,2.716,37.923,1.164,37.923,1.164-44.53,10.341-24.71,23.763c0,0,13.213,0,18.718-16.3l5.992-7.465s3.918,31.433-2.688,33.351-11.011,1.917-11.011-5.753,2.2-9.587,2.2-9.587" transform="translate(187 432)" fill="#cc5a71"/>
      <path id="Path_993" data-name="Path 993" d="M196.049,87.812l9.21-1.8s10.61,26.725-4.806,28.643c0,0-6.505,2.205-5.455-2.733" transform="translate(187 432)" fill="#cc5a71"/>
      <path id="Path_994" data-name="Path 994" d="M149.8,131.914s-22.022,36.432,17.618,32.6,19.819-40.267,8.808-42.184-28.628,3.835-26.426,9.587" transform="translate(187 432)" fill="#f0f757"/>
      <path id="Path_995" data-name="Path 995" d="M152.005,57.132s-8.809-11.505-2.2-11.505,6.606,7.67,2.2,11.505" transform="translate(187 432)" fill="#facaa6"/>
      <path id="Path_996" data-name="Path 996" d="M152.005,57.132s24.224,1.917,15.415-3.835-15.415,3.835-15.415,3.835" transform="translate(187 432)" fill="#facaa6"/>
      <path id="Path_997" data-name="Path 997" d="M155.708,51.473s-8.809-11.505-2.2-11.505,6.606,7.67,2.2,11.505" transform="translate(187 432)" fill="#facaa6"/>
      <path id="Path_998" data-name="Path 998" d="M171.123,47.638c-8.809-5.752-15.415,3.835-15.415,3.835s24.224,1.917,15.415-3.835" transform="translate(187 432)" fill="#facaa6"/>
      <path id="Path_999" data-name="Path 999" d="M160.112,45.721s-8.809-11.505-2.2-11.505,6.606,7.67,2.2,11.505" transform="translate(187 432)" fill="#facaa6"/>
      <path id="Path_1000" data-name="Path 1000" d="M175.528,41.886c-8.809-5.752-15.415,3.835-15.415,3.835s24.224,1.917,15.415-3.835" transform="translate(187 432)" fill="#facaa6"/>
      <path id="Path_1001" data-name="Path 1001" d="M164.517,39.968s-8.809-11.5-2.2-11.5,6.606,7.67,2.2,11.5" transform="translate(187 432)" fill="#facaa6"/>
      <path id="Path_1002" data-name="Path 1002" d="M179.932,36.133c-8.809-5.752-15.415,3.835-15.415,3.835s24.224,1.917,15.415-3.835" transform="translate(187 432)" fill="#facaa6"/>
      <path id="Path_1003" data-name="Path 1003" d="M168.921,34.216s-8.809-11.5-2.2-11.5,6.606,7.67,2.2,11.5" transform="translate(187 432)" fill="#facaa6"/>
      <path id="Path_1004" data-name="Path 1004" d="M184.336,30.381c-8.809-5.752-15.415,3.835-15.415,3.835s24.224,1.917,15.415-3.835" transform="translate(187 432)" fill="#facaa6"/>
      <path id="Path_1005" data-name="Path 1005" d="M173.326,28.463s-8.81-11.5-2.2-11.5,6.606,7.67,2.2,11.5" transform="translate(187 432)" fill="#facaa6"/>
      <path id="Path_1006" data-name="Path 1006" d="M188.741,24.628c-8.809-5.752-15.415,3.835-15.415,3.835s24.224,1.917,15.415-3.835" transform="translate(187 432)" fill="#facaa6"/>
      <path id="Path_1007" data-name="Path 1007" d="M177.73,22.711s-8.809-11.505-2.2-11.505,6.606,7.67,2.2,11.505" transform="translate(187 432)" fill="#facaa6"/>
      <path id="Path_1008" data-name="Path 1008" d="M193.145,18.876c-8.809-5.752-15.415,3.835-15.415,3.835s24.224,1.917,15.415-3.835" transform="translate(187 432)" fill="#facaa6"/>
      <path id="Path_1009" data-name="Path 1009" d="M182.134,16.958s-8.809-11.505-2.2-11.505,6.606,7.67,2.2,11.505" transform="translate(187 432)" fill="#facaa6"/>
      <path id="Path_1010" data-name="Path 1010" d="M197.55,13.123c-8.809-5.752-15.415,3.835-15.415,3.835s24.224,1.917,15.415-3.835" transform="translate(187 432)" fill="#facaa6"/>
      <path id="Path_1011" data-name="Path 1011" d="M186.618,11.44s-1.538-14.2,4.7-10.958,1.718,9.827-4.7,10.958" transform="translate(187 432)" fill="#facaa6"/>
      <path id="Path_1012" data-name="Path 1012" d="M125.579,53.3c-13.213,1.917-37.437,47.937-37.437,47.937s63.863-28.762,63.863-42.185" transform="translate(187 432)" fill="none" stroke="#4a7856" stroke-miterlimit="10" stroke-width="2"/>
      <path id="Path_1013" data-name="Path 1013" d="M90.344,103.152s17.617-5.752,41.842,11.5l24.224,17.257" transform="translate(187 432)" fill="none" stroke="#4a7856" stroke-miterlimit="10" stroke-width="2"/>
      <path id="Path_1014" data-name="Path 1014" d="M92.546,114.657s77.077-13.422,77.077-19.175" transform="translate(187 432)" fill="none" stroke="#4a7856" stroke-miterlimit="10" stroke-width="2"/>
      <path id="Path_1015" data-name="Path 1015" d="M89.9,96.526s4.846-12.549-3.963-22.137c0,0,8.809-1.917,0-11.505,0,0,6.607-9.587-4.4-13.422,0,0,11.011,3.835,4.4-9.587,0,0,6.607,15.34,11.011,3.835,0,0-2.2,11.505,6.607,9.587,0,0-6.607,5.752,0,7.67,0,0-6.607,1.917-4.4,7.67,0,0-6.606,7.67-2.2,7.67Z" transform="translate(187 432)" fill="#4a7856"/>
      <path id="Path_1016" data-name="Path 1016" d="M93.535,115.03s11.269.608,13.92,10.54c0,0,5.564-6.012,8.215,3.92,0,0,9.992-1.733,7.487,7.906,0,0,2.505-9.639,8.943-.067,0,0-7.807-10.226,2.506-9.639,0,0-9.264-2.253-3.7-8.266,0,0-7.254,3.04-5.477-2.613,0,0-4.515,4.346-7.574.72,0,0-8.623,2.387-6.526-.946Z" transform="translate(187 432)" fill="#4a7856"/>
    </g>
  </g>
</svg>
