<svg xmlns="http://www.w3.org/2000/svg" width="563.923" height="261.455" viewBox="0 0 563.923 261.455">
  <path id="Path_802" data-name="Path 802" d="M1286.454,675.039l563.923,1.459V602.1s-3.81,24.435-7.2,25.894-3.387-46.682,3.387-48.141c0,0-7.621,1.459-6.774,15.317l-1.693-29.176s-6.774,61.27-11.008,62,13.548-105.763,13.548-105.763-35.563,114.516-34.716,115.245,4.234-72.211,14.394-90.446c0,0-20.322,40.117-27.1,67.1,0,0-6.774-32.823-9.314-33.552,0,0-.847,35.741-1.693,35.741s-5.927-90.446-4.234-90.446-15.241,92.634-12.7,92.634c0,0-4.234-33.552,3.387-37.929,0,0-6.774,2.188-7.621,26.988,0,0,0-75.858-1.693-75.858s-6.774,80.234-11.854,81.693-8.467-29.176-8.467-29.176-1.693,51.787-3.387,54.705-8.467,10.941-9.314,10.941-10.161-37.929,27.942-90.446l20.322-34.282s-54.191,68.564-54.191,72.211c0,.013.013.1-.026.115-.537.211-8.676-14.076-10.174-16.856-13.064-24.257.92-61.18,5.927-74.4a181.712,181.712,0,0,1,16.935-33.552c-11.175,13.4-28.944,38.606-35.563,73.67a149.209,149.209,0,0,0,.04,55.4s-3.387,9.482-5.08,37.929c0,0-9.314-32.094,4.234-45.223s22.862-45.223,22.862-45.223-31.329,42.305-33.023,42.305-5.08-37.929-5.08-37.929l-5.08,53.976s-6.774,16.776-8.467,16.776-7.62-24.07-9.314-24.07v14.588s-10.161-42.305-6.774-44.493c0,0-9.314,70.022-9.314,89.716s-12.7-49.6-9.314-53.976-5.08,9.482-4.234,11.67c0,0-3.387-8.023-2.54-29.905,0,0-12.7,42.305-11.854,42.305s-16.935-12.4-17.781-30.635c0,0-.847,12.4,11.854,46.682,0,0-4.234,8.753-5.08,7.294s26.249-92.634,33.869-104.3-44.877,68.564-44.877,83.152c0,.32-.017.933-.274.993-2.066.479-13.668-36.255-35.328-97.239-9.738-27.418-12.544-34.5-12.7-47.411-.278-23.017,8.141-41.8,15.241-53.976-13.929,20.926-17.193,38.175-17.781,49.6-1.357,26.364,10.568,40.489,19.475,78.775a272.533,272.533,0,0,1,6.814,48.835c-.2,19.106-1.324,25.735-2.54,26.258-1.694.729-6.774-26.988-8.467-26.988s0,12.4-.847,13.129-10.161-76.587-9.314-76.587-6.774,67.834-5.927,67.834-5.08,13.129-5.927,13.129-1.694-9.482-1.694-9.482-7.621,18.964-11.007,19.694,11.854-41.576,11.007-43.764-25.4,43.764-25.4,43.764,6.774-64.917,3.387-82.422c0,0-13.548,70.022-19.475,78.775s-3.387-54.7-11.007-87.528c0,0-5.08,67.1-5.927,67.834s-16.935-31.364-19.475-31.364,21.168,65.646,14.394,72.211l-26.249-118.892s2.54,63.458.847,64.917-2.54-42.305-2.54-42.305-3.387,26.988-4.234,28.447-1.693-13.859-1.693-13.859-.847,29.905-4.234,33.552-8.467,30.635-8.467,30.635l-1.693-72.94s-11.007,58.352-13.548,58.352-2.54-21.153,5.927-36.47c0,0,6.774-17.506,5.08-18.964s-11.008,22.611-12.7,22.611-13.548-58.352-14.394-72.94-.847,98.469-2.54,101.387-6.774,16.776-6.774,16.776,0-19.694,1.693-21.882c.125-.162.2-.232.216-.223.19.087-5.978,12.341-8.683,12.623-7.962.83-28.572-97.511-50-212.221,23.826,136.06,28.835,178.82,27.982,188.88l-1.693,19.694s-10.161-13.129-9.314-24.07-2.54,46.682-2.54,46.682-2.54,10.941-4.234,10.941,0-56.164,6.774-76.587c0,0,.847-13.129,0-17.506s-7.62,40.117-12.7,40.117-4.234-19.694-4.234-19.694-2.54,19.694-4.234,41.576-18.628,48.14-11.854,12.4,0-72.211,6.774-76.587c0,0-23.708,58.352-22.015,66.375s-7.621-26.988-5.927-26.988-2.117,74.764-2.117,74.764" transform="translate(-1286.454 -415.043)" fill="#7fa088"/>
</svg>
