<svg xmlns="http://www.w3.org/2000/svg" width="672.467" height="180.921" viewBox="0 0 672.467 180.921">
  <g id="Grass" transform="translate(-318.097 -410.85)">
    <path id="Path_983" data-name="Path 983" d="M711.052,702.993l407.114,1.05V650.491s-2.75,17.589-5.2,18.638-2.446-33.6,2.445-34.65c0,0-5.5,1.049-4.891,11.023l-1.223-21s-4.887,44.106-7.946,44.628c-.645.111,8.812-33.51,9.78-76.127A314.163,314.163,0,0,0,1109.394,552c2.585,33.528-3.171,58.315-9.168,75.078,0,0-16.743,46.8-14.152,48.88l.009,0c.627.017,3.083-52.044,10.384-65.106,0,0-14.671,28.875-19.562,48.3,0,0-4.89-23.626-6.724-24.153,0,0-.611,25.726-1.223,25.726s-4.279-65.1-3.056-65.1-11,66.678-9.17,66.678c0,0-3.056-24.154,2.445-27.3,0,0-4.889,1.575-5.5,19.426.368-55.43.379-98.744-.521-98.757-1.385-.019-4.122,102.945-9.26,102.957-2.308,0-6.112-21-6.112-21S1036.56,674.9,1035.338,677s-6.114,7.876-6.725,7.876-7.334-27.3,20.175-65.1l33.1-50.98c-40.5,53.184-57.515,76.535-57.552,78.28,0,.009,0,.081-.018.083-.436.053-4.97-43.362-19.454-87.814-4.24-13.013-8.419-23.318-11-29.4a304.123,304.123,0,0,1,13.968,120.282s-2.445,6.825-3.668,27.3c0,0-6.725-23.1,3.057-32.551s16.5-32.552,16.5-32.552-22.618,30.451-23.84,30.451-3.668-27.3-3.668-27.3l-3.669,38.851s-4.89,12.076-6.113,12.076-5.5-17.326-6.725-17.326v10.5s-7.335-30.451-4.89-32.026c0,0-6.725,50.4-6.725,64.577s-9.168-35.7-6.724-38.85-3.669,6.825-3.057,8.4c0,0-2.443-5.776-1.832-21.526,0,0-9.17,30.451-8.559,30.451s-12.226-8.925-12.837-22.051c0,0-.611,8.926,8.559,33.6,0,0-2.713,5.59-3.539,5.361a.221.221,0,0,1-.13-.111c-2.114-3.577,1.925-11.079,1.925-11.079,8.208-15.251,8.855-52.283,44.012-98.18,21.014-27.433,40.914-40.482,40.344-40.951-.933-.769-53.685,34.852-72.131,74.552-3.253,7-22.09,49.967-22.1,60.43,0,.152,0,.668-.2.715-2.891.679-36.479-98.368-36.479-98.368L914.3,657.575s-.608,18.38-1.831,18.9-4.89-19.426-6.113-19.426,0,8.925-.611,9.451-7.336-55.127-6.723-55.127-4.89,48.827-4.279,48.827-3.669,9.451-4.28,9.451-1.222-6.825-1.222-6.825-5.5,13.651-7.947,14.175,8.558-29.926,7.947-31.5-18.339,31.5-18.339,31.5a223.341,223.341,0,0,0,2.141-24.937,232.545,232.545,0,0,0-15.5-89.568c3.382,24.833,6.19,43.33,7.947,54.6,0,0,6.038,38.721-6.2,57.279-.135.2-.408.614-.772.588-3.3-.221-2.037-41.525-7.175-63.592,0,0-3.669,48.3-4.28,48.826S834.835,637.629,833,637.629s15.282,47.252,10.392,51.977l-18.947-85.578s1.833,45.677.611,46.727-1.834-30.451-1.834-30.451-2.448,19.426-3.056,20.476c-.021.035-.05.071-.083.071-.667-.016.044-15.09-1.049-24.8-.9-7.983-3.747-18.813-12.226-31.5a153.676,153.676,0,0,1,7.335,29.4c1.07,7.373,1.324,15.066,1.833,30.451a77.244,77.244,0,0,1-.091,10.554A65.157,65.157,0,0,1,809.774,677l-1.223-52.5s-7.948,42-9.78,42-1.835-15.225,4.278-26.251c0,0,4.89-12.6,3.669-13.651s-7.947,16.276-9.17,16.276-9.779-42-10.39-52.5-.611,70.878-1.835,72.977-4.889,12.076-4.889,12.076,0-14.175,1.223-15.751c.089-.116.139-.167.156-.16.167.075-4.233,9.365-6.27,9.085-2.5-.342-1.186-15.082-1.132-25.779.131-25.011-6.58-34.873-10.392-55.652-2.722-14.841-4.165-36.352,2.446-64.052-11.837,35.008-12.038,59.161-9.783,75.078,0,0,4.718,33.247,2.965,53.6l-1.222,14.175s-7.335-9.451-6.725-17.325-1.834,33.6-1.834,33.6-1.833,7.876-3.056,7.876,0-40.426,4.89-55.127c0,0,.61-9.451,0-12.6s-5.5,28.876-9.169,28.876-3.056-14.175-3.056-14.175-1.833,14.175-3.056,29.925c-.187,2.418-5.121,21.811-8.7,21.572-2.967-.2-4.185-13.886-4.03-23.058a89.329,89.329,0,0,1,4.2-25.476,48.79,48.79,0,0,0-7.493,12.054,43.047,43.047,0,0,0-3.545,16.484c.11.628.148.859.144.86-.044,0-2.934-20.335-4.423-20.286-1.521.05-1.867,21.413-1.528,53.812" transform="translate(-127.603 -112.272)" fill="#7fa088"/>
    <path id="Path_984" data-name="Path 984" d="M653.032,748.339H389.481l-1.8-13.933s10.808,13.228,18.012.49c0,0,12.009,12.248,17.413.49,0,0,13.29,9.109,16.86,1.614a8.014,8.014,0,0,0,.553-1.614s16.21,10.778,16.811.979c0,0,10.809,8.329,18.614,0,0,0,15.611,12.738,21.013-.49,0,0,7.206,11.759,16.212.98,0,0,18.613,9.8,21.015.98,0,0,15.611,6.369,18.013-2.45,0,0,22.215,14.208,22.816,3.919,0,0,13.209,4.409,18.613-.49,0,0,12.009,10.779,16.212.49,0,0,9.607,5.389,12.009,0,0,0,7.2,9.308,12.008,0,0,0,7.2,5.879,7.806,0,0,0,12.129,3.468,12.068-.47s-.694,9.5-.694,9.5" transform="translate(-69.583 -157.618)" fill="#7fa088"/>
  </g>
</svg>
