<svg xmlns="http://www.w3.org/2000/svg" width="885.023" height="369.289" viewBox="0 0 885.023 369.289">
  <path id="grass-3" d="M635.258,793.188l885.023,2.143V686.024s-5.98,35.9-11.3,38.043-5.316-68.585,5.315-70.728c0,0-11.96,2.143-10.631,22.5l-2.658-42.866s-10.631,90.018-17.275,91.089c-1.4.226,19.156-68.4,21.262-155.388a603.2,603.2,0,0,0-3.789-83.7c5.62,68.436-6.894,119.029-19.933,153.245,0,0-36.4,95.518-30.762,99.771a.036.036,0,0,0,.02.009c1.361.035,6.7-106.23,22.571-132.892,0,0-31.893,58.94-42.524,98.591,0,0-10.631-48.224-14.617-49.3,0,0-1.329,52.51-2.658,52.51s-9.3-132.883-6.645-132.883-23.92,136.1-19.933,136.1c0,0-6.644-49.3,5.315-55.725,0,0-10.631,3.215-11.96,39.651.8-113.14.824-201.551-1.131-201.577-3.012-.039-8.962,210.125-20.131,210.15-5.019.011-13.288-42.866-13.288-42.866s-2.658,76.087-5.316,80.373-13.289,16.075-14.617,16.075-15.946-55.725,43.852-132.883l71.957-104.057c-88.044,108.556-125.033,156.218-125.111,159.783,0,.018,0,.165-.041.169-.945.109-10.8-88.508-42.285-179.242-9.216-26.561-18.3-47.595-23.92-60.012a593.73,593.73,0,0,1,32.193,167.016,577.3,577.3,0,0,1-1.827,78.5s-5.315,13.931-7.973,55.725c0,0-14.617-47.152,6.645-66.442s35.879-66.442,35.879-66.442-49.168,62.155-51.826,62.155-7.973-55.725-7.973-55.725l-7.973,79.3s-10.631,24.648-13.289,24.648-11.96-35.364-14.617-35.364v21.433s-15.946-62.155-10.631-65.37c0,0-14.617,102.878-14.617,131.812s-19.933-72.872-14.618-79.3-7.973,13.931-6.644,17.146c0,0-5.315-11.788-3.987-43.937,0,0-19.933,62.155-18.6,62.155s-26.577-18.218-27.906-45.009c0,0-1.329,18.218,18.6,68.585,0,0-5.9,11.411-7.69,10.944a.479.479,0,0,1-.283-.227c-4.594-7.3,4.185-22.613,4.185-22.613,17.844-31.129,19.251-106.717,95.678-200.4,45.682-55.993,88.944-82.63,87.705-83.588-2.028-1.569-116.706,71.139-156.806,152.173-7.072,14.294-48.02,101.99-48.037,123.347,0,.309.007,1.362-.431,1.459-6.283,1.385-79.3-200.784-79.3-200.784L1077.1,700.491s-1.329,37.507-3.987,38.579-10.631-39.651-13.289-39.651,0,18.218-1.329,19.29-15.946-112.522-14.617-112.522-10.631,99.663-9.3,99.663-7.973,19.29-9.3,19.29-2.658-13.931-2.658-13.931-11.96,27.863-17.275,28.934,18.6-61.084,17.275-64.3-39.866,64.3-39.866,64.3a429.046,429.046,0,0,0,4.651-50.9c2.271-72.41-14.252-134.688-33.688-182.823,7.353,50.688,13.455,88.444,17.275,111.451,0,0,13.125,79.035-13.487,116.917-.29.413-.884,1.254-1.676,1.2-7.169-.452-4.429-84.759-15.6-129.8,0,0-7.973,98.591-9.3,99.663s-26.577-46.081-30.564-46.081,33.221,96.448,22.591,106.092L881.762,591.184s3.987,93.233,1.329,95.376S879.1,624.4,879.1,624.4s-5.315,39.651-6.644,41.794c-.045.072-.108.146-.179.144-1.448-.033.1-30.8-2.28-50.619-1.955-16.294-8.147-38.4-26.577-64.3a297.6,297.6,0,0,1,15.946,60.012c2.324,15.049,2.878,30.751,3.987,62.155.381,10.788.387,15.512-.2,21.541a127.2,127.2,0,0,1-13.289,45.009l-2.658-107.164s-17.275,85.731-21.262,85.731-3.987-31.078,9.3-53.582c0,0,10.631-25.719,7.973-27.863s-17.275,33.221-19.933,33.221S802.03,584.754,800.7,563.321s-1.329,144.672-3.987,148.958-10.631,24.648-10.631,24.648,0-28.934,2.658-32.149c.2-.238.306-.341.339-.328.366.153-9.2,19.116-13.628,18.546-5.435-.7-2.581-30.787-2.46-52.619.283-51.051-14.305-71.182-22.591-113.594-5.917-30.294-9.058-74.2,5.315-130.74C729.991,497.5,729.546,546.8,734.456,579.288c0,0,10.256,67.863,6.446,109.416-.053.578-2.658,28.934-2.658,28.934s-15.946-19.29-14.617-35.364-3.987,68.585-3.987,68.585-3.987,16.075-6.644,16.075,0-82.516,10.631-112.522c0,0,1.329-19.289,0-25.719s-11.96,58.94-19.933,58.94S697.05,658.7,697.05,658.7s-3.987,28.934-6.644,61.083c-1.749,21.156-13.857,45.1-18.9,44.032-2.76-.584-.815-16.554.3-25.814,3.637-30.243,8.446-74.219,14.816-141.565C656.752,681.6,646.658,716.861,647.882,723c0,0,.348,1.749.311,1.755-.455.08-12-41.406-9.613-41.406,2.658,0-3.322,109.843-3.322,109.843" transform="translate(-635.258 -426.043)" fill="#7fa088"/>
</svg>
