<svg xmlns="http://www.w3.org/2000/svg" width="371.534" height="349.639" viewBox="0 0 371.534 349.639">
  <g id="Lawnmower" transform="translate(-225.514 -234.616)">
    <path id="Path_958" data-name="Path 958" d="M404.049,676.905a35.249,35.249,0,0,0-4.017,23.648c.737,3.914,3.236,13.437,12,20.258,13.717,10.669,30.7,5.337,32.183,4.845,12.091-4.708,21.06-14.432,22.5-25.679C468.33,687.363,459.977,676.7,457,672.9a46.637,46.637,0,0,0-8.034-8,38.969,38.969,0,0,0-18.99-3.638,31.248,31.248,0,0,0-25.928,15.644Z" transform="translate(-55.695 -143.666)" fill="#050505" stroke="#020202" stroke-miterlimit="10" stroke-width="1"/>
    <path id="Path_959" data-name="Path 959" d="M608.455,691.791s2.922-45.84,42.362-31.288c0,0,46.744,18.918,7.3,57.482C658.121,717.985,617.95,737.632,608.455,691.791Z" transform="translate(-93.209 -142.909)" fill="#050505" stroke="#020202" stroke-miterlimit="10" stroke-width="1"/>
    <path id="Path_960" data-name="Path 960" d="M417.9,657.4s-8.87-29.648,29.84-22.372l162.144-.727s14.608-1.455,16.068,15.28l29.215,26.194.73,4.366-16.148.573s-5.813-27.63-31.716-27.562S574.1,679.414,574.1,679.414l-105.408,1.638s-5.861-27.515-36.776-26.218Z" transform="translate(-58.85 -137.808)" fill="#cc5a71"/>
    <path id="Path_961" data-name="Path 961" d="M482.351,703.578l-2.361-10.083L585.4,691.857l-.365,12.006Z" transform="translate(-70.152 -150.251)" fill="#6a6a6a"/>
    <path id="Path_962" data-name="Path 962" d="M465.189,629.39s-6.427-21.708,13.293-18.8l113.209-.728s8.765.728,8.765,8l.634,10.955Z" transform="translate(-67.315 -132.654)" fill="#aaa9a9"/>
    <path id="Path_963" data-name="Path 963" d="M496.631,608.008s-3.652-11.642,8.765-9.459l70.846-.727s10.249-.17,7.316,9.374Z" transform="translate(-73.049 -130.069)" fill="#6a6a6a"/>
    <path id="Path_964" data-name="Path 964" d="M420.769,558.115c-30.8-70.228-79.348-137.441-110.15-207.669a40.167,40.167,0,0,0-19.72-14.553c-13.146-4.365-29.945-10.914-29.945-10.914s-34.693-1.819,19.355-26.558l48.205,30.56s2.191.546,5.113,3.729a40.168,40.168,0,0,1,9.5,19.555c1.456,8.889,34.648,46.709,100.6,185.612" transform="translate(-21.949 -60.967)" fill="none" stroke="#0a0809" stroke-miterlimit="10" stroke-width="5"/>
    <path id="Path_965" data-name="Path 965" d="M425.034,714.738c-6.263-4.964-9.455-12.246-8.034-18.918a16.637,16.637,0,0,1,4.382-8c.527-.731,6.067-8.162,15.338-8,10.72.183,15.965,10.332,16.434,11.278.655,1.322,4.085,8.247.854,15.6a18.3,18.3,0,0,1-9.619,9.139C435.222,719.9,426.336,715.421,425.034,714.738Z" transform="translate(-58.786 -147.665)" fill="#848484" stroke="#4f3b38" stroke-miterlimit="10" stroke-width="1"/>
    <path id="Path_966" data-name="Path 966" d="M435.219,705.005s-2.191-7.277,2.922-7.277,4.382-2.182,5.843,2.183S443.253,710.827,435.219,705.005Z" transform="translate(-62.032 -151.394)" stroke="#662d24" stroke-miterlimit="10" stroke-width="1"/>
    <path id="Path_967" data-name="Path 967" d="M632.262,710.408c-6.263-4.964-9.455-12.246-8.034-18.918a16.636,16.636,0,0,1,4.382-8c.527-.731,6.067-8.162,15.338-8,10.72.183,15.965,10.332,16.434,11.278.655,1.322,4.085,8.247.854,15.6a18.3,18.3,0,0,1-9.619,9.139C642.45,715.568,633.564,711.091,632.262,710.408Z" transform="translate(-95.98 -146.736)" fill="#848484" stroke="#4f3b38" stroke-miterlimit="10" stroke-width="1"/>
    <path id="Path_968" data-name="Path 968" d="M642.447,700.676s-2.191-7.277,2.922-7.277,4.382-2.183,5.843,2.183S650.481,706.5,642.447,700.676Z" transform="translate(-99.227 -150.465)" stroke="#662d24" stroke-miterlimit="10" stroke-width="1"/>
  </g>
</svg>
