<svg xmlns="http://www.w3.org/2000/svg" xmlns:xlink="http://www.w3.org/1999/xlink" width="333.206" height="583.303" viewBox="0 0 333.206 583.303">
  <defs>
    <clipPath id="clip-path">
      <rect id="Rectangle_1516" data-name="Rectangle 1516" width="138.179" height="64.175" transform="translate(0 0)" fill="none"/>
    </clipPath>
    <clipPath id="clip-path-2">
      <rect id="Rectangle_1501" data-name="Rectangle 1501" width="209.436" height="220.457" transform="translate(187 432)" fill="none"/>
    </clipPath>
  </defs>
  <g id="Man-with-flowers" transform="translate(-497.049 -285.5)">
    <g id="Man" transform="translate(497.049 296.489)">
      <path id="Path_969" data-name="Path 969" d="M56.28,649.824l18.23,16.759s26.448,16.113,3.72,28.092S28.247,671.12,28.247,671.12s-5.218-44.6-7.292-55.413l-4.231-30.974v-3.105L60.9,584.733Z" transform="translate(-3.002 -124.829)" fill="#eded26"/>
      <path id="Path_970" data-name="Path 970" d="M16,479.084l-9.436.393L0,350.674l2.462-62.045C3.3,270.129,5,250.854,7.795,230.9q.778-5.55,1.641-11c3.846,5.216,24.561,32.8,37.816,28.249,2.476-.85,4.694-2.816,6.492-6.258,12.308-23.561,10.667-89.533,10.667-89.533s-15.59-47.123-22.154-47.123,8.205-3.142,10.667-2.356,33.641,47.123,33.641,47.123,0,3.142,11.487-.785l18.872-1.571s3.282.785.821-4.712-13.949-31.415-13.949-31.415-2.462-3.927.821-3.927a9.23,9.23,0,0,1,5.744,2.356s9.846,11.781,13.128,19.635,11.487,24.347,11.487,24.347,10.667,30.63,10.667,32.2,4.1,33.771,4.1,33.771l2.462,76.967s-7.385,114.666-7.385,124.09-10.667,59.689-10.667,59.689L81.641,478.3l8.205-125.661L62.769,483.011Z" transform="translate(0 -22.054)" fill="#56351e"/>
      <path id="Path_971" data-name="Path 971" d="M147.6,633.19l18.453,16.535s26.661,15.789,4.094,28.044-50.293-22.944-50.293-22.944a50.322,50.322,0,0,1-7.084-6.188c-1.625-1.7-4.056-2.766-4.8-6.4v-60.81l39.634,2.311Z" transform="translate(-19.378 -124.785)" fill="#eded26"/>
      <path id="Path_972" data-name="Path 972" d="M157.432,277.173c1.351.18,15.067,1.8,22.371-6.918,1.042-1.244,4.121-4.92,3.688-9.58-.576-6.193-6.976-10.01-12.72-13.436a76.239,76.239,0,0,0-22.982-8.621,35.337,35.337,0,0,1-7.045-1.969,34.317,34.317,0,0,1-8.36-4.8c-4.674-2.423-11.662-6.226-19.8-11.4C90.268,206.283,74.4,196.2,68.045,179.452c-3.951-10.413,1.258-8.951-2.462-29.844-.509-2.856-7.745-41.873-22.154-43.2a9.637,9.637,0,0,0-1.641,0c-9.2.686-14.814,12.286-17.231,17.278a68.142,68.142,0,0,0-5.744,18.849c-7,38.268-7.111,35.634-8.205,45.552-1.918,17.38-2.818,26.207,0,32.986,3.88,9.335,11.767,15.168,20.513,21.991,3.862,3.014,12.89,8.113,17.749,9.087a61.858,61.858,0,0,1,14.806,5.412l27.882,6.972c3.292,2.2,15.3,3.031,21.022,5.716,8.592,4.033,9.986.194,16.2,1.836a177.713,177.713,0,0,0,28.649,5.082" transform="translate(-1.583 -22.83)" fill="#cc5a71"/>
      <path id="Path_973" data-name="Path 973" d="M64.5,102.921s33.641,42.411,33.641,47.123c0,0,2.462,2.356,11.487-.785l18.872-1.571s4.149,1.1-1.208-8.483-11.92-27.645-11.92-27.645-22.154,27.488-45.128-7.854Z" transform="translate(-11.577 -22.089)" fill="#cc5a71"/>
      <path id="Path_974" data-name="Path 974" d="M136.592,112.457s22.078,7.433,33.565,36.492c0,0,13.949,29.059,13.949,29.844s9.846,24.347,18.872,27.488c0,0,10.667,10.21,19.692,12.566s23.8,11.781,23.8,11.781,5.744,3.927,4.923,7.854c0,0-12.308-2.356-12.308,4.712s1.641,10.21,1.641,10.21l-25.437-.785s-31.512-6.49-39.551-17.382c0,0-4.752-60.559-11.317-66.355,0,0-22-56-27.824-56.425" transform="translate(-24.516 -24.135)" fill="#cc5a71"/>
      <path id="Path_975" data-name="Path 975" d="M102.207,183.941s-4.923-7.854,4.1-10.21,34.462-3.142,34.462-3.142,5.744-3.927,5.744,2.356,4.923,14.137,0,24.347-21.333,8.639-25.436,7.068S103.027,189.439,102.207,183.941Z" transform="translate(-18.104 -36.352)" fill="none" stroke="#0f3f0f" stroke-miterlimit="10" stroke-width="1"/>
      <line id="Line_80" data-name="Line 80" y1="5.832" x2="44.57" transform="translate(84.103 141.757)" fill="none" stroke="#0f3f0f" stroke-miterlimit="10" stroke-width="1"/>
      <path id="Path_976" data-name="Path 976" d="M215.389,314.007s7.585-10.092,5.026-16.113c0,0,9.922,3.412,13.691,2.225s11.414,1.317,12.661,3.495-2.457,4.581-2.457,4.581-.507,1.921,4.972,4.361,4.235,5.686,4.235,5.686l-8.295,7.444s-6.216,2.1-8.644-.587c0,0-19.761-7.993-21.191-11.092" transform="translate(-38.659 -63.934)" fill="#ffdbbe"/>
      <path id="Path_978" data-name="Path 978" d="M75.92,33.372a13,13,0,0,1,3.336-3.617c2.407-1.88,6.586-8.326,15.164-7.459,0,0,8.955,4.862,13.689,4.434a17.108,17.108,0,0,1,9.056-1.612c5.525.4,6.345,4.327,7.166,8.254s1.641,26.7-5.744,27.488c0,0-8.205-4.712-12.308-5.5s-16.41,0-21.333,3.142c0,0-8.205.785-9.026-11s0-14.137,0-14.137" transform="translate(-13.561 -4.768)" fill="#ffdbbe"/>
      <path id="Path_979" data-name="Path 979" d="M71.616,103.211,82.6,102.92s1.641,0,1.641-3.927V97.422s16.41,3.927,18.872,1.571l-.821,4.712a7.366,7.366,0,0,0,4.923,1.571,25.152,25.152,0,0,1,7.385,1.571s1.641,3.142,0,4.712-6.564,8.639-16.41,8.639a26.139,26.139,0,0,1-16.01-5.307s-10.056-10.6-10.562-11.68" transform="translate(-12.854 -20.909)" fill="#ffd0ba"/>
      <path id="Path_980" data-name="Path 980" d="M69.711,69.23s9.846,23.561,36.923,14.922c0,0,18.872-4.712,18.051-21.205,0,0,2.462-18.849.821-23.561s-1.231,6.676-1.231,6.676S122.634,64.91,116.89,64.91c0,0-8.85-7.06-13.451-6.672s-15.267-.4-20.19,4.316c0,0-7.811-2.933-8.418-10.5a141.658,141.658,0,0,1-.2-15.811s-2.051-3.534-3.692,5.89-4.1,19.635-1.231,27.1" transform="translate(-12.275 -7.639)" fill="#56351e"/>
      <path id="Path_981" data-name="Path 981" d="M96.888,77.991s1.641-5.5,13.128-2.356c0,0,12.308,2.356,4.1,3.142a75.126,75.126,0,0,1-17.231-.785" transform="translate(-17.39 -16.025)" fill="#ffdbbe"/>
      <path id="Path_982" data-name="Path 982" d="M281.589,301.4s5.744.785,4.923-1.571c0,0,3.282,0,3.282-2.356s-5.744-3.927-5.744-3.927-1.641-3.142,1.641-3.142,7.385,4.712,7.385,4.712a4.713,4.713,0,0,0,.82-5.5c-1.641-3.142-12.308-14.922-20.1-16.886s-11.9.393-12.308,4.712a28.569,28.569,0,0,0,1.278,9.571s8.158,15.168,18.824,14.383" transform="translate(-46.922 -58.383)" fill="#ffdbbe"/>
      <g id="Group_863" data-name="Group 863" transform="translate(31.335 -10.989)" clip-path="url(#clip-path)">
        <path id="Path_1146" data-name="Path 1146" d="M56.136,32.163c-4.412-.76-12.243-1.308-19,3a31.37,31.37,0,0,0-9,9c-2.107,3.232-2.75,5.626-6,9-2.224,2.309-3.763,3.906-6,4-2.994.125-3.829-2.586-8-3-2.729-.271-3.386.79-5,0-2.215-1.084-3.586-4.358-3-7,.572-2.58,2.579-2.611,3-5,.569-3.23-2.8-4.881-2-7,.892-2.367,5.3-.864,8-4,2.183-2.537.676-5.126,3-7,1.126-.908,2.766-.951,6-1,4.8-.073,8.01-.121,10,2,1.669,1.779,1.483,4.022,2,4,.926-.039-.13-7.157,2.479-12.085,3.411-6.44,13.376-9.7,21.521-8.915,14.606,1.4,14.581,14.936,35,22,4.675,1.617,13,3.789,13,7,0,2.253-4.105,3.437-4,6,.089,2.165,3.12,3.844,6,5-5.14,2.724-6.109,4.689-6,6,.161,1.944,2.7,2.5,3,5,.266,2.2-1.327,4.786-3,5-.792.1-1.293-.368-5-4-3.489-3.418-3.681-3.626-4-4a32.429,32.429,0,0,1-4-6c-4.986-9.193-7.48-13.789-11-15-3.3-1.135-4.425.935-10,0a22.913,22.913,0,0,1-8-3" fill="#56351e"/>
        <path id="Path_1147" data-name="Path 1147" d="M31.136,30.163l107,3s3-6-41-6h-10s-1-44-54-20c0,0-9,13-2,23" fill="#4a7756"/>
      </g>
    </g>
    <g id="Flowers-in-hand" transform="translate(433.819 3.5)">
      <g id="Group_807" data-name="Group 807" clip-path="url(#clip-path-2)">
        <path id="Path_985" data-name="Path 985" d="M.054,153.007s17.617-1.917,24.224-19.176c0,0,13.213-3.835,41.842-11.5,0,0-22.022,19.176-17.618,42.186s4.4,34.515-15.415,34.515" transform="translate(187 432)" fill="none" stroke="#56351e" stroke-miterlimit="10" stroke-width="1"/>
        <path id="Path_986" data-name="Path 986" d="M26.48,177.934s11.011-3.835,6.607-21.092,17.617-32.6,24.224-28.763" transform="translate(187 432)" fill="none" stroke="#56351e" stroke-miterlimit="10" stroke-width="1"/>
        <path id="Path_987" data-name="Path 987" d="M4.458,185.6s33.034-49.855,48.449-53.69,13.212-7.67,8.808,11.505-13.213,7.67-6.606,24.928a108.578,108.578,0,0,1,6.606,34.514" transform="translate(187 432)" fill="none" stroke="#56351e" stroke-miterlimit="10" stroke-width="1"/>
        <path id="Path_988" data-name="Path 988" d="M59.513,220.119s17.618-19.175,6.607-69.03c0,0-2.2-24.927,2.2-24.927s-8.809,17.257,2.2,24.927,13.213,30.68,11.011,40.268" transform="translate(187 432)" fill="none" stroke="#56351e" stroke-miterlimit="10" stroke-width="1"/>
        <path id="Path_989" data-name="Path 989" d="M103.557,206.7s-22.022-59.442-22.022-72.865-15.415-11.5-15.415-11.5" transform="translate(187 432)" fill="none" stroke="#56351e" stroke-miterlimit="10" stroke-width="1"/>
        <path id="Path_990" data-name="Path 990" d="M132.185,59.049s-17.617-9.587-15.415-28.762,17.617-13.423,24.224-9.588,17.617,7.67,6.606,23.01-6.606,15.34-15.415,15.34" transform="translate(187 432)" fill="#f0f757"/>
        <path id="Path_991" data-name="Path 991" d="M196.049,74.389s-11.011,15.34,6.607,11.5-4.4-15.34-6.607-11.5" transform="translate(187 432)" fill="#cec411"/>
        <path id="Path_992" data-name="Path 992" d="M196.049,74.389s-22.022-23.01-30.831-11.505S192.95,79.343,192.95,79.343s-38.743-10.706-36.54,2.716,37.923,1.164,37.923,1.164-44.53,10.341-24.71,23.763c0,0,13.213,0,18.718-16.3l5.992-7.465s3.918,31.433-2.688,33.351-11.011,1.917-11.011-5.753,2.2-9.587,2.2-9.587" transform="translate(187 432)" fill="#cc5a71"/>
        <path id="Path_993" data-name="Path 993" d="M196.049,87.812l9.21-1.8s10.61,26.725-4.806,28.643c0,0-6.505,2.205-5.455-2.733" transform="translate(187 432)" fill="#cc5a71"/>
        <path id="Path_994" data-name="Path 994" d="M149.8,131.914s-22.022,36.432,17.618,32.6,19.819-40.267,8.808-42.184-28.628,3.835-26.426,9.587" transform="translate(187 432)" fill="#f0f757"/>
        <path id="Path_995" data-name="Path 995" d="M152.005,57.132s-8.809-11.505-2.2-11.505,6.606,7.67,2.2,11.505" transform="translate(187 432)" fill="#facaa6"/>
        <path id="Path_996" data-name="Path 996" d="M152.005,57.132s24.224,1.917,15.415-3.835-15.415,3.835-15.415,3.835" transform="translate(187 432)" fill="#facaa6"/>
        <path id="Path_997" data-name="Path 997" d="M155.708,51.473s-8.809-11.505-2.2-11.505,6.606,7.67,2.2,11.505" transform="translate(187 432)" fill="#facaa6"/>
        <path id="Path_998" data-name="Path 998" d="M171.123,47.638c-8.809-5.752-15.415,3.835-15.415,3.835s24.224,1.917,15.415-3.835" transform="translate(187 432)" fill="#facaa6"/>
        <path id="Path_999" data-name="Path 999" d="M160.112,45.721s-8.809-11.505-2.2-11.505,6.606,7.67,2.2,11.505" transform="translate(187 432)" fill="#facaa6"/>
        <path id="Path_1000" data-name="Path 1000" d="M175.528,41.886c-8.809-5.752-15.415,3.835-15.415,3.835s24.224,1.917,15.415-3.835" transform="translate(187 432)" fill="#facaa6"/>
        <path id="Path_1001" data-name="Path 1001" d="M164.517,39.968s-8.809-11.5-2.2-11.5,6.606,7.67,2.2,11.5" transform="translate(187 432)" fill="#facaa6"/>
        <path id="Path_1002" data-name="Path 1002" d="M179.932,36.133c-8.809-5.752-15.415,3.835-15.415,3.835s24.224,1.917,15.415-3.835" transform="translate(187 432)" fill="#facaa6"/>
        <path id="Path_1003" data-name="Path 1003" d="M168.921,34.216s-8.809-11.5-2.2-11.5,6.606,7.67,2.2,11.5" transform="translate(187 432)" fill="#facaa6"/>
        <path id="Path_1004" data-name="Path 1004" d="M184.336,30.381c-8.809-5.752-15.415,3.835-15.415,3.835s24.224,1.917,15.415-3.835" transform="translate(187 432)" fill="#facaa6"/>
        <path id="Path_1005" data-name="Path 1005" d="M173.326,28.463s-8.81-11.5-2.2-11.5,6.606,7.67,2.2,11.5" transform="translate(187 432)" fill="#facaa6"/>
        <path id="Path_1006" data-name="Path 1006" d="M188.741,24.628c-8.809-5.752-15.415,3.835-15.415,3.835s24.224,1.917,15.415-3.835" transform="translate(187 432)" fill="#facaa6"/>
        <path id="Path_1007" data-name="Path 1007" d="M177.73,22.711s-8.809-11.505-2.2-11.505,6.606,7.67,2.2,11.505" transform="translate(187 432)" fill="#facaa6"/>
        <path id="Path_1008" data-name="Path 1008" d="M193.145,18.876c-8.809-5.752-15.415,3.835-15.415,3.835s24.224,1.917,15.415-3.835" transform="translate(187 432)" fill="#facaa6"/>
        <path id="Path_1009" data-name="Path 1009" d="M182.134,16.958s-8.809-11.505-2.2-11.505,6.606,7.67,2.2,11.505" transform="translate(187 432)" fill="#facaa6"/>
        <path id="Path_1010" data-name="Path 1010" d="M197.55,13.123c-8.809-5.752-15.415,3.835-15.415,3.835s24.224,1.917,15.415-3.835" transform="translate(187 432)" fill="#facaa6"/>
        <path id="Path_1011" data-name="Path 1011" d="M186.618,11.44s-1.538-14.2,4.7-10.958,1.718,9.827-4.7,10.958" transform="translate(187 432)" fill="#facaa6"/>
        <path id="Path_1012" data-name="Path 1012" d="M125.579,53.3c-13.213,1.917-37.437,47.937-37.437,47.937s63.863-28.762,63.863-42.185" transform="translate(187 432)" fill="none" stroke="#4a7856" stroke-miterlimit="10" stroke-width="2"/>
        <path id="Path_1013" data-name="Path 1013" d="M90.344,103.152s17.617-5.752,41.842,11.5l24.224,17.257" transform="translate(187 432)" fill="none" stroke="#4a7856" stroke-miterlimit="10" stroke-width="2"/>
        <path id="Path_1014" data-name="Path 1014" d="M92.546,114.657s77.077-13.422,77.077-19.175" transform="translate(187 432)" fill="none" stroke="#4a7856" stroke-miterlimit="10" stroke-width="2"/>
        <path id="Path_1015" data-name="Path 1015" d="M89.9,96.526s4.846-12.549-3.963-22.137c0,0,8.809-1.917,0-11.505,0,0,6.607-9.587-4.4-13.422,0,0,11.011,3.835,4.4-9.587,0,0,6.607,15.34,11.011,3.835,0,0-2.2,11.505,6.607,9.587,0,0-6.607,5.752,0,7.67,0,0-6.607,1.917-4.4,7.67,0,0-6.606,7.67-2.2,7.67Z" transform="translate(187 432)" fill="#4a7856"/>
        <path id="Path_1016" data-name="Path 1016" d="M93.535,115.03s11.269.608,13.92,10.54c0,0,5.564-6.012,8.215,3.92,0,0,9.992-1.733,7.487,7.906,0,0,2.505-9.639,8.943-.067,0,0-7.807-10.226,2.506-9.639,0,0-9.264-2.253-3.7-8.266,0,0-7.254,3.04-5.477-2.613,0,0-4.515,4.346-7.574.72,0,0-8.623,2.387-6.526-.946Z" transform="translate(187 432)" fill="#4a7856"/>
      </g>
    </g>
  </g>
</svg>
