<svg xmlns="http://www.w3.org/2000/svg" xmlns:xlink="http://www.w3.org/1999/xlink" width="195.435" height="115.138" viewBox="0 0 195.435 115.138">
  <defs>
    <clipPath id="clip-path">
      <rect id="Rectangle_1502" data-name="Rectangle 1502" width="184.662" height="90.317" fill="none" stroke="rgba(112,112,112,0)" stroke-width="1"/>
    </clipPath>
  </defs>
  <g id="mole" transform="translate(0 25.7) rotate(-8)">
    <g id="Group_809" data-name="Group 809" clip-path="url(#clip-path)">
      <path id="Path_1018" data-name="Path 1018" d="M25.532,207.988s-1.391-10.626,7.651-7.306,1.391,9.63-.7,9.63S25.184,208.984,25.532,207.988Z" transform="translate(-16.602 -133.611)" fill="#cc5a71" stroke="rgba(9,10,9,0)" stroke-miterlimit="10" stroke-width="1"/>
      <path id="Path_1019" data-name="Path 1019" d="M202.562,65.047,190.5,68.235s-21.215.332-24.692-1.992c0,0-10.433-5.977-16.693,8.966a8.961,8.961,0,0,1-4.173-7.638s3.826,4.649-3.478,3.985-9.39-.332-5.564-7.638c0,0-3.714-8.721-8.291-8.843s-7.012-2.779-13.967.209-12.52-1-13.216-4.981a37.993,37.993,0,0,1-.348-8.3c-.755-.2-4.112-1.136-4.751-3.485-.444-1.635.641-3.17,1.621-4.485C102.782,26.2,105.7,22.28,111.2,19.752a31.561,31.561,0,0,1,7.651-2.325c3.174-.609,4.761-.913,6.608-.332,1.984.624,2.248,1.567,4.521,1.992a10.457,10.457,0,0,1,3.13,1,3.95,3.95,0,0,1,1.043.664c-.12.233-8.634-3.378-8.537-3.725,0-.012.023-.02.06-.024a1.467,1.467,0,0,0,1.174-.569S141.807,5.8,149.806,8.793c0,0,4.521,1.66,5.564.664,0,0,18.432-8.3,21.562-8.3s18.78-3.321,32.691,4.981,9.042,12.951,16.346,16.936S238.143,41,235.013,49.639a41.15,41.15,0,0,1-4.507,8.951c-3.506,5.165-8.275,9.081-13.925,8.649-8.695-.664-15.65,0-23.3-9.962s7.3-32.876,22.606-28.559" transform="translate(-62.104 -0.334)" fill="#ebebeb" stroke="gray" stroke-miterlimit="10" stroke-width="1"/>
      <path id="Path_1020" data-name="Path 1020" d="M469.475,175.429s11.115,1.344,11.811.679,9.042,4.981.348,7.306-19.476,1.328-19.476,1.328l-.543-1.78S469.488,177.738,469.475,175.429Z" transform="translate(-301.073 -117.173)" fill="#facaa4" stroke="rgba(112,112,112,0)" stroke-miterlimit="10" stroke-width="1"/>
      <path id="Path_1021" data-name="Path 1021" d="M72.529,113.343s-4.357-2.707-.879-9.681,6.26-7.306,6.26-7.306l3.118-.556a24.429,24.429,0,0,1-1.957,6.369C77.562,105.323,72.529,113.343,72.529,113.343Z" transform="translate(-45.853 -63.988)" fill="#facaa4" stroke="rgba(112,112,112,0)" stroke-miterlimit="10" stroke-width="1"/>
      <path id="Path_1022" data-name="Path 1022" d="M102.059,145.7s-6.26,4.649-20.171,2.989c0,0-6.956.332-11.477,1s-1.043.332-1.043.332-4.521-1.66-4.173-1.992-10.419,4.153-14.252,2.575c0,0,4.166-4.9-3.311-6.726,0,0-.522-7.472,3.3-9.132s8.077-9.907,8.077-9.907l5.257-9.85s1.969,3.817,4.751,3.485c0,0-2.021,11.491,4.9,13.383a9.876,9.876,0,0,0,8.662-.1c4.521-2.325,7.416-1.1,7.416-1.1s5.025.882,7.5.993,6.734,7.753,6.734,7.753S103.45,145.7,102.059,145.7Z" transform="translate(-31.05 -76.798)" fill="#facaa4" stroke="#bebebe" stroke-miterlimit="10" stroke-width="1"/>
      <path id="Path_1023" data-name="Path 1023" d="M17.813,199.267S6.653,199,3.175,200.988" transform="translate(-2.071 -133.087)" fill="none" stroke="#090a09" stroke-miterlimit="10" stroke-width="1"/>
      <path id="Path_1024" data-name="Path 1024" d="M16.174,185.781s-7.651-5.977-16-2.989" transform="translate(-0.115 -121.532)" fill="none" stroke="#090a09" stroke-miterlimit="10" stroke-width="1"/>
      <path id="Path_1025" data-name="Path 1025" d="M22.055,174.3a18.752,18.752,0,0,0-14.879-4.235" transform="translate(-4.68 -113.452)" fill="none" stroke="#090a09" stroke-miterlimit="10" stroke-width="1"/>
      <path id="Path_1026" data-name="Path 1026" d="M81.176,190.733s14.259-3.321,20.867,9.962" transform="translate(-52.945 -127.148)" fill="none" stroke="#090a09" stroke-miterlimit="10" stroke-width="1"/>
      <path id="Path_1027" data-name="Path 1027" d="M70.176,200.475S84.783,201.8,88.261,212.43" transform="translate(-45.77 -133.902)" fill="none" stroke="#090a09" stroke-miterlimit="10" stroke-width="1"/>
      <path id="Path_1028" data-name="Path 1028" d="M70.176,209.475S80.609,215.12,81.3,221.1" transform="translate(-45.77 -139.913)" fill="none" stroke="#090a09" stroke-miterlimit="10" stroke-width="1"/>
      <path id="Path_1029" data-name="Path 1029" d="M178.176,174.475a8.162,8.162,0,0,1,1.043,1.038,3.85,3.85,0,0,1,1.043,2.283" transform="translate(-116.21 -116.536)" fill="none" stroke="#090a09" stroke-miterlimit="10" stroke-width="1"/>
      <path id="Path_1030" data-name="Path 1030" d="M127.042,177.6s-2.587,7.031-9.293,7.978a123.688,123.688,0,0,0-15.4,3.6l-4.173.664" transform="translate(-64.032 -118.623)" fill="none" stroke="#090a09" stroke-miterlimit="10" stroke-width="1"/>
      <path id="Path_1031" data-name="Path 1031" d="M364.348,206.437c-6.956,4.649-1.739,7.638-1.739,5.977s8.695-3.985,10.781-5.645,3.826-.664,10.781-2.989,5.021-6.761,5.021-6.761c-2.977,3.534-20.324-.545-20.324-.545L356.7,199.8l-2.782,1c-7.3,4.317-.348,4.981-.348,4.981s-1.043,1.992,2.087,1.992c0,0,.7,4.981,3.13,2.989Z" transform="translate(-228.652 -131.23)" fill="#facaa4" stroke="rgba(112,112,112,0)" stroke-miterlimit="10" stroke-width="1"/>
      <path id="Path_1032" data-name="Path 1032" d="M250.112,205.019s-.7,15.276,4.173,15.276c0,0,8.695,0,1.739-5.645,0,0,3.826,5.313,6.26,1.328s-2.087-5.645-2.087-5.645,4.173,4.649,6.608,2.989-3.13-5.977-3.13-5.977,3.13,4.981,5.912,1.66-1.391-4.981-1.391-4.981,4.869,2.657,3.478-1.66-9.321-7.514-9.321-7.514S252.894,195.389,250.112,205.019Z" transform="translate(-163.105 -130.144)" fill="#facaa4" stroke="rgba(112,112,112,0)" stroke-miterlimit="10" stroke-width="1"/>
      <path id="Path_1033" data-name="Path 1033" d="M41.378,109.663s-4.767-7.009,4.66-16.419c0,0-9-2.769-10.744-2.769s-4.521.664-4.521,2.325,2.087,1.66,2.087,1.66-4.521-2.325-4.521,1,1.391,3.321,2.782,3.321-5.912-.664-5.564,2.325,2.434,2.989,4.869,2.989-8.347-1-6.608,2.325,1.043,3.321,5.564,2.325c0,0-7.651,1.66-4.173,4.981S41.378,109.663,41.378,109.663Z" transform="translate(-15.41 -60.43)" fill="#facaa4" stroke="rgba(112,112,112,0)" stroke-miterlimit="10" stroke-width="1"/>
    </g>
  </g>
</svg>
