<svg xmlns="http://www.w3.org/2000/svg" width="805.465" height="181.634" viewBox="0 0 805.465 181.634">
  <g id="Stones" transform="translate(-33.287 23.989)">
    <path id="Path_888" data-name="Path 888" d="M184.647,842.149l-.769-20.2s24.588-8.544,26.125-5.437,13.062,12.428,13.062,12.428l-3.074,15.535H198.478l-6.147,10.875-9.988-4.661Z" transform="translate(-149.055 -783.38)" fill="#bab9b9"/>
    <path id="Path_889" data-name="Path 889" d="M774.491,875.072l-19.059,2.459s-10.1-25.095-7.287-26.961,10.7-14.721,10.7-14.721L773.8,837.8l1.761,22.57,10.8,5.558-3.595,10.861Z" transform="translate(-414.169 -742.95)" fill="#bab9b9"/>
    <path id="Path_890" data-name="Path 890" d="M1857.589,844.149l-.769-20.2s24.588-8.544,26.125-5.437,13.062,12.428,13.062,12.428l-3.074,15.535-17.257,12.86q-9.045-7.594-18.088-15.189" transform="translate(-1057.255 -841.825)" fill="#bab9b9"/>
    <path id="Path_892" data-name="Path 892" d="M1203.8,883.757l-14.96-.034s-5.465-20.995-3.114-22.183,9.643-10.58,9.643-10.58l11.38,3.112-.746,18.117,7.827,5.544-3.792,8.254Z" transform="translate(-637.539 -850.959)" fill="#bab9b9"/>
    <path id="Path_885" data-name="Path 885" d="M411.772,964.022l10.8-9.458q1.515,5.895,3.029,11.788l-6.147,10.875-9.988-4.661Z" transform="translate(-131.906 -819.582)" fill="#bab9b9"/>
  </g>
</svg>
