<svg xmlns="http://www.w3.org/2000/svg" width="59" height="54" viewBox="0 0 59 54">
  <path id="hollow-add-button" d="M29,53a31.188,31.188,0,0,1-11.288-2.083,29.179,29.179,0,0,1-9.217-5.679,26.422,26.422,0,0,1-6.217-8.424,24.492,24.492,0,0,1,0-20.629A26.427,26.427,0,0,1,8.494,7.762a29.184,29.184,0,0,1,9.217-5.679,31.636,31.636,0,0,1,22.576,0,29.2,29.2,0,0,1,9.219,5.679,26.415,26.415,0,0,1,6.215,8.424,24.483,24.483,0,0,1,0,20.629,26.4,26.4,0,0,1-6.215,8.424,29.194,29.194,0,0,1-9.219,5.679A31.174,31.174,0,0,1,29,53ZM26.552,28.737V44.388h4.895V28.737H48.574V24.264H31.447V8.613H26.552V24.264H9.426v4.473Z" transform="translate(0.5 0.5)" fill="#74977d" stroke="#707070" stroke-width="1"/>
</svg>
