<svg xmlns="http://www.w3.org/2000/svg" width="805.465" height="191.639" viewBox="0 0 805.465 191.639">
  <g id="worms-and-stones" transform="translate(-33.287 23.989)">
    <path id="Path_885" data-name="Path 885" d="M411.772,964.022l10.8-9.458q1.515,5.895,3.029,11.788l-6.147,10.875-9.988-4.661Z" transform="translate(-131.906 -819.582)" fill="#bab9b9"/>
    <path id="Path_886" data-name="Path 886" d="M19.541,68.906s-22.095-9.775-3.471-31.16S5.333,6.907,2.187,5.864s-5.021-12.3,9.855-.554,23.727,12.362,12.923,34.7c0,0-13.743,10.18-8.791,20,0,0,11.059,5.3,10.111,8.533s-2.476,4.364-6.744.358" transform="translate(185.491 15.636) rotate(-51)" fill="#fbc4ab"/>
    <path id="Path_887" data-name="Path 887" d="M1.458,60.261S-7.059,43.378,17.073,35.03,27.865,6.941,26.451,4.8s3.834-11.521,6.612,3.785,8.079,19.552-11.6,31.965c0,0-14.6,1.892-17.063,11.494,0,0,4.03,8.761,1.574,10.82s-4.078,2.268-4.512-2.607" transform="matrix(0.809, 0.588, -0.588, 0.809, 516.855, 73.26)" fill="#fbc4ab"/>
    <path id="Path_888" data-name="Path 888" d="M184.647,842.149l-.769-20.2s24.588-8.544,26.125-5.437,13.062,12.428,13.062,12.428l-3.074,15.535H198.478l-6.147,10.875-9.988-4.661Z" transform="translate(-149.055 -783.38)" fill="#bab9b9"/>
    <path id="Path_889" data-name="Path 889" d="M774.491,875.072l-19.059,2.459s-10.1-25.095-7.287-26.961,10.7-14.721,10.7-14.721L773.8,837.8l1.761,22.57,10.8,5.558-3.595,10.861Z" transform="translate(-414.169 -742.95)" fill="#bab9b9"/>
    <path id="Path_890" data-name="Path 890" d="M1857.589,844.149l-.769-20.2s24.588-8.544,26.125-5.437,13.062,12.428,13.062,12.428l-3.074,15.535-17.257,12.86q-9.045-7.594-18.088-15.189" transform="translate(-1057.255 -841.825)" fill="#bab9b9"/>
    <path id="Path_892" data-name="Path 892" d="M1203.8,883.757l-14.96-.034s-5.465-20.995-3.114-22.183,9.643-10.58,9.643-10.58l11.38,3.112-.746,18.117,7.827,5.544-3.792,8.254Z" transform="translate(-637.539 -850.959)" fill="#bab9b9"/>
    <path id="Path_893" data-name="Path 893" d="M1776.829,895.2c-1.6,3.082-27.4-1.609-33.042-16.062-3.456-8.848,2.133-17.525-3.654-22.883-3.527-3.265-9.47-3.621-9.425-6.033.022-1.208,1.533-2.059,1.888-2.245,3.205-1.673,7.945.981,10.239,3.179,6.174,5.913,1.262,14.852,4.728,23.491,2.167,5.4,8.174,12.1,26.2,15.836,2.921,2.815,3.386,4.1,3.065,4.718" transform="translate(-1210.17 -167.335) rotate(-21)" fill="#fbc4ab"/>
    <path id="Path_894" data-name="Path 894" d="M101.222,1003.875c-2.248-.9,1.491-25.542,1.491-25.542S108.4,966,113.779,962.815c9.021-5.345,19.144-.072,24.079-7.637,3.006-4.61,2.543-11.624,5.144-11.925,1.3-.151,2.431,1.494,2.683,1.882,2.255,3.51.078,9.45-1.957,12.46-5.478,8.1-15.786,3.657-24.58,8.984-5.5,3.33-11.843,11.348-13.291,33.013-2.611,3.834-3.926,4.567-4.634,4.282" transform="translate(-36.854 -836.28)" fill="#fbc4ab"/>
  </g>
</svg>
