<svg xmlns="http://www.w3.org/2000/svg" width="706.208" height="180.613" viewBox="0 0 706.208 180.613">
  <g id="Worms" transform="translate(-63.649 12.963)">
    <path id="Path_886" data-name="Path 886" d="M19.541,68.906s-22.095-9.775-3.471-31.16S5.333,6.907,2.187,5.864s-5.021-12.3,9.855-.554,23.727,12.362,12.923,34.7c0,0-13.743,10.18-8.791,20,0,0,11.059,5.3,10.111,8.533s-2.476,4.364-6.744.358" transform="translate(185.491 15.636) rotate(-51)" fill="#fbc4ab"/>
    <path id="Path_887" data-name="Path 887" d="M1.458,60.261S-7.059,43.378,17.073,35.03,27.865,6.941,26.451,4.8s3.834-11.521,6.612,3.785,8.079,19.552-11.6,31.965c0,0-14.6,1.892-17.063,11.494,0,0,4.03,8.761,1.574,10.82s-4.078,2.268-4.512-2.607" transform="matrix(0.809, 0.588, -0.588, 0.809, 516.855, 73.26)" fill="#fbc4ab"/>
    <path id="Path_893" data-name="Path 893" d="M1776.829,895.2c-1.6,3.082-27.4-1.609-33.042-16.062-3.456-8.848,2.133-17.525-3.654-22.883-3.527-3.265-9.47-3.621-9.425-6.033.022-1.208,1.533-2.059,1.888-2.245,3.205-1.673,7.945.981,10.239,3.179,6.174,5.913,1.262,14.852,4.728,23.491,2.167,5.4,8.174,12.1,26.2,15.836,2.921,2.815,3.386,4.1,3.065,4.718" transform="translate(-1210.17 -167.334) rotate(-21)" fill="#fbc4ab"/>
    <path id="Path_894" data-name="Path 894" d="M101.222,1003.875c-2.248-.9,1.491-25.542,1.491-25.542S108.4,966,113.779,962.815c9.021-5.345,19.144-.072,24.079-7.637,3.006-4.61,2.543-11.624,5.144-11.925,1.3-.151,2.431,1.494,2.683,1.882,2.255,3.51.078,9.45-1.957,12.46-5.478,8.1-15.786,3.657-24.58,8.984-5.5,3.33-11.843,11.348-13.291,33.013-2.611,3.834-3.926,4.567-4.634,4.282" transform="translate(-36.854 -836.28)" fill="#fbc4ab"/>
  </g>
</svg>
